<?xml version="1.0" standalone="no"?>
<!DOCTYPE svg PUBLIC "-//W3C//DTD SVG 1.1//EN" "http://www.w3.org/Graphics/SVG/1.1/DTD/svg11.dtd" >
<svg xmlns="http://www.w3.org/2000/svg">
<metadata>
This is a custom SVG webfont generated by Font Squirrel.
Copyright   : Copyright c 2011 by vernon adams All rights reserved
Designer    : vernon adams
Foundry     : vernon adams
</metadata>
<defs>
<font id="CarterOneRegular" horiz-adv-x="1386" >
<font-face units-per-em="2048" ascent="1638" descent="-410" />
<missing-glyph horiz-adv-x="440" />
<glyph unicode=" "  horiz-adv-x="440" />
<glyph unicode="&#x09;" horiz-adv-x="440" />
<glyph unicode="&#xa0;" horiz-adv-x="440" />
<glyph unicode="!" horiz-adv-x="550" d="M534 1170q-32 -156 -62.5 -311.5t-56.5 -314.5q-2 -33 -6.5 -46t-22.5 -16q-39 -7 -77 -15t-80 -19q-8 0 -9.5 2.5t-1.5 7.5l-10 988q2 32 7 45t22 17q85 19 172 43.5t184 49.5q3 1 9 1q11 0 11 -10q0 -1 -4 -24.5t-10.5 -60.5t-14.5 -83.5t-17 -93t-17.5 -89 t-15.5 -71.5zM499 342q-3 -43 -4.5 -66t-2.5 -34.5t-1 -14.5t-0.5 -4.5t-1 -6t-1.5 -19t-3 -42.5t-6 -77q-2 -33 -6.5 -45.5t-22.5 -16.5q-85 -17 -178 -35.5t-180 -47.5q-3 -1 -9 -1l-9 8l-2 2l22 274q2 32 6.5 45t22.5 17q85 15 172 34t184 39q3 1 9 1q11 0 11 -10z" />
<glyph unicode="&#x22;" horiz-adv-x="1101" d="M200 785q-7 141 -13 296t-13 306v13q0 26 6 35.5t23 12.5q48 0 100 0.5t104.5 0.5t103.5 0.5t97 0.5q9 0 15 -5t6 -19v-6l-156 -637q-4 -16 -6.5 -27.5t-6 -18.5t-9 -10.5t-14.5 -3.5q-54 0 -105 -1t-111 -1q-8 0 -12 8t-6 18.5t-2.5 21.5t-0.5 16zM753 785 q-7 141 -13 296t-13 306v13q0 26 6 35.5t23 12.5q48 0 100 0.5t104.5 0.5t103.5 0.5t97 0.5q9 0 15 -5t6 -19v-6l-156 -637q-4 -16 -6.5 -27.5t-6 -18.5t-9 -10.5t-14.5 -3.5q-54 0 -105 -1t-111 -1q-8 0 -12 8t-6 18.5t-2.5 21.5t-0.5 16z" />
<glyph unicode="#" horiz-adv-x="1643" d="M405 699l32 128h-139q-60 0 -89.5 5t-29.5 20q0 8 9.5 33.5t23.5 57.5t31 66t32 59q11 10 20 19t31 10l177 -3q23 96 43.5 190.5t42.5 191.5q7 29 12 40.5t19 11.5h7q38 -12 77.5 -26t79 -26.5t78 -23.5t74.5 -17q7 -2 12.5 -5.5t5.5 -10.5l-82 -330l174 -3 q22 97 44 193.5t44 196.5q7 29 12 40.5t19 11.5h7q38 -12 77.5 -26t79 -26.5t78 -23.5t74.5 -17q7 -2 12.5 -5.5t5.5 -10.5l-82 -330q43 6 83 11.5t73 9t56.5 6t34.5 2.5q8 0 18 -5t10 -21q-1 -8 -17 -43.5t-43 -89.5l-47 -93q-7 -15 -21 -22t-40 -9t-67.5 -1.5t-102.5 0.5 l-33 -136q69 11 123.5 17.5t72.5 6.5q8 0 18 -5t10 -21q0 -6 -8 -29t-20.5 -57t-28 -75.5t-30.5 -84.5q-7 -15 -16.5 -22.5t-38.5 -7.5h-41h-47.5t-61.5 1l-103 -416q-4 -16 -4.5 -30t-15.5 -14q-12 0 -27 7l-190 52q-8 3 -26.5 8.5t-37.5 13.5t-33.5 20t-14.5 27q0 2 2 12 q12 45 22.5 85.5t20.5 80t20 78.5t20 80q-45 0 -88.5 0.5t-88.5 1.5l-104 -422q-4 -16 -4.5 -30t-15.5 -14q-12 0 -27 7l-190 52q-8 3 -26.5 8.5t-37.5 13.5t-33.5 20t-14.5 27q0 2 2 12q24 90 44 168t40 161q-66 1 -111.5 1t-74 2t-41.5 7t-13 16q0 8 11 33.5t28.5 57.5 t38 65.5t38.5 59.5q11 10 20 19t31 10zM949 690q8 35 16.5 70.5t17.5 70.5q-45 0 -88 -0.5t-86 -0.5l-34 -137z" />
<glyph unicode="$" horiz-adv-x="993" d="M762 1367q72 -5 125.5 -10t82.5 -9l27 -294q-2 0 -20.5 2.5t-43.5 5t-51 5t-43 2.5q-21 0 -54.5 -3.5t-66 -14t-55.5 -30t-23 -51.5q0 -39 24.5 -70.5t61.5 -62t80 -63t80 -72.5t61.5 -90.5t24.5 -116.5q0 -56 -23 -104.5t-63 -90t-92.5 -75t-110.5 -58.5 q-1 -17 -3.5 -50t-5.5 -73.5t-6 -83.5t-5 -80l-79 2q-13 0 -41.5 -1.5t-63 -4t-70 -4t-63.5 -1.5l11 191l-79 -3q-35 -2 -76 -3.5t-79 -0.5q15 78 33 151.5t35 151.5q67 6 128.5 20.5t109 36t75.5 48.5t28 57q0 18 -7.5 38.5t-30.5 46.5t-65.5 59.5t-113.5 77.5 q-88 54 -126 117t-38 138q0 50 27 101.5t69.5 95t96 74.5t107.5 41l31 191q2 13 2.5 22t1.5 14.5t4 8.5t11 4q70 5 145.5 11.5t147.5 17.5q6 0 7.5 -2t1.5 -5q0 -2 -4 -22.5t-10.5 -50.5t-13.5 -65t-13 -66z" />
<glyph unicode="%" horiz-adv-x="2193" d="M1057 864q79 97 162 198t164 201q12 15 18 22t16 7q7 0 9 -1q49 -39 95.5 -74t94.5 -64q8 -3 20.5 -9.5t12.5 -14.5q0 -4 -3 -7l-788 -955q-8 -10 -9.5 -14.5t-10.5 -4.5q-5 0 -11.5 1.5t-17.5 3.5q-57 47 -91.5 73t-54 40t-27.5 19t-13 10q-8 5 -9 13t-1 20 q59 67 113.5 132t108 130.5t108 133t114.5 140.5zM152 1127q0 99 26.5 184t79.5 147.5t132.5 98.5t185.5 36q100 0 173.5 -36t121.5 -95.5t71 -136.5t23 -159q0 -107 -30 -191.5t-85 -143t-132 -89.5t-170 -31q-87 0 -160 29.5t-125.5 83.5t-81.5 131t-29 172zM408 1147 q0 -39 6 -79t22.5 -72.5t44.5 -53t72 -20.5q47 0 78 23.5t49.5 59.5t26 79.5t7.5 84.5q0 34 -7.5 72.5t-24 71.5t-44 54.5t-67.5 21.5q-48 0 -79 -22t-50 -57t-26.5 -78t-7.5 -85zM1363 364q0 99 26.5 184t79.5 147.5t132.5 98.5t185.5 36q100 0 173.5 -36t121.5 -95.5 t71 -136.5t23 -159q0 -107 -30 -191.5t-85 -143t-132 -89.5t-170 -31q-87 0 -160 29.5t-125.5 83.5t-81.5 131t-29 172zM1619 384q0 -39 6 -79t22.5 -72.5t44.5 -53t72 -20.5q47 0 78 23.5t49.5 59.5t26 79.5t7.5 84.5q0 34 -7.5 72.5t-24 71.5t-44 54.5t-67.5 21.5 q-48 0 -79 -22t-50 -57t-26.5 -78t-7.5 -85z" />
<glyph unicode="&#x26;" horiz-adv-x="1560" d="M80 297q0 31 2.5 59.5t13.5 58.5t34.5 62.5t64.5 72.5t103.5 89t152.5 111q-63 84 -93 169t-30 166q0 75 35.5 141t104.5 115.5t169.5 78t231.5 28.5q27 0 61.5 -6.5t70 -20.5t69.5 -37t60.5 -56.5t43 -77.5t16.5 -101q0 -53 -17.5 -95.5t-53 -86t-90 -93t-128.5 -115.5 l238 -191q11 -10 21.5 -19t22.5 -8q5 8 10.5 9t11.5 1l227 211q18 -7 45.5 -28t53 -47t43.5 -53.5t18 -46.5q0 -12 -4 -19l-181 -191l11 -9q9 -6 21.5 -15.5t28 -21t33 -24t35.5 -24.5q10 -7 12 -15t2 -10q0 -14 -12 -35t-30.5 -45t-41 -49.5t-44.5 -48t-41 -41t-29 -27.5 q-10 -10 -21 -10q-8 0 -14 6l-201 123q-101 -54 -177.5 -89t-143 -56t-130 -29t-139.5 -8q-84 0 -164 21t-142.5 64.5t-101 108.5t-38.5 154zM514 361q0 -22 6 -44.5t21 -41t41 -30.5t67 -12q13 0 36 2t52 11t64.5 27.5t74.5 51.5l-238 231q-22 -12 -44 -27t-40 -37.5 t-29 -54t-11 -76.5zM791 1214q-32 0 -55.5 -10t-38.5 -26.5t-22.5 -38t-7.5 -45.5q0 -37 16.5 -75.5t48.5 -67.5q78 52 111.5 101.5t33.5 87.5q0 34 -23 54t-63 20z" />
<glyph unicode="'" horiz-adv-x="548" d="M200 784q-7 141 -13 296t-13 306v13q0 26 6 35.5t23 12.5q48 0 100 0.5t104.5 0.5t103.5 0.5t97 0.5q9 0 15 -5t6 -19v-6l-156 -637q-4 -16 -6.5 -27.5t-6 -18.5t-9 -10.5t-14.5 -3.5q-54 0 -105 -1t-111 -1q-8 0 -12 8t-6 18.5t-2.5 21.5t-0.5 16z" />
<glyph unicode="(" horiz-adv-x="837" d="M773 93q-6 -42 -12.5 -74.5t-13.5 -63t-14 -62.5t-15 -74q-4 -19 -21 -19q-2 0 -3 0.5t-3 0.5q-156 24 -268 90.5t-184 163t-105.5 216.5t-33.5 251q0 59 9 138.5t32.5 166.5t64 176t104.5 167q39 48 97 102t130 101t156.5 81t176.5 43q5 0 11.5 -5.5t8.5 -24.5l3 -31.5 t6.5 -75t6.5 -90.5t3 -79q0 -17 -7 -23t-23 -11q-78 -22 -144 -81.5t-114 -142t-75.5 -182t-27.5 -201.5q0 -68 13 -133t41.5 -120t73.5 -95.5t108 -59.5q8 -2 14 -9t6 -24v-7.5t-1 -8.5z" />
<glyph unicode=")" horiz-adv-x="839" d="M85 93q1 27 9 36.5t18 12.5q81 24 140.5 79t98 128.5t57.5 158.5t19 169q0 85 -18.5 163.5t-53.5 142.5t-85 109.5t-112 64.5q-13 4 -19 8t-6 15q0 8 1 11q6 32 16.5 79t21 90.5t19 74.5t8.5 32q5 19 13 24.5t13 5.5q91 -9 169.5 -43t142.5 -81t112.5 -101t79.5 -102 q33 -52 55.5 -109t36 -115.5t19.5 -117t6 -112.5q0 -105 -18.5 -208t-57 -198.5t-97.5 -179.5t-140 -151t-184.5 -113t-230.5 -65q-2 0 -3 -0.5t-3 -0.5q-18 0 -18 19q0 34 -1.5 62t-3 53.5t-3 50.5t-1.5 54v54v0z" />
<glyph unicode="*" horiz-adv-x="1275" d="M434 512l-104 73q-106 69 -160 105.5t-54 57.5q0 5 4.5 14.5t14.5 25t26 39t39 56.5l56 82q6 5 11.5 8.5t12.5 3.5q13 0 34 -18l70 -59q32 -27 72 -60t82 -68l4 44q10 111 16.5 173t12.5 93t13 39.5t19 10.5h18q12 0 43 -1t65.5 -1.5t66 -1t43.5 -0.5h6q14 -4 21 -10.5 t7 -24.5v-8t-1 -9l-15 -89q-7 -42 -13.5 -94t-12.5 -109q36 34 73 70t69 65.5t57 48.5t37 19q7 0 12.5 -3.5t11.5 -8.5l56 -82q22 -32 37.5 -55t26 -39t15.5 -25.5t5 -15.5q0 -8 -3.5 -15t-15 -16.5t-32.5 -24.5t-56.5 -39.5t-87.5 -61t-124 -89.5l264 -205q23 -19 32 -29.5 t10 -18.5q0 -8 -8 -18t-19 -29q-11 -18 -39 -55t-81 -110q-8 -11 -21 -11q-16 0 -34 15l-221 175l-19 -245q-2 -22 -4.5 -35t-6 -19.5t-9 -8.5t-14.5 -2h-20q-6 0 -13 -0.5t-17 -0.5q-23 0 -68 3.5t-123 7.5q-12 1 -19.5 11.5t-7.5 30.5l28 251l-181 -128q-10 -7 -18 -11 t-16 -4q-13 0 -21 11q-49 55 -75.5 83t-34.5 42q-11 19 -19 29t-8 18t9 18.5t33 29.5z" />
<glyph unicode="+" horiz-adv-x="961" d="M378 527q-51 -1 -89.5 -1h-61.5q-60 0 -89.5 5.5t-29.5 22.5q0 9 5.5 37.5t13 64t15 72t12.5 61.5q2 12 15.5 22t35.5 11l201 3l2 21q5 68 7 117t6.5 80t14.5 45.5t31 14.5q2 0 4.5 -0.5t5.5 -0.5q6 0 18.5 0.5t28.5 1t35 1t37 0.5l95 3q14 -4 21 -10.5t7 -24.5v-3 t-0.5 -7t-1.5 -19l-3 -39t-5.5 -68.5t-8.5 -106.5l17 1q37 1 72.5 2t65 1.5t51 1t30.5 0.5q8 0 18 -6t10 -23q-1 -2 -5 -39t-11 -101l-11 -97q-6 -14 -11.5 -20.5t-16.5 -9.5t-31.5 -3.5t-55.5 -1.5l-146 -3l-13 -146q-3 -38 -7.5 -62.5t-10.5 -38.5t-14.5 -19.5t-19.5 -5.5 q-17 0 -46 0.5t-61.5 1.5t-64.5 1.5t-54 0.5q-12 2 -19.5 12t-7.5 30v6z" />
<glyph unicode="," horiz-adv-x="587" d="M260 -332q-11 6 -17.5 8.5t-18 8.5t-34 17.5t-65.5 35.5q-32 17 -32 28q0 3 3 8q29 45 60.5 94.5t60.5 100.5l-85 1h-18q-14 0 -23 1.5t-9 8.5v2q4 43 6.5 67.5t3.5 38t1.5 19.5t1 11t1 12t1.5 24t3.5 46.5t6.5 78.5q2 33 6.5 46t22.5 15q45 0 94 0.5t97.5 1t96 0.5h91.5 q17 0 17 -24l-18 -244q-3 -23 -5.5 -38t-5 -27.5t-6 -24.5t-8.5 -28q-6 -14 -20 -36.5t-32 -48.5t-37.5 -52.5t-36.5 -50t-30 -40.5t-17 -23q-3 -4 -7.5 -10.5t-10.5 -13t-13 -11.5t-14 -5q-5 0 -11 3z" />
<glyph unicode="-" horiz-adv-x="958" d="M645 845q51 2 99.5 3.5t88.5 3t69.5 3t41.5 1.5q8 0 18 -6t10 -23q0 -9 -9.5 -33t-24.5 -58.5t-34 -77t-39 -88.5q-4 -9 -7.5 -15t-9 -10.5t-14.5 -6.5t-24 -2q-90 -2 -180 -3.5t-169.5 -3t-143.5 -2.5t-102 -1q-60 0 -89.5 5.5t-29.5 22.5q0 5 12.5 27.5t32.5 53 t45.5 65t50.5 63.5t48 48.5t38 20.5z" />
<glyph unicode="." horiz-adv-x="573" d="M90 -38q2 47 3 74.5t1.5 42.5t0.5 21v11.5t0.5 13.5t1.5 26.5t3 51t5 86.5q2 33 6.5 45.5t22.5 15.5q88 0 184 0.5t181 1.5q9 0 15 -5t6 -19l-28 -314q-4 -33 -7.5 -45.5t-22.5 -14.5q-85 -1 -174.5 -2t-186.5 -1q-6 0 -8.5 1t-2.5 6v4z" />
<glyph unicode="/" horiz-adv-x="872" d="M444 943q61 132 117 264t116 269q13 29 20 40.5t21 11.5h7q54 -22 106.5 -47.5t105.5 -35.5q6 -2 10.5 -5t4.5 -8v-3l-641 -1414q-4 -9 -6 -17t-4.5 -14t-6.5 -9.5t-12 -3.5q-12 0 -26 7l-101 42q-8 3 -24 8.5t-32.5 13t-29 17.5t-12.5 23q0 9 5 19q46 97 88.5 190.5 t87 194t94.5 212t112 245.5z" />
<glyph unicode="0" horiz-adv-x="1629" d="M138 678q0 171 48.5 320t145 259.5t241 173.5t337.5 63q121 0 221 -28.5t178 -79t136 -120.5t96 -152.5t56.5 -174.5t18.5 -187q0 -189 -55 -338.5t-155 -253t-240 -158t-310 -54.5q-158 0 -290 51.5t-227 147t-148 230t-53 301.5zM570 717q0 -80 12.5 -162t45.5 -149 t90.5 -109t146.5 -42q64 0 113 22t85 59.5t61 87t40 105.5t21.5 115t6.5 114q0 45 -6.5 95t-20.5 99.5t-37 94t-55 79t-75 54.5t-98 20q-65 0 -114.5 -20.5t-86.5 -55.5t-61.5 -82t-39.5 -100.5t-21.5 -111t-6.5 -113.5z" />
<glyph unicode="1" horiz-adv-x="690" d="M225 1292q2 35 5.5 49.5t23.5 18.5l346 83q15 4 26 4q14 0 19.5 -9t5.5 -34l-59 -1237q-1 -23 -4 -38t-8.5 -24.5t-14.5 -15t-21 -9.5l-313 -92q-12 -3 -23 -3q-17 0 -30 9.5t-13 35.5v3t1 18.5t2.5 48t4 92t7 150.5t11 224t15 312t19.5 414z" />
<glyph unicode="2" horiz-adv-x="1132" d="M1005 904q-8 -17 -27 -50t-45 -75.5t-56 -91.5t-60.5 -97.5t-59 -93.5t-50 -79.5t-34.5 -55l-13 -20.5q0 -1 8 -1q12 0 39.5 2.5t63.5 5.5t77.5 7.5t82 7.5t76 5.5t59.5 2.5q51 0 51 -22q0 -14 -7.5 -28t-7.5 -16l-144 -269q-2 0 -2.5 -4.5t-2.5 -4.5q-20 -20 -37 -22 t-29 -4q-85 -1 -150 -2t-117.5 -1.5t-95 -1t-83 -1t-81.5 -0.5h-90q-96 0 -133.5 15t-37.5 44q0 20 13.5 45t34.5 57q64 91 130 184.5t126 179.5t110 159.5t83 124.5q26 42 38 78.5t12 68.5q0 40 -16.5 71t-46 52.5t-68.5 32.5t-84 11q-57 0 -116 -17.5t-116 -54.5 q-20 -13 -32 -13q-11 0 -14.5 9t-3.5 17q0 39 10 91t22.5 100t22.5 83t10 40q2 0 27 18.5t78 41t137.5 41.5t206.5 19q72 0 144.5 -29.5t130 -81.5t93.5 -122.5t36 -151.5q0 -49 -15 -99.5t-47 -104.5z" />
<glyph unicode="3" horiz-adv-x="1109" d="M650 -48q-21 -2 -41 -3t-39 -1q-56 0 -105.5 7t-97.5 20.5t-97.5 33t-106.5 43.5q-13 3 -19.5 12.5t-9 21.5t-3 24.5t-1.5 21.5q-2 13 -6 45.5t-9 68.5t-10 68.5t-8 44.5q-1 2 -1 8q0 14 10.5 22.5t21.5 8.5q5 0 9 -2q35 -22 72 -46t79 -43.5t90 -32.5t107 -13 q75 0 113 31.5t38 107.5q0 24 -5 53.5t-20.5 55t-45.5 43t-79 17.5h-180q0 5 3 28t7.5 55.5t9.5 69t9.5 68t8 53.5t4.5 24q6 32 12.5 43.5t12.5 11.5q18 -7 37 -8.5t38 -1.5q69 0 108 37t39 108q0 24 -7 47t-22.5 40.5t-39 28.5t-56.5 11q-36 0 -73.5 -4.5t-74 -12 t-70.5 -16.5t-62 -18q3 18 3 50q0 14 -0.5 30t-0.5 33q0 31 2 63t9 59t20 47t36 27q56 18 96.5 28t75.5 15t70 6.5t80 1.5q82 0 166.5 -22t153 -68t112 -116.5t43.5 -167.5q0 -63 -17.5 -115t-44.5 -93t-58 -71.5t-58 -51.5q30 -17 65 -44.5t64.5 -71t49 -103.5t19.5 -141 q0 -85 -32.5 -167t-89.5 -148t-135 -109.5t-169 -51.5z" />
<glyph unicode="4" horiz-adv-x="1352" d="M1347 571q-2 -8 -5.5 -23t-7 -34.5t-8 -42.5t-8.5 -45l-23 -114q-3 -15 -8 -22.5t-22.5 -10.5t-51.5 -3h-95l-18 -183q-1 -9 -4 -18t-13 -13q-7 -3 -32.5 -13t-60.5 -23t-75 -27.5t-76 -26.5t-64 -20t-38 -8q-14 0 -24.5 7.5t-10.5 28.5q0 48 4.5 121.5t12.5 170.5 q-85 -1 -168 -2t-154.5 -1.5t-125.5 -0.5h-81q-88 0 -127 6t-39 28q0 12 10 28l33 55t57.5 95.5t73 121t79.5 131.5l208 343q38 63 67.5 123.5t65 110.5t85 87t129.5 53l316 83q15 4 27 4q11 0 17.5 -6.5t6.5 -25.5v-11q-4 -93 -8 -168t-8 -142t-8.5 -129.5t-8.5 -129.5 t-8 -142.5t-8 -168.5q67 2 110.5 3t51.5 1q12 -2 24 -8.5t12 -27.5q0 -8 -1 -11zM747 601q12 69 21 145.5t15 155.5t10.5 157t7.5 151l-364 -609h310z" />
<glyph unicode="5" horiz-adv-x="1079" d="M142 277q2 5 9.5 11t19.5 6h6q39 -6 72.5 -7.5t79.5 -1.5q51 0 99.5 7t86.5 27t61 57t23 96q0 69 -27 108.5t-70 58.5t-95 23.5t-103 4.5q-20 0 -35.5 -0.5t-28.5 -0.5q-31 0 -42.5 5t-11.5 24q0 7 1 16t3 21q3 90 14.5 180.5t26.5 181t31.5 180.5t29.5 180 q190 22 374 42.5t376 45.5q13 0 13 -21q0 -11 -3 -18q-1 -3 -6 -20.5t-12 -43.5t-16 -58t-17.5 -63.5t-16.5 -60t-14 -47.5q-10 -33 -34 -52t-56.5 -29t-70.5 -13t-77 -3q-32 0 -65.5 0.5t-63.5 0.5q-23 0 -39.5 -3t-27.5 -14t-16 -32t-5 -56q114 -6 212 -35.5t171 -87 t114.5 -145t41.5 -210.5q0 -114 -32 -201.5t-86.5 -152.5t-128 -109t-157 -70.5t-172.5 -38t-174 -11.5q-63 0 -122.5 6.5t-104.5 30.5q-5 2 -10.5 8t-5.5 8z" />
<glyph unicode="6" horiz-adv-x="1288" d="M663 -51q-138 0 -240.5 46t-171 125.5t-102 186t-33.5 226.5q0 94 24 180t64.5 166t94 155.5t111 148t116.5 142.5t111 140q8 10 16.5 21.5t18.5 21t21 16t25 6.5h251q25 0 43 -7t18 -22q0 -14 -16 -33q-88 -103 -160.5 -217.5t-135.5 -240.5q36 10 69 14t70 4 q110 0 191.5 -43t135 -111.5t80 -154t26.5 -170.5q0 -135 -40 -245.5t-119 -189t-196.5 -122t-271.5 -43.5zM571 479q0 -29 5 -66.5t19.5 -71.5t39 -57.5t63.5 -23.5q38 0 65.5 16t46.5 42t30 59.5t17 69t7.5 70.5t1.5 63q0 34 -3 70.5t-15.5 65.5t-37 48t-67.5 19 q-57 0 -91 -31t-52 -77t-23.5 -99t-5.5 -97z" />
<glyph unicode="7" horiz-adv-x="1066" d="M1136 1323l-221 -561q-44 -111 -88 -223t-83 -211t-70 -177t-48 -120q-15 -36 -22 -55.5t-12.5 -29t-12 -12.5t-19.5 -6q-38 -9 -79 -17.5t-81 -15.5t-77 -13t-67 -10q-3 -1 -10 -1q-17 0 -25 10t-8 25t9 35q10 23 35 82t59 140.5t74 177.5t80 193l206 500l-203 -2 q-41 0 -84.5 -0.5t-84.5 -0.5h-77.5h-63.5q-30 0 -45.5 4t-15.5 18q0 13 6 26t6 15q19 43 38 82.5t37.5 77.5t37 77t37.5 82q2 2 2.5 4.5t2.5 4.5q17 19 33.5 22.5t29.5 3.5q110 1 194.5 2t152.5 1.5t123.5 1t107.5 1t104.5 0.5h114.5q38 0 38 -32q0 -16 -8 -40t-23 -59z " />
<glyph unicode="8" horiz-adv-x="1280" d="M626 -52q-61 0 -122.5 10.5t-118.5 32.5t-107 56t-87 81t-58 107t-21 135q0 72 18.5 129.5t50.5 107t74.5 94t89.5 89.5q-75 52 -109 122.5t-34 158.5q0 74 22.5 134t62.5 107t94.5 81t118 56.5t133.5 33.5t142 11q73 0 147.5 -24.5t134 -71.5t97 -115t37.5 -155 q0 -49 -12.5 -92.5t-32.5 -82t-46 -71t-53 -60.5q42 -30 79.5 -67t65 -84.5t43.5 -107.5t16 -136q0 -80 -27 -146.5t-73 -119.5t-108 -93t-131 -66.5t-142.5 -40t-143.5 -13.5zM562 396q0 -37 5 -82t20.5 -84.5t43.5 -66t74 -26.5q27 0 46.5 16.5t33.5 42.5t23 58.5t14 64.5 t7 60t2 45q0 34 -8 76t-25 79t-44 62t-64 25q-29 0 -49.5 -14t-34.5 -36.5t-22.5 -51.5t-13.5 -59t-6.5 -58.5t-1.5 -50.5zM577 1094q0 -29 7.5 -63t24 -63.5t42 -49t62.5 -19.5q36 0 57 24.5t31 59t12.5 71.5t2.5 61q0 28 -6 58.5t-19.5 56t-36.5 42.5t-57 17 q-35 0 -58.5 -19.5t-37 -49t-19 -63.5t-5.5 -63z" />
<glyph unicode="9" horiz-adv-x="1326" d="M615 -20q-27 7 -27 23q0 11 10 24q30 42 57 91t49.5 101t41 103t31.5 96q-51 -15 -105 -24t-106 -9q-97 0 -180.5 40.5t-145 108t-96.5 156t-35 183.5q0 96 28.5 179.5t79 152t119 122.5t147.5 90.5t165 56t173 19.5q117 0 211.5 -52.5t161.5 -136.5t103.5 -189 t36.5 -210q0 -99 -23 -192t-62 -181.5t-90 -171.5t-108 -161t-115.5 -150.5t-112.5 -140.5q-3 -3 -7.5 -6t-11.5 -3t-14 4q-26 14 -47 25t-41 20t-41 17t-46 15zM547 946q0 -52 12 -100.5t37.5 -85.5t66.5 -59.5t99 -22.5q22 0 38 3.5t42 12.5q11 45 18 77t10.5 60t5 56.5 t1.5 65.5q0 22 -1.5 51.5t-6.5 60.5t-14 61t-24.5 53t-38 37.5t-54.5 14.5q-56 0 -93 -27.5t-59 -69.5t-30.5 -92.5t-8.5 -95.5z" />
<glyph unicode=":" horiz-adv-x="668" d="M179 727q2 47 3 74.5t1.5 42.5t0.5 21v11.5t0.5 13.5t1.5 26.5t3 51t5 86.5q2 33 6.5 45.5t22.5 15.5q88 0 184 0.5t181 1.5q9 0 15 -5t6 -19l-28 -314q-4 -33 -7.5 -45.5t-22.5 -14.5q-85 -1 -174.5 -2t-186.5 -1q-6 0 -8.5 1t-2.5 6v4zM159 -38q2 47 3 74.5t1.5 42.5 t0.5 21v11.5t0.5 13.5t1.5 26.5t3 51t5 86.5q2 33 6.5 45.5t22.5 15.5q88 0 184 0.5t181 1.5q9 0 15 -5t6 -19l-28 -314q-4 -33 -7.5 -45.5t-22.5 -14.5q-85 -1 -174.5 -2t-186.5 -1q-6 0 -8.5 1t-2.5 6v4z" />
<glyph unicode=";" horiz-adv-x="647" d="M318 -330q-11 6 -17.5 8.5t-18 8.5t-34 17.5t-65.5 35.5q-32 17 -32 28q0 3 3 8q29 45 60.5 94.5t60.5 100.5l-85 1h-18q-14 0 -23 1.5t-9 8.5v2q4 43 6.5 67.5t3.5 38t1.5 19.5t1 11t1 12t1.5 24t3.5 46.5t6.5 78.5q2 33 6.5 46t22.5 15q45 0 94 0.5t97.5 1t96 0.5h91.5 q17 0 17 -24l-18 -244q-3 -23 -5.5 -38t-5 -27.5t-6 -24.5t-8.5 -28q-6 -14 -20 -36.5t-32 -48.5t-37.5 -52.5t-36.5 -50t-30 -40.5t-17 -23q-3 -4 -7.5 -10.5t-10.5 -13t-13 -11.5t-14 -5q-5 0 -11 3zM162 726q2 47 3 74.5t1.5 42.5t0.5 21v11.5t0.5 13.5t1.5 26.5t3 51 t5 86.5q2 33 6.5 45.5t22.5 15.5q88 0 184 0.5t181 1.5q9 0 15 -5t6 -19l-28 -314q-4 -33 -7.5 -45.5t-22.5 -14.5q-85 -1 -174.5 -2t-186.5 -1q-6 0 -8.5 1t-2.5 6v4z" />
<glyph unicode="&#x3c;" horiz-adv-x="1076" d="M1028 324q8 -5 8 -11t-2 -12q-42 -75 -69.5 -154t-55.5 -157q-7 -19 -25 -19q-8 0 -16 3t-22 9l-656 382q-32 16 -43 26t-11 30q-3 76 -7 154t-13 162q0 2 -0.5 3t-0.5 2l1 7q1 5 5 8.5t7 3.5q33 16 85.5 37.5t117.5 47t139.5 53t152 56.5t154.5 57.5t147 55.5q31 9 45 9 q13 0 16 -16q6 -77 13.5 -161.5t25.5 -159.5q0 -22 -12 -23l-440 -162q11 -6 44.5 -23t78.5 -39.5t96 -48.5t98 -49.5t84.5 -42.5t54.5 -28z" />
<glyph unicode="=" horiz-adv-x="1062" d="M573 887q68 0 131.5 1.5t115.5 3t89 3t53 1.5q8 0 18 -6t10 -23q1 -7 -8.5 -37t-24.5 -81l-24 -79q-7 -17 -16.5 -25.5t-38.5 -8.5q-90 -2 -180 -3.5t-169.5 -3t-143.5 -2.5t-102 -1q-60 0 -89.5 5.5t-29.5 22.5q0 7 5.5 30t13.5 52t18 59.5t19 53.5q11 10 20 21t31 12z M573 418q68 0 131.5 1.5t115.5 3t89 3t53 1.5q8 0 18 -6t10 -23q1 -7 -8.5 -37t-24.5 -81l-24 -79q-7 -17 -16.5 -25.5t-38.5 -8.5q-90 -2 -180 -3.5t-169.5 -3t-143.5 -2.5t-102 -1q-60 0 -89.5 5.5t-29.5 22.5q0 7 5.5 30t13.5 52t18 59.5t19 53.5q11 9 20 20.5t31 12.5z " />
<glyph unicode="&#x3e;" horiz-adv-x="1051" d="M140 324q17 9 54.5 28t84.5 42.5t98 49.5t96 48.5t78.5 39.5t44.5 23l-440 162q-12 1 -12 23q18 75 25.5 159.5t13.5 161.5q3 16 16 16t45 -9q70 -27 147 -55.5t154.5 -57.5t152 -56.5t139.5 -53t117.5 -47t85.5 -37.5q3 0 7 -3.5t5 -8.5l1 -7q0 -1 -0.5 -2t-0.5 -3 q-9 -84 -13 -162t-7 -154q0 -20 -11 -30t-43 -26l-656 -382q-14 -6 -22 -9t-16 -3q-11 0 -16 4.5t-9 14.5q-29 78 -57.5 157t-67.5 154q-2 6 -2 12q0 4 1.5 6.5t6.5 4.5z" />
<glyph unicode="?" horiz-adv-x="1166" d="M433 599q69 37 131.5 92.5t109.5 118t74.5 125t27.5 114.5q0 56 -31 91t-102 35q-40 0 -66 -9.5t-41.5 -24.5t-21.5 -33t-6 -35q0 -23 7 -42t7 -25q0 -8 -14 -11t-45.5 -8t-83.5 -14.5t-128 -30.5q-29 -8 -45 -11t-25 -3q-11 0 -18.5 15t-11.5 35.5t-5.5 42.5t-1.5 36 q0 92 45.5 164.5t118.5 122.5t164.5 76.5t183.5 26.5q119 0 215.5 -36.5t165 -94t105.5 -129t37 -140.5q0 -57 -19.5 -112.5t-53 -108.5t-78 -103t-93.5 -96t-99.5 -88t-97.5 -79q-2 -3 -7.5 -6t-11.5 -3q-3 0 -7.5 1t-6.5 3q-38 18 -68.5 32t-59.5 26t-59.5 21.5 t-67.5 17.5q-14 3 -20.5 9.5t-6.5 13.5q8 5 9 12.5t1 11.5zM437 -38q2 47 3 74.5t1.5 42.5t0.5 21v11.5t0.5 13.5t1.5 26.5t3 51t5 86.5q2 33 6.5 45.5t22.5 15.5q88 0 184 0.5t181 1.5q11 0 16 -6.5t5 -23.5l-28 -308q-4 -33 -7.5 -45.5t-22.5 -14.5q-85 -1 -174.5 -2 t-186.5 -1q-8 0 -9.5 1.5t-1.5 9.5z" />
<glyph unicode="@" horiz-adv-x="1780" d="M1047 486q11 72 18.5 122.5t12 85.5t7 58t3.5 39q-15 14 -39 29.5t-52 15.5q-27 0 -46.5 -13.5t-33.5 -34.5t-23 -47t-14.5 -51.5t-7.5 -48t-2 -36.5q0 -82 23 -119.5t65 -37.5q18 0 41 10.5t48 27.5zM1079 348q-48 -55 -98 -80.5t-99 -25.5q-60 0 -115 24t-98 68.5 t-68.5 108t-25.5 142.5q0 100 33 183.5t88.5 143t127 92.5t148.5 33q45 0 83 -18.5t70 -47.5q4 19 5.5 30t4 17t9 8t20.5 3q52 -8 105 -9t113 -1l-66 -482q-1 -5 -1 -12v-14q0 -27 5.5 -50t15 -40.5t22.5 -27t27 -9.5q20 0 43.5 17.5t44 59t34 109t13.5 168.5 q0 87 -29.5 167.5t-90 141.5t-154 97.5t-220.5 36.5q-106 0 -190 -31t-147.5 -82t-108 -116.5t-72.5 -133.5t-41 -133t-13 -116q0 -123 39 -210t116 -142.5t191.5 -81t265.5 -25.5q17 0 26.5 -8.5t9.5 -37.5q0 -18 -4.5 -44t-12.5 -64q-9 -45 -16.5 -71.5t-16 -40t-19 -17 t-25.5 -3.5q-206 0 -370.5 41t-279 125t-176 211t-61.5 298q0 146 36.5 275.5t102 238t157 195t202 146.5t236.5 92t260 32q160 0 285.5 -59.5t212 -160.5t131.5 -236t45 -285q0 -105 -33.5 -204.5t-90.5 -177t-131.5 -124.5t-156.5 -47q-85 0 -159.5 38t-138.5 126z" />
<glyph unicode="A" d="M67 73q13 26 27 58.5t26 70.5l27 66q-18 27 -36.5 58.5t-33.5 64.5t-24.5 66t-9.5 64q0 2 15.5 3.5t39 2.5t51 1.5t51 1t39 1l15.5 0.5q23 60 45 114t44 109t44 112.5t44 123.5q42 124 82 218t75 175q4 10 13.5 18.5t20.5 14.5t21.5 10t16.5 6q4 1 30.5 9t60.5 17 t67.5 16t53.5 7h18q16 0 30.5 -7.5t19.5 -29.5q48 -123 102.5 -268.5t106.5 -320.5q28 -94 55 -178t54 -164t54.5 -160t56.5 -165q9 -36 18.5 -57t17.5 -33t13 -17.5t5 -11.5t-19 -12l-215 -70q-24 -9 -49 -18t-47 -16t-38.5 -11.5t-23.5 -4.5h-6q-14 0 -20 8.5t-8 16.5 q-10 33 -20 59.5t-19.5 53t-19 56.5t-18.5 71q-2 5 -11 8.5t-21.5 5.5t-26.5 2.5t-26 0.5q-38 0 -61.5 -0.5t-41.5 -1t-34.5 -1t-40.5 -0.5q-29 0 -59.5 0.5t-55.5 1.5l-57 2q-26 -72 -52 -135t-56 -130q-2 -8 -9.5 -13t-15.5 -5q-6 0 -7 1q-97 35 -163 69t-115 66zM741 972 q-24 -89 -47.5 -161.5t-43 -128.5t-33.5 -94.5t-20 -59.5v-9q0 -6 -1 -8h240q-11 49 -23.5 99t-24.5 105t-24 118t-23 139z" />
<glyph unicode="B" horiz-adv-x="1431" d="M253 13q-20 5 -27 15.5t-7 23.5q0 3 0.5 4t0.5 4q8 108 17.5 226.5t20.5 241t22 244.5t22 237h-1q-4 0 -22.5 -6.5t-42 -14t-47.5 -13.5t-39 -6q-13 0 -18.5 10t-5.5 22q0 9 3 17q27 78 56 146t58 140q76 41 158 71.5t165.5 51t166.5 31t161 10.5q109 0 205.5 -23 t168 -69.5t113 -117t41.5 -165.5q0 -41 -18 -79t-46.5 -72.5t-63.5 -64t-69 -53.5q48 -35 86.5 -63.5t65.5 -59.5t41 -69.5t14 -93.5q0 -84 -29.5 -160.5t-81 -142t-122 -118.5t-153 -90.5t-174 -58t-184.5 -20.5q-34 0 -91 7t-119.5 16.5t-123 21t-101.5 20.5zM714 1110 q-19 -118 -32 -239.5t-22.5 -236t-16.5 -217.5t-14 -184q40 0 86.5 4.5t92.5 15.5t89.5 28.5t76.5 43.5t53 61.5t20 81.5q0 28 -17 49.5t-43.5 37t-58.5 26t-62.5 17t-56 10t-38.5 5.5q-14 2 -18 10t-4 20q0 13 16 39t44 71l42 67q27 10 58.5 25t58.5 34.5t45 44t18 53.5 q0 82 -35.5 125.5t-102.5 43.5q-76 0 -179 -36z" />
<glyph unicode="C" horiz-adv-x="1294" d="M126 676q0 110 26.5 211.5t75.5 189.5t118.5 160t155.5 123.5t186.5 79.5t211.5 28q88 0 154.5 -11.5t116 -29t83 -38.5t55.5 -40q-1 0 -1 -7q0 -15 2.5 -55t6 -89t6 -99.5t2.5 -87.5q0 -6 -4 -13.5t-20 -7.5q-9 0 -22 3q-21 6 -53 27.5t-74.5 45t-95 42t-114.5 18.5 q-82 0 -149 -32.5t-114 -89.5t-73 -135.5t-26 -171.5q0 -82 18 -156.5t54.5 -130.5t91 -89.5t126.5 -33.5q57 0 101 4t82 13t74.5 24t78.5 38q2 1 10 1q7 0 9.5 -5.5t2.5 -22.5v-120q0 -33 -0.5 -64.5t-1 -56.5t-1 -40.5t-1.5 -15.5q-46 -29 -98.5 -47.5t-108 -29 t-111.5 -14t-108 -3.5q-141 0 -264 53.5t-213.5 149.5t-142.5 230t-52 295z" />
<glyph unicode="D" horiz-adv-x="1544" d="M171 -52q-11 2 -16 11t-5 20q0 9 4 16l123 235q1 4 3.5 31t5.5 67.5t6.5 90.5t7.5 99t7.5 93.5t6.5 74.5q1 12 3 36.5t4 56.5t5 69l6 74l14 209q-27 -6 -56 -12.5t-56.5 -11.5t-52 -8.5t-42.5 -3.5q-11 0 -16.5 10t-5.5 21q0 13 6 19l254 237q31 28 61.5 45.5t73.5 27.5 t105.5 13.5t158.5 3.5q164 0 291 -34t215 -97q65 -45 116 -94t86 -108.5t53 -131t18 -161.5q0 -171 -51 -304t-139 -232.5t-205.5 -168.5t-251 -112t-276 -62t-279.5 -19h-182zM752 1152l-12 -121q-6 -63 -12.5 -134.5t-12.5 -145t-12 -145t-11 -133.5t-9 -111t-7 -78 l-3 -30q121 0 204.5 39t135.5 107.5t75.5 160.5t23.5 198q0 76 -21 146.5t-61 134.5t-98 96t-131 32q-12 0 -26 -5.5t-23 -10.5z" />
<glyph unicode="E" horiz-adv-x="1178" d="M1023 830q-4 -14 -15 -39.5t-25.5 -57.5t-31 -68.5t-32.5 -73.5q-6 -14 -11 -20.5t-16 -9.5t-30.5 -3.5t-54.5 -1.5l-139 -3l-28 -306h513v-39q-2 -2 -17 -26.5t-35 -58.5t-42 -68.5t-37 -55.5q-10 -18 -23 -28.5t-28.5 -15.5t-34 -6t-40.5 -1q-90 0 -187.5 4t-194.5 10 t-189.5 13.5t-171.5 15.5q-7 1 -12.5 8t-5.5 16q-4 0 5.5 17t26.5 44t37.5 61.5t39.5 69.5l16 225q4 57 6.5 85t2.5 30q-60 1 -89.5 6t-29.5 22q0 8 14.5 30t35.5 50.5t44.5 59.5t41.5 57l25 340h-3q-22 -1 -40 -1.5t-33 -0.5q-48 0 -68.5 5.5t-20.5 20.5q0 7 12 29t30 50.5 t38 60t36 58.5l60 102h418l493 36q1 0 5.5 -0.5t9.5 -3t9.5 -8.5t4.5 -17l-15 -52q-7 -22 -17 -46.5t-22 -50.5l-44 -116q-7 -17 -16 -26t-38 -10q-76 -2 -169.5 -6.5t-214.5 -8.5q-4 -14 -4 -22.5t-2 -32.5l-5 -46q-2 -32 -6 -69t-10 -91q51 2 99.5 4t88.5 3.5t69.5 2.5 t41.5 1q8 0 18 -6t10 -23q0 -8 -3 -18z" />
<glyph unicode="F" horiz-adv-x="1204" d="M1135 822q-4 -15 -15 -43t-25 -63.5t-31 -75t-33 -77.5q-7 -17 -16.5 -25t-38.5 -9l-292 -5l-36 -444q-1 -9 -5 -17.5t-12 -13.5q-3 -2 -23.5 -11.5t-51.5 -22.5t-68 -28t-73 -27.5t-66 -21t-47 -8.5q-20 0 -36.5 7.5t-16.5 30.5q-1 50 2.5 110.5t8.5 123t11 123 t10 110.5l7 84q-84 0 -120 4.5t-36 23.5q0 13 15 34q21 29 47.5 70t51 80t43 69t23.5 37l19 275q-19 0 -33 -0.5t-25.5 -1t-21.5 -1t-21 -0.5q-48 0 -68.5 5.5t-20.5 20.5q0 7 12 29t29.5 50.5t38 60t36.5 58.5l60 102l455 16q88 3 175 6.5t160.5 6.5t126.5 5.5t74 3.5 q1 0 5.5 -0.5t9.5 -3t9.5 -8.5t4.5 -17q0 -6 -14 -40t-40 -101l-44 -116q-7 -17 -16 -26t-38 -10q-34 -1 -69 -3t-72 -4l-304 -15q-6 -39 -8.5 -58t-3 -31.5t-0.5 -25t-1 -39.5q-1 -19 -2.5 -32t-3 -25.5t-3 -26.5t-2.5 -35q66 2 129.5 4t117 4t92.5 3.5t55 1.5q8 0 18 -6 t10 -23q0 -8 -3 -18z" />
<glyph unicode="G" horiz-adv-x="1463" d="M125 646q0 115 26.5 220.5t75.5 197t118.5 166t155.5 128t186.5 82.5t211.5 29q88 0 154.5 -11.5t116 -29t83 -38.5t55.5 -40q-1 0 -1 -7q0 -15 2.5 -55t6 -89t6 -99.5t2.5 -87.5q0 -6 -4 -13.5t-20 -7.5q-9 0 -22 3q-21 6 -53 27.5t-74.5 45t-95 42t-114.5 18.5 q-82 0 -149 -34.5t-114 -96t-73 -146t-26 -183.5q0 -87 16 -163t48.5 -131.5t80.5 -87.5t113 -32q63 0 143 27l23 141h-191q22 121 38 190t30 104t29 44t35 9h526q23 0 33.5 -3t10.5 -21q0 -9 -2 -21.5t-5 -30.5l-50 -168q-9 -32 -15 -49.5t-15 -26t-24.5 -10t-44.5 -1.5 q-16 0 -19 -13t-5 -27q-6 -44 -12 -87.5t-11.5 -81t-11.5 -66t-12 -41.5q-68 -43 -123.5 -75.5t-110.5 -54t-116 -32.5t-140 -11q-141 0 -264 51t-213.5 143.5t-142.5 220.5t-52 283z" />
<glyph unicode="H" horiz-adv-x="1490" d="M1065 1317q0 36 6.5 49.5t26.5 18.5l344 83q13 4 27 4t19 -8.5t5 -34.5l-12 -157q-5 -69 -11 -137t-18 -119l-18 -142q-8 -63 -15 -136.5t-15 -164.5l-47 -493q-1 -9 -4 -18t-13 -13q-7 -3 -32.5 -13t-60.5 -23t-75 -27.5t-76 -26.5t-64 -20t-38 -8q-14 0 -24.5 7.5 t-10.5 28.5q0 121 14 247.5t25 251.5q2 14 1.5 26t1.5 26h-366l-41 -438q-1 -9 -3.5 -17.5t-13.5 -13.5q-4 -2 -39.5 -14.5t-82 -29t-92 -33t-69.5 -25.5q-12 -5 -29.5 -10.5t-34.5 -5.5q-14 0 -24.5 8t-10.5 29q0 48 3.5 109.5t8.5 129t12 138.5t14 140l2 29 q-81 0 -117.5 4.5t-36.5 23.5q0 13 15 34q20 28 46.5 67.5t51 78t44 69t25.5 39.5l23 241q0 2 2 30t5 66.5t6.5 79.5t6.5 70q2 35 5.5 49t23.5 19l340 83q13 4 27 4t19 -8.5t5 -34.5q-7 -72 -11 -131t-8.5 -110t-9.5 -97t-14 -94l-20 -155l363 4q9 133 20 226t14 147 q3 51 4 73t1 25z" />
<glyph unicode="I" horiz-adv-x="668" d="M139 -32l50 684q25 344 37 505t12 160q1 18 2 30t4 20t8 12t15 6l346 83q13 4 27 4t19 -8.5t5 -34.5q-7 -62 -11 -116t-6.5 -103t-4.5 -94.5t-5 -90.5q-6 -49 -10.5 -98t-8.5 -101.5t-8.5 -111t-10.5 -127.5l-44 -527q-1 -9 -3.5 -17.5t-13.5 -13.5q-1 0 -12 -4 t-29 -10.5t-42 -13.5t-51 -13q-45 -10 -78.5 -20t-59.5 -18.5t-48 -13.5t-44 -5q-15 0 -25 8t-10 29z" />
<glyph unicode="J" horiz-adv-x="762" d="M336 1317q1 18 2 30t3.5 20t7.5 12t16 6l346 83q13 4 26 4q14 0 19.5 -9t5.5 -34l-30 -321l-18 -192q-6 -67 -12 -130t-11.5 -116.5t-9.5 -95t-6 -66.5l-2 -29q-8 -114 -43.5 -218t-94 -183.5t-139 -126.5t-178.5 -47q-50 0 -74.5 2t-35 6.5t-13 12t-8.5 18.5l-33 243 q0 2 6.5 8.5t10.5 8.5q36 14 71 32t62.5 42.5t45 58t19.5 78.5z" />
<glyph unicode="K" horiz-adv-x="1411" d="M660 1431q-2 -15 -4 -47.5t-5.5 -74.5t-6.5 -89.5t-6.5 -92t-7 -81.5t-5.5 -59l51 52l142 176q26 33 52 64.5t46.5 57t33.5 42.5t15 19l444 37q2 1 9 1h8q23 0 23 -12q0 -7 -6.5 -16.5t-19.5 -24.5q-16 -19 -46.5 -54.5t-66.5 -78t-74.5 -88t-71.5 -84t-56.5 -66.5 t-29.5 -36l-63 -60q-64 -61 -164 -152q31 -32 66.5 -69.5t68 -72t59 -62.5t39.5 -42l309 -358q5 -6 13 -10t16 -7t13.5 -6.5t5.5 -8.5q0 -6 -13 -19q-8 -8 -30 -23.5t-51.5 -33.5t-63.5 -37t-65.5 -34.5t-58 -25.5t-40.5 -10q-21 0 -44 18.5t-55 56t-76 95.5t-106 136 q-36 45 -70 88.5t-64 82t-54.5 69t-40.5 49.5q-8 -8 -17 -15.5t-17 -15.5l-35 -429q-1 -9 -3.5 -18t-13.5 -13l-283 -102q-11 -4 -29 -10t-35 -6q-15 0 -25 8t-10 29q5 59 12.5 153t16 214.5t18 263t20.5 299.5l28 421q1 18 2 30t3 20t7 12t15 6l346 83q13 4 27 4t19 -8.5 t5 -34.5z" />
<glyph unicode="L" horiz-adv-x="1022" d="M670 1433q-1 -24 -4 -59.5t-6.5 -75t-8 -80t-8 -74.5t-5.5 -58.5t-2 -31.5q-4 -62 -8.5 -115t-9.5 -105t-10.5 -107.5t-11.5 -122.5t-13.5 -149t-15.5 -188l414 42q28 3 46 3q22 0 27.5 -7t5.5 -22q0 -2 -1 -5.5t-4.5 -13.5t-10 -29t-17.5 -53l-22 -66 q-11 -32 -20.5 -57.5t-23.5 -44t-35 -29.5t-54 -14q-21 -2 -57 -3.5t-83 -3t-101.5 -3.5t-111.5 -5q-56 -2 -113 -2.5t-108 -1.5t-94 -2t-71 -2q-26 0 -37.5 4t-11.5 13q0 11 7 31.5t18 46t24.5 53t26.5 53.5l27 357q8 91 16 185t14 182l17 265q6 94 8 136.5t2 46.5 q2 18 3 30t3.5 20t7.5 12t15 6l351 83q11 4 27 4q11 0 15.5 -6.5t4.5 -24.5q0 -2 -0.5 -5.5t-0.5 -6.5z" />
<glyph unicode="M" horiz-adv-x="1729" d="M1437 1472q5 1 9.5 1.5t8.5 0.5q18 0 29 -11.5t15 -40.5q2 -18 6.5 -50.5t10 -72t12 -81.5t11.5 -77.5t9 -61t5 -32.5q22 -177 39 -284t24 -158l67 -541l-10 -31q-2 -7 -26 -17t-58 -21.5t-74 -22.5t-74 -20t-57.5 -14.5t-24.5 -5.5q-24 0 -38 35t-23 89t-14.5 118 t-12.5 123q-6 49 -11 99t-11 102l-39 292l-371 -679q-17 -24 -34 -34.5t-32 -10.5q-22 0 -34.5 13t-17.5 32q-19 63 -32.5 106.5t-25 79.5t-21.5 70t-22.5 78.5t-28 105t-37.5 148.5l-31 -144l-144 -611q-3 -12 -25 -12q-21 0 -57.5 8t-76 19.5t-77 24t-59.5 22.5 q-5 2 -12.5 9.5t-7.5 23.5q0 4 3 17t7.5 30.5t10 35.5t10.5 32q13 34 23.5 80t19.5 93t16.5 90t14.5 72l123 574l37 162q7 31 13.5 60.5t11.5 53.5t8 39t3 17l250 77q14 0 24.5 -2.5t13.5 -16.5l199 -640l273 575z" />
<glyph unicode="N" horiz-adv-x="1379" d="M991 1340q8 33 14 48t26 20l259 61q12 4 26 4q13 0 19 -9t6 -34q-6 -24 -10 -73.5t-6 -108.5t-3 -118.5t-1 -103.5v-55q0 -62 -1 -135t-2.5 -148t-3.5 -148t-4 -137l-6 -171q-1 -5 -1 -9v-8v-15q0 -17 0.5 -28.5t0.5 -20.5q0 -10 -1.5 -18t-7.5 -15.5t-16.5 -15.5 t-28.5 -20q-10 -7 -33 -20.5t-51 -30.5t-58 -35t-55 -32.5t-40.5 -23.5l-15.5 -9l-464 714l-42 -585q-1 -8 -3.5 -17t-13.5 -14q-9 -4 -31 -12.5t-51.5 -19.5t-62 -22.5t-61.5 -21t-51.5 -15.5t-30.5 -6q-15 0 -25 8t-10 29q10 125 23 272.5t25 302.5t22.5 309.5t17.5 293.5 q0 4 -12.5 26.5t-28 49t-28 50t-12.5 29.5q0 7 7.5 13t24.5 16l267 151q3 0 8.5 1t9.5 1q11 0 17.5 -2.5t13.5 -15.5l485 -875v749z" />
<glyph unicode="O" horiz-adv-x="1616" d="M561 682q0 -72 15.5 -144.5t51.5 -130.5t95 -94t146 -36q67 4 117.5 27.5t87 61t60.5 86t38 102t19.5 109.5t5.5 108q0 71 -19 137.5t-57 117.5t-94.5 82t-131.5 31q-59 0 -106.5 -22t-84.5 -58.5t-63.5 -84t-44 -98t-26 -101t-9.5 -93.5zM756 -52q-150 0 -268 56 t-199.5 151.5t-125 221t-43.5 265.5q0 157 44.5 289.5t124.5 235t190.5 173t242.5 104.5q12 0 18.5 19t11.5 42t12 42t20 19q194 -20 349 -68.5t263 -138.5t165.5 -227.5t57.5 -335.5q0 -127 -31 -239t-87 -206.5t-134.5 -169t-174.5 -126.5t-206.5 -79.5t-229.5 -27.5z" />
<glyph unicode="P" horiz-adv-x="1342" d="M1401 1039q-1 -86 -16.5 -154t-44 -122.5t-69 -98t-92.5 -81.5q-100 -72 -219 -108.5t-239 -36.5q-20 0 -39.5 1t-39.5 3l-33 -365l-17 -31q-2 -4 -34 -16t-80 -28l-63 -21q-30 -11 -53 -20t-43 -16t-39 -10.5t-40 -3.5q-14 0 -22 7t-8 27l11 171q3 51 7.5 102.5 t8.5 117.5l19 239q6 73 11 146t10 139t9 123.5t7 100.5q-54 -12 -86.5 -17.5t-49.5 -5.5q-21 0 -21 18q14 49 26 96q11 40 22.5 82.5t19.5 71.5q5 18 11.5 27.5t17 15t27 10t40.5 12.5q19 6 53.5 13.5t79 15t96.5 14.5t105.5 12.5t105.5 9t98 3.5q114 0 216 -21t179 -71.5 t122.5 -136t45.5 -214.5zM670 739q0 -11 4 -19.5t22 -8.5q28 0 66.5 12.5t77 37.5t71.5 62t50 87q7 20 11.5 51t4.5 73q0 70 -48.5 103t-126.5 33q-13 0 -29.5 -1.5t-31 -5.5t-24.5 -9.5t-11 -14.5l-2 -22q-1 -13 -4 -42.5t-6.5 -67.5t-7 -80t-7 -80t-6 -67t-3.5 -41z" />
<glyph unicode="Q" horiz-adv-x="1616" d="M756 -52q-150 0 -268 56t-199.5 151.5t-125 221t-43.5 265.5q0 157 44.5 289.5t124.5 235t190.5 173t242.5 104.5q12 0 17.5 15.5t10 36t9 39.5t14.5 27q352 -48 471 -109q63 -32 109.5 -63t83.5 -68t67 -85t60 -115q31 -70 46 -174l1 -12q5 -38 8 -81t3 -91 q0 -173 -56.5 -312.5t-156.5 -245.5q27 -29 50 -55t40 -47t27 -36.5t10 -22.5q0 -11 -17.5 -26.5t-44 -33.5t-57.5 -36t-58 -32t-46 -23t-21 -9q-8 0 -14.5 4.5t-11.5 9.5l-123 123q-85 -35 -174 -54.5t-189 -19.5h-24zM566 682q0 -69 13 -137.5t44 -128.5q1 -1 1 -2 q36 -61 95.5 -99t149.5 -38l20 2l-12 14q-23 26 -38 46t-15 30q0 19 28 34l233 117q6 3 10 3q8 0 19 -14t31 -35q28 66 40 145.5t12 151.5q0 108 -38.5 192.5t-133.5 141.5q-32 19 -68.5 27t-80.5 8t-80 -15.5t-65.5 -39.5t-53.5 -52.5t-42 -53.5q-19 -26 -32 -64t-21.5 -79 t-12 -82t-3.5 -72z" />
<glyph unicode="R" horiz-adv-x="1473" d="M658 80q-1 -9 -3.5 -17.5t-13.5 -13.5q-4 -2 -39.5 -14.5t-82 -29t-92 -33t-69.5 -25.5q-12 -5 -29.5 -10.5t-34.5 -5.5q-14 0 -24.5 7t-10.5 26q0 44 2.5 80.5t6.5 76.5t8.5 88.5t8.5 115.5q5 88 11 169.5t12 169.5l14 171q3 42 6 85.5t6 89.5l11 122q0 2 -6 2 q-8 0 -27 -3.5t-45 -8.5t-57.5 -10.5t-64.5 -10.5q-8 0 -15.5 3.5t-7.5 8.5q0 4 2 6l162 283q55 12 118.5 24.5t136.5 22.5t155 16.5t174 6.5q104 -2 202.5 -20.5t175 -62t123 -118t46.5 -188.5q0 -63 -21.5 -116t-55 -95.5t-73.5 -75t-76.5 -55.5t-64.5 -36.5t-38 -17.5 q0 -2 1.5 -5t6.5 -11.5t14.5 -24t24.5 -42.5q16 -24 38 -64t52.5 -94.5t70.5 -121.5t92 -144q17 -15 39 -18.5t41 -4t32 -2t13 -12.5q0 -8 -16.5 -18.5t-38.5 -21.5t-44.5 -21t-34.5 -16q-24 -12 -50 -23t-56 -24.5t-66.5 -31.5t-82.5 -43q-12 -7 -22.5 -9.5t-19.5 -2.5 q-18 0 -31 8.5t-22 20.5t-14.5 24.5t-9.5 20.5l-298 628zM719 757q51 0 106 26t100 67t74 93t29 105q0 145 -174 145q-33 0 -55 -4.5t-40 -6.5z" />
<glyph unicode="S" horiz-adv-x="1099" d="M158 372q0 1 -0.5 2t-0.5 2q0 17 18 17q9 0 20 -9q54 -51 120 -81t144 -30q21 0 48 4.5t51 15t40.5 27.5t16.5 43q0 29 -14 52t-37 39q-9 6 -27 20t-41 32t-48 38.5t-47.5 39t-40.5 33.5t-27 23q-59 44 -93.5 89t-52.5 94t-23 101.5t-5 111.5q0 88 42 167t118.5 137.5 t183.5 93t238 34.5q16 0 48 -3.5t70.5 -11.5t78.5 -22t73 -36q11 -8 17.5 -16t8.5 -25q5 -81 8 -159.5t8 -166.5q0 -17 -7 -22.5t-18 -5.5t-17 6q-29 29 -60 57t-65 49.5t-72.5 34.5t-83.5 13q-27 0 -54 -4.5t-49 -16.5t-35.5 -33t-13.5 -53q0 -34 8.5 -59t42.5 -47 l240 -163q66 -47 107 -93.5t64 -92.5t31.5 -90.5t8.5 -87.5q0 -70 -23 -132t-63 -114.5t-93.5 -94t-114.5 -71t-126.5 -45t-128.5 -15.5q-49 0 -96.5 1.5t-92.5 8t-87 20t-80 37.5z" />
<glyph unicode="T" horiz-adv-x="1159" d="M358 -32q5 73 10 141t9 132l36 472q6 54 10 98.5t6.5 87t5 86t5.5 96.5q-33 1 -69.5 1h-76.5h-193q-11 0 -13.5 8.5t-2.5 15.5v7l110 289l-1 4q0 5 6.5 8.5t29.5 5.5q138 8 267.5 15.5t256 13.5l253 12t260.5 11q12 0 25.5 -3t13.5 -22q0 -2 -1 -4t-1 -4 q-16 -41 -29.5 -78t-26.5 -73t-26.5 -73t-29.5 -78q-1 -1 -4 -9.5t-9 -19t-16 -19.5t-25 -10q-5 1 -10 1h-11h-267q-5 -51 -9.5 -108t-10.5 -111l-73 -781q-1 -9 -3.5 -18t-13.5 -13l-283 -102q-11 -4 -29 -10t-35 -6q-14 0 -24.5 7t-10.5 26v4z" />
<glyph unicode="U" horiz-adv-x="1378" d="M1381 1430q-2 -27 -7 -79.5t-11.5 -119t-13.5 -139.5t-13.5 -139.5t-11.5 -120.5t-7 -81q-21 -213 -71.5 -365.5t-132.5 -249.5t-196.5 -142.5t-264.5 -45.5q-103 0 -194 37.5t-159 105.5t-107.5 163.5t-39.5 212.5q0 15 2.5 54.5t7 96.5t10 129.5t11.5 154.5l12 166 q6 91 9 151.5t6.5 97.5t10.5 54t22 22l341 76q13 4 27 4q16 0 21.5 -9t5.5 -34l-76 -788q-2 -35 -7 -76t-5 -84q0 -26 6.5 -57t23.5 -58.5t46.5 -46t76.5 -18.5q57 0 92 24.5t56 65t30.5 92t15.5 105.5q5 63 12 148t14 182l29 399q2 18 2.5 30t2.5 20t8.5 12t20.5 6l341 83 q13 4 27 4t20.5 -8.5t6.5 -34.5z" />
<glyph unicode="V" horiz-adv-x="1305" d="M879 88q-5 -13 -9.5 -25t-11.5 -22t-17.5 -18t-26.5 -13q-63 -20 -125 -34.5t-125 -35.5q-12 -4 -21 -6t-17 -2q-18 0 -26 9t-12 23l-342 1360q-8 26 -8 43q0 22 14 36.5t45.5 24t81 17.5t121.5 18q35 5 59 7.5t41 2.5q29 0 38.5 -9.5t17.5 -29.5l191 -826l269 759 q6 16 10.5 26t17 17.5t38 15t73.5 17.5q75 16 124 23t79 7q38 0 49.5 -9t11.5 -26q1 -7 -2.5 -14.5t-7.5 -18.5z" />
<glyph unicode="W" horiz-adv-x="1832" d="M1551 1357q5 18 11 29.5t27 16.5l295 68q2 0 5 1t5 1q14 0 19.5 -12t5.5 -23q0 -2 -0.5 -8t-1.5 -8l-414 -1258q-16 -41 -26.5 -66.5t-21 -42t-24 -27.5t-36 -22t-56.5 -25.5t-86 -39.5q-18 -9 -28 -9q-16 0 -24 12t-13 27l-171 609l-214 -441q-5 -12 -23 -32t-40.5 -41 t-45 -40.5t-36.5 -31.5q-13 -11 -27.5 -22t-29.5 -20t-28.5 -14.5t-25.5 -5.5q-26 0 -34 29l-388 1368q-2 8 -4.5 16t-2.5 15q0 25 12 42t42 29t80 19.5t127 12.5q36 5 60.5 7t41.5 2q29 0 38 -9t16 -30l206 -793l171 294l-69 301q-6 24 -5 36q0 23 12 37t40 23t73.5 16 t111.5 16q29 4 50 6t36 2q30 0 41 -9t16 -29l136 -616z" />
<glyph unicode="X" horiz-adv-x="1244" d="M446 1442l8 2h9q17 0 33 -11.5t32 -39.5q11 -20 31.5 -59t44.5 -84t48 -90.5t42 -78.5l166 286l396 80q5 1 9.5 1.5t9.5 0.5q22 0 22 -17q0 -6 -2.5 -15.5t-8.5 -20.5l-181 -323l-72 -123q-32 -54 -68.5 -116t-68.5 -117q18 -30 33.5 -58t28 -51t21 -40t13.5 -26 l243 -461l-3 -37q0 -3 -13 -11.5t-34.5 -19.5t-49 -23t-57.5 -22l-71 -24q-13 0 -28.5 -6.5t-32.5 -6.5q-14 0 -26.5 6.5t-25.5 26.5q-23 33 -51 78t-60 103l-110 194l-158 -267l-31 -30q-1 -3 -18 -9.5t-44.5 -16t-61.5 -20.5t-67.5 -21t-64.5 -18.5t-51 -13.5 q-12 0 -34.5 -6t-39.5 -6q-9 0 -15 3.5t-6 11.5q0 9 9 31t24 51.5t33.5 64.5t37.5 70t37 67t31 56q49 94 105 195l113 204l-348 621q-10 17 -10 35q0 11 8 14z" />
<glyph unicode="Y" horiz-adv-x="1115" d="M119 1332q6 4 20.5 10.5t34 14.5t42 17.5t45.5 18.5l116 46q13 6 24 6q8 0 17.5 -4.5t21.5 -16.5l231 -448l6 15l99 183q19 34 37.5 67t33 59t24.5 42t12 16l343 86q12 3 20 3q23 0 23 -21q-1 -5 -2 -13.5t-6 -18.5l-294 -545q-22 -41 -44.5 -82t-43.5 -77.5t-37.5 -66.5 t-26.5 -49l-7 -33l-56 -375q-3 -17 -5 -28t-5.5 -18t-9 -12t-15.5 -10l-284 -149q-16 -8 -33.5 -13t-33.5 -5q-17 0 -29 7.5t-12 24.5v4q4 57 14.5 132.5t22.5 147.5l56 371q-16 34 -42 90t-56 121t-62.5 134t-61 130.5t-51 108.5t-33.5 69q-5 15 -5 31q0 9 2.5 17.5 t9.5 12.5z" />
<glyph unicode="Z" horiz-adv-x="1249" d="M205 0q-12 0 -24 2.5t-22 9t-16.5 18t-6.5 30.5q0 2 1 4t1 4l521 914q0 3 -21.5 5.5t-55 4t-73.5 3t-76.5 2t-65 1t-38.5 0.5q-54 0 -101 -1.5t-98 -1.5q-11 0 -19 7.5t-8 17.5q1 1 1 2q0 3 1 6l129 309q9 22 27.5 35.5t42 21t50.5 10t53 2.5q109 0 215 -4.5t211.5 -9.5 t211 -9.5t213.5 -4.5v-41l-487 -910q0 -2 -0.5 -2.5t-0.5 -2.5q0 -11 10 -12.5t18 -1.5h198q60 0 116 7.5t116 7.5q12 0 22 -7.5t10 -18.5q0 1 -2 -9l-161 -320q-8 -24 -29.5 -38t-52 -21t-67.5 -9t-76 -2q-157 0 -318.5 1t-348.5 1z" />
<glyph unicode="[" horiz-adv-x="804" d="M226 1322q1 24 6 37.5t11 20.5t13 9t13 3l611 58q1 0 5.5 -0.5t9.5 -3t9.5 -8.5t4.5 -17q-1 -6 -14.5 -51.5t-39.5 -112.5l-44 -116q-5 -14 -12 -22t-26 -12.5t-54 -8t-96 -8.5q-2 -13 -7 -62t-11.5 -119t-15 -153t-17.5 -164l-34 -415l193 2q12 0 12 -11q0 -6 -3.5 -14 t-8.5 -16q-1 -2 -10.5 -27.5t-22 -59t-26 -68t-22.5 -55.5q-14 -26 -33 -33.5t-44 -7.5q-15 0 -32 1t-37 3q-46 3 -94.5 5t-95.5 4.5t-91.5 7t-81.5 13.5q-11 1 -13.5 11.5t-2.5 21.5q0 5 2.5 43t7 99.5t10 140.5t12 165.5t13.5 176.5t13 172z" />
<glyph unicode="\" horiz-adv-x="1094" d="M673 943q61 -134 111 -246t95 -212t87.5 -193.5t88.5 -190.5q5 -13 5 -19q0 -13 -12.5 -23t-29 -17.5t-33 -13t-23.5 -8.5l-101 -42q-15 -7 -26 -7q-15 0 -18.5 13.5t-10.5 30.5l-641 1414q-1 1 -1 3q0 5 5 8t11 5q53 10 105.5 35.5t106.5 47.5h6q14 0 21.5 -11.5 t20.5 -40.5q60 -137 116 -269t117 -264z" />
<glyph unicode="]" horiz-adv-x="807" d="M693 2q-2 -24 -7 -37.5t-11 -20.5t-12.5 -9t-12.5 -3l-270 -9q-52 -2 -104 -3.5t-96 -3t-76 -2t-45 -0.5q-1 0 -5.5 0.5t-10 3t-9.5 8.5t-4 17q-1 3 9.5 41.5t33.5 105.5l35 103q6 17 15.5 26t38.5 10l155 5q1 9 3 34.5t4.5 62.5t6 84t7.5 99.5t8.5 108t9.5 109.5l29 415 l-193 -2q-10 0 -13 5t-3 13q0 5 0.5 10.5t0.5 12.5q0 2 0.5 25t1 53.5t1 62t0.5 49.5q0 32 15.5 41t41.5 9q17 0 36 -1.5t39 -1.5h471q12 0 14 -11.5t2 -21.5q0 -6 -1 -26t-2.5 -47.5t-4 -59.5t-5.5 -60q-1 -25 -4.5 -72.5t-8.5 -106.5t-10.5 -124t-11 -126t-9.5 -112.5 t-6 -82.5z" />
<glyph unicode="^" horiz-adv-x="1190" d="M747 92q-5 16 -15 52t-23 81t-26.5 94t-25.5 92t-20.5 74.5t-11.5 42.5l-231 -440q-5 -12 -25 -12q-36 9 -75.5 15t-80 10.5t-81 7.5t-77.5 6q-14 3 -14 13q0 12 16 48q38 70 78.5 147t81.5 154.5t80.5 152.5t74.5 140t65 117t52 85q1 3 5 7t9 5l7 1q1 0 2 -0.5t3 -0.5 q81 -9 159.5 -13.5t153.5 -6.5q9 0 15.5 -2.5t12 -8.5t10 -16.5t10.5 -26.5l252 -696q2 -11 3.5 -18.5t1.5 -13.5q0 -24 -22 -31q-85 -14 -171 -28.5t-171 -36.5q-6 -2 -12 -2q-8 0 -10 8z" />
<glyph unicode="_" horiz-adv-x="1041" d="M167 -58q-78 0 -112.5 4.5t-34.5 19.5q0 8 6.5 24.5t17.5 36t25 41t30 39t32.5 29t31.5 12.5l352 10q14 0 50 0.5t82.5 1t96.5 1.5t93 1.5t72.5 1t33.5 0.5q13 -1 24 -5q9 -4 16.5 -10.5t7.5 -19.5t-3 -39t-7 -52l-9 -67q-2 -11 -9.5 -17t-39.5 -6h-157h-66.5t-68 -0.5 t-64.5 -0.5h-55z" />
<glyph unicode="`" horiz-adv-x="561" d="M172 1427q-23 42 -39 70t-30 53t-30 53.5t-38 70.5q-6 11 -7.5 21t-2.5 18q0 11 5 17.5t15 11.5q37 21 77.5 42.5t81.5 44t81.5 46.5t77.5 50q10 5 14 5q6 0 8 -8l112 -585q2 -13 4 -21.5t2 -16.5q0 -9 -3 -17t-13 -13q-21 -9 -39 -17t-35.5 -16.5t-37 -18.5t-43.5 -25 q-4 -4 -11 -4q-9 0 -20 13.5t-27.5 42t-41 74t-60.5 109.5z" />
<glyph unicode="a" horiz-adv-x="1248" d="M1141 201q-1 -4 -1 -7.5v-6.5q0 -25 8 -41.5t17.5 -27t17.5 -17t8 -11.5q0 -14 -30 -26l-269 -115q-1 -1 -7 -1q-8 0 -16 14t-15.5 35.5t-14 46t-11.5 45.5q-63 -73 -136 -107t-145 -34q-84 0 -164 37t-142 105.5t-99.5 165.5t-37.5 218q0 143 41.5 261t112.5 203 t165.5 131.5t200.5 46.5q75 0 142 -30.5t127 -78.5q6 30 7 48t4.5 28t13.5 13.5t33 5.5q72 10 143.5 18.5t149.5 12.5zM842 578q10 57 13.5 107.5t5.5 92.5q-16 12 -34.5 25t-40 24.5t-45 18.5t-49.5 7q-54 0 -90.5 -35t-59 -86t-32 -108t-9.5 -101q0 -158 41.5 -231.5 t115.5 -73.5q30 0 67 17t75 47z" />
<glyph unicode="b" horiz-adv-x="1319" d="M542 326q10 -20 28.5 -40.5t43 -37.5t53.5 -27.5t60 -10.5q43 0 81 33.5t66.5 90t44.5 129t16 150.5q0 48 -8.5 91t-26.5 75t-46.5 51t-68.5 19q-65 0 -119 -38t-91 -97zM170 -49q-14 -3 -22 -3q-32 0 -32 38q0 5 0.5 10t1.5 11l116 1415q0 3 0.5 6t0.5 5q0 4 -0.5 7 t-0.5 5q0 9 6.5 14.5t33.5 12.5l281 67q11 2 29 9t35 7q13 0 24.5 -6t11.5 -23q0 -2 -0.5 -4t-0.5 -4q-1 -5 -5 -44t-9 -94.5t-11 -119t-11 -119t-9 -94.5t-5 -44q73 48 151 80.5t156 32.5q103 0 178 -42.5t124 -113t72.5 -162.5t23.5 -190q0 -79 -14.5 -158.5t-42 -152.5 t-69 -137t-95 -111t-119.5 -74t-143 -27q-93 0 -170 41t-143 106q-2 -24 -3 -38t-6.5 -21.5t-16.5 -12t-33 -9.5q-11 -3 -38.5 -9.5t-66 -15t-85 -18.5t-94.5 -20z" />
<glyph unicode="c" horiz-adv-x="1053" d="M100 488q0 131 48.5 245.5t134 199.5t202 134t253.5 49q93 0 159 -15t108 -33.5t61.5 -34t19.5 -16.5q0 -6 -4.5 -33.5t-10 -64t-10 -75t-4.5 -66.5q0 -5 -3 -11t-16 -6q-12 0 -35 8.5t-56.5 18.5t-77 18.5t-96.5 8.5q-66 0 -119 -23.5t-91 -65t-58.5 -98.5t-20.5 -123 q0 -69 21.5 -117.5t57.5 -79t83 -44.5t99 -14q60 0 121 16.5t115 46.5q2 1 8 1q5 0 7.5 -5t2.5 -19v-77.5t-0.5 -87t-1.5 -70.5t-2 -29q-36 -24 -78 -39t-86.5 -24t-89.5 -12t-87 -3q-117 0 -218 39t-175.5 110t-117.5 170.5t-43 220.5z" />
<glyph unicode="d" horiz-adv-x="1329" d="M877 569q3 32 6.5 67t8.5 73q-23 60 -65 97.5t-105 37.5q-62 0 -105 -35.5t-69 -87.5t-37.5 -109.5t-11.5 -101.5q0 -54 6.5 -107t21 -96t38.5 -69.5t60 -26.5q88 3 143 40t88 90zM1226 101q0 -2 -0.5 -4.5t-0.5 -4.5q0 -5 0.5 -8t0.5 -6q0 -9 -6.5 -14.5t-33.5 -12.5 l-268 -87q-11 -4 -29 -10t-35 -6q-14 0 -24.5 7t-10.5 26q0 18 0.5 29t1 20.5t2 20.5t3.5 29q-75 -60 -154.5 -96t-167.5 -36q-96 0 -170.5 45.5t-125.5 122t-77.5 175t-26.5 205.5q0 139 45.5 253.5t123.5 196t182 126t221 44.5q63 0 120.5 -33t108.5 -85q3 49 7 106.5 t8 117t8 117.5t7 106q0 9 6.5 14.5t33.5 12.5l281 67q11 2 29 9t35 7q13 0 24.5 -6t11.5 -23q0 -2 -0.5 -8.5t-0.5 -8.5z" />
<glyph unicode="e" horiz-adv-x="1142" d="M716 1116q95 0 172.5 -35.5t133 -92t85.5 -126.5t30 -140q0 -62 -38 -124.5t-106.5 -112.5t-164.5 -81t-211 -31q-60 0 -126 12q4 -43 25 -74t53 -51t72.5 -29.5t83.5 -9.5q48 0 92.5 8.5t85.5 22.5t79 31t72 34q9 2 15.5 3.5t12.5 1.5l-0.5 -16t-0.5 -45t-0.5 -70 t-1.5 -91q3 -5 4 -10t1 -8q0 -12 -22 -26t-57.5 -29t-81 -29t-92.5 -25.5t-91 -18t-77 -6.5q-108 0 -209.5 37.5t-180 107.5t-125.5 170t-47 225q0 131 45 245.5t126.5 199.5t194.5 134t249 49zM704 850q-41 0 -75.5 -17.5t-63 -50t-49.5 -78t-34 -100.5q103 18 171 38 t109 40.5t58 41t17 39.5q0 18 -13.5 34t-33.5 28t-43.5 18.5t-42.5 6.5z" />
<glyph unicode="f" horiz-adv-x="910" d="M232 -15q1 11 4.5 47.5t8.5 92.5t11.5 128.5t14.5 156t16.5 174.5t17.5 184h-133q-54 0 -78 4.5t-24 18.5q0 4 10 21.5t25.5 42t33.5 52.5t34.5 52.5t28.5 42.5t15 22h122l20 159q14 126 50.5 212t91 139t124.5 76t150 23t166.5 -19.5t174.5 -53.5q19 -8 28.5 -13.5 t9.5 -14.5q0 -8 -7 -21q-32 -62 -47.5 -100t-24.5 -60t-15 -29.5t-18 -7.5q-6 0 -12.5 3t-15.5 7q-35 13 -70.5 23.5t-67.5 10.5q-45 0 -77.5 -28t-51.5 -106q-11 -45 -18 -97t-12 -103h261q8 0 15.5 -5.5t7.5 -18.5q0 -5 -12 -36t-34 -81l-36 -81q-7 -15 -14.5 -22 t-30.5 -9h-173q-11 -104 -21 -206t-19 -191.5t-16 -159t-11 -107.5q-1 -3 -1 -11q0 -4 0.5 -7t0.5 -5q0 -9 -6.5 -14.5t-33.5 -12.5l-263 -93q-11 -4 -29 -10t-35 -6t-26 8t-9 29z" />
<glyph unicode="g" horiz-adv-x="1295" d="M849 713q-10 23 -27.5 47t-40.5 44t-50 32.5t-57 12.5q-41 0 -77 -34t-63 -90.5t-42.5 -129t-15.5 -150.5q0 -48 8.5 -90.5t26.5 -74.5t46.5 -51t68.5 -19q60 0 110 37.5t85 97.5q1 21 3 50t5 70.5t7.5 98t11.5 134.5zM1180 109q-10 -99 -45 -185t-88.5 -157.5t-122 -128 t-145 -95.5t-157.5 -59.5t-160 -20.5q-42 0 -86 3t-86 11.5t-80 24t-68 39.5v1q0 5 7.5 35t18 70.5t22 83.5t19.5 74q4 14 8 19t9 5q6 0 7 -1q29 -19 54.5 -31.5t54 -20t62.5 -10.5t79 -3q70 0 124 27t93 70t62.5 94.5t32.5 101.5q-72 -48 -146 -78t-149 -30 q-103 0 -178 41.5t-124 111.5t-72.5 160.5t-23.5 189.5q0 78 14.5 157.5t43 153.5t70.5 138.5t97 112.5t122 75.5t146 27.5q86 0 159.5 -38t133.5 -94q2 18 3 28.5t5 16.5t13.5 9t27.5 7q11 2 40 8.5t69 15.5t88 19t97 21q12 3 22 3q31 0 31 -40v-9.5t-1 -9.5z" />
<glyph unicode="h" horiz-adv-x="1328" d="M234 1454q0 6 -0.5 11t-0.5 10q0 9 7 15.5t34 13.5l281 67q11 2 29 9t35 7q35 0 35 -32q0 -2 -3 -41t-8 -97t-11 -126.5t-12 -130.5t-11 -108.5t-8 -60.5q47 26 98 49t102.5 40t103 26.5t99.5 9.5q61 0 114 -17.5t92.5 -58t62 -106t22.5 -160.5q0 -24 -1 -49.5t-4 -52.5 l-43 -409q-5 -42 -6 -87.5t-1 -93.5q0 -8 0.5 -13.5t0.5 -9.5q0 -9 -7.5 -14t-33.5 -13l-245 -68q-11 -3 -29 -9.5t-35 -6.5t-26 7.5t-9 29.5q7 75 11.5 121t7 73.5t4.5 42t3 26t3 26t4.5 42.5t7 74t11.5 121q4 40 8.5 79.5t4.5 72.5q0 42 -4.5 76.5t-16 59t-31.5 38.5 t-51 14q-23 0 -62.5 -10t-79 -33t-70 -60.5t-34.5 -92.5q-8 -77 -12.5 -126t-7.5 -81t-4.5 -51t-2.5 -35q-1 -5 -3 -24.5t-5 -46.5t-6 -57.5t-5.5 -57.5t-4 -46.5t-1.5 -24.5q0 -8 0.5 -13.5t0.5 -10.5q0 -8 -7.5 -13.5t-33.5 -12.5l-261 -91q-11 -4 -29 -10t-35 -6 q-15 0 -25 8.5t-10 28.5z" />
<glyph unicode="i" horiz-adv-x="612" d="M146 424q13 137 26 271t23 275q2 33 6.5 45.5t22.5 16.5q85 17 178 35.5t180 47.5q3 1 9 1q11 0 11 -8l-90 -974q-3 -33 -7 -45.5t-22 -16.5q-85 -26 -172 -58t-184 -65q-3 -1 -9 -1q-11 0 -11 10q0 1 2 27t5.5 67t7.5 92t8.5 102t8.5 98t7 80zM221 1222q3 43 4.5 66 t2.5 34.5t1 14.5t0.5 4.5t1 6t1.5 19t3 42.5t6 77q2 33 6.5 45.5t22.5 16.5q85 17 178 35.5t180 47.5q3 1 9 1q3 -6 8 -8l3 -2l-22 -274q-3 -33 -7.5 -46t-21.5 -16q-85 -16 -172 -35t-184 -38q-3 -1 -9 -1q-11 0 -11 10z" />
<glyph unicode="j" horiz-adv-x="620" d="M224 1222q3 43 4.5 66t2.5 34.5t1 14.5t0.5 4.5t1 6t1.5 19t3 42.5t6 77q2 33 6.5 45.5t22.5 16.5q85 17 178 35.5t180 47.5q3 1 9 1q3 -6 8 -8l3 -2l-22 -274q-3 -33 -7.5 -46t-21.5 -16q-85 -16 -172 -35t-184 -38q-3 -1 -9 -1q-11 0 -11 10zM113 89q9 80 20 184.5 t22.5 220.5t22.5 238t20 238q2 33 6.5 45.5t22.5 16.5q85 17 178 35.5t180 47.5q3 1 9 1q11 0 11 -8l-74 -819l-20 -159q-26 -232 -132.5 -345.5t-309.5 -113.5q-19 0 -53 5.5t-73 15t-79.5 21.5t-73 24t-53.5 23.5t-21 20.5q0 8 7 21q30 58 45.5 96t24.5 60.5t14.5 31.5 t16.5 9q9 0 32 -10q35 -14 69.5 -24t68.5 -10q20 0 39.5 6t35.5 21.5t27.5 41.5t16.5 65z" />
<glyph unicode="k" horiz-adv-x="1258" d="M659 1518l-36 -347q-7 -70 -14.5 -142t-14.5 -138t-13 -122t-10 -92l69 76l112 131q21 24 41 48t36 42.5t26 31t12 14.5l402 28q3 1 6.5 1h6.5q17 0 17 -9q0 -7 -21 -31l-313 -350q-21 -23 -49.5 -53.5t-63.5 -67.5l146 -174l252 -271q3 -5 9 -7.5t11.5 -4.5t10 -4.5 t4.5 -7.5q0 -4 -1.5 -6t-9.5 -8q-9 -7 -31.5 -20t-52.5 -29t-64 -32.5t-66 -30t-59 -22t-42 -8.5q-12 0 -23.5 6t-25.5 22q-19 22 -47.5 57.5t-61.5 78t-67.5 88t-66 87t-57 75t-39.5 53.5q-5 -5 -10 -7.5t-9.5 -6.5t-7.5 -9.5t-3 -15.5q0 -4 -2 -22.5t-4.5 -44t-5.5 -54.5 t-5.5 -54.5t-4.5 -44t-2 -22.5q0 -7 0.5 -11.5t0.5 -8.5q0 -11 -7.5 -16.5t-36.5 -13.5l-262 -85q-11 -4 -29 -10t-35 -6q-14 0 -24.5 7t-10.5 26l126 1441q0 5 -1 9.5t-1 9.5q0 9 7.5 16.5t34.5 14.5l281 67q11 2 29 9t35 7q13 0 24.5 -6t11.5 -23q0 -2 -0.5 -4t-0.5 -4z " />
<glyph unicode="l" horiz-adv-x="622" d="M189 846q12 137 19.5 271t16.5 275q2 33 6.5 45.5t22.5 16.5q93 17 186.5 34.5t187.5 46.5q3 1 9 1q11 0 11 -10l-130 -1428v-17q0 -9 -7 -14.5t-33 -12.5l-262 -96q-11 -5 -29 -10.5t-35 -5.5q-14 0 -24.5 7t-10.5 24v6q8 101 15.5 197.5t16 199.5t18.5 218t22 252z" />
<glyph unicode="m" horiz-adv-x="1950" d="M1575 -36q-11 -3 -29 -9.5t-35 -6.5q-14 0 -24.5 7t-10.5 24v6q7 73 12 118.5t8 73.5t5 42.5t4 27t3.5 27.5t4.5 42.5t7.5 73t11.5 119.5q4 40 8.5 79.5t4.5 72.5q0 42 -4.5 76.5t-16 59t-31.5 38.5t-51 14q-19 0 -49.5 -8t-61.5 -28.5t-56 -54t-32 -84.5v-4 q-12 -114 -21.5 -197.5t-16.5 -143.5t-11.5 -100t-7.5 -67.5t-4.5 -45.5t-1.5 -34q0 -8 0.5 -13.5t0.5 -9.5q0 -8 -7.5 -13.5t-33.5 -13.5l-235 -68q-11 -3 -29 -9.5t-35 -6.5q-14 0 -24.5 7t-10.5 24v6q7 73 11.5 118.5t8 73.5t5.5 42.5t3.5 27t3.5 27.5t4.5 42.5t7 73 t11.5 119.5q4 40 8.5 79.5t4.5 72.5q0 42 -4 76.5t-14.5 59t-28.5 38.5t-46 14q-20 0 -54.5 -10t-69 -33t-61 -60.5t-30.5 -92.5q-8 -74 -13 -121.5t-8 -78t-4.5 -49t-2.5 -34.5q-1 -4 -3 -22.5t-4.5 -44t-5 -55t-4.5 -55t-3.5 -44t-1.5 -22.5v-18q0 -10 -1 -17t-6 -13 t-14.5 -11t-26.5 -11l-262 -93q-11 -4 -29 -10t-35 -6q-14 0 -24.5 7t-10.5 24l90 1020q3 33 7.5 45.5t22.5 16.5q91 18 186 36.5t186 47.5q8 0 9.5 -2.5t1.5 -7.5l-13 -146q37 19 83 41.5t96.5 41.5t103 31.5t102.5 12.5q69 0 127.5 -31.5t96.5 -104.5q45 29 95.5 54 t103 43t105.5 28t103 10q63 0 119 -18t97.5 -59t65.5 -106.5t24 -159.5q0 -24 -1 -49.5t-4 -52.5l-46 -428q-5 -42 -6 -77.5t-1 -82.5q0 -8 0.5 -13.5t0.5 -9.5q0 -9 -7.5 -14t-33.5 -13z" />
<glyph unicode="n" horiz-adv-x="1322" d="M950 -36q-11 -3 -29 -9.5t-35 -6.5q-14 0 -24.5 7t-10.5 24v6q6 54 10 91.5t7.5 68t6 61t6.5 71t9.5 96t13.5 138.5q5 51 9 104t4 98q0 30 -4.5 55.5t-16 44t-31.5 28.5t-51 10q-23 0 -63.5 -10t-80.5 -33t-71 -60.5t-35 -92.5q-6 -74 -11 -126.5t-9 -89t-6.5 -59.5 t-3.5 -39q-1 -4 -3 -22t-4.5 -43t-5 -53t-5 -53t-4 -43t-1.5 -22q0 -8 0.5 -13.5t0.5 -10.5q0 -8 -7.5 -13.5t-33.5 -12.5l-265 -91q-11 -4 -29 -10t-35 -6q-14 0 -24.5 7t-10.5 24l91 1022q3 33 7.5 45.5t22.5 16.5q91 18 187 36.5t187 47.5q8 0 9.5 -2.5t1.5 -7.5 q0 -2 -0.5 -6t-3 -18t-7 -42.5t-12.5 -79.5q69 40 129.5 64.5t114 38t100.5 18t88 4.5q141 0 205 -85.5t64 -256.5q0 -24 -1 -49.5t-4 -52.5l-46 -430q-5 -42 -6 -77.5t-1 -82.5q0 -8 0.5 -13.5t0.5 -9.5q0 -9 -7.5 -14t-33.5 -13z" />
<glyph unicode="o" horiz-adv-x="1313" d="M670 -52q-141 0 -247.5 46t-178.5 122.5t-108 176t-36 206.5t35 203.5t98 173t151 128t194 69.5q16 1 16 7q0 11 -2.5 20.5t-2.5 16.5q0 11 4 15t9 4q191 0 325 -43.5t218 -118.5t122 -177t38 -219q0 -149 -50 -266t-136.5 -198t-202 -123.5t-246.5 -42.5zM485 510 q0 -54 11.5 -107t38 -96t69.5 -69.5t107 -26.5q46 2 80.5 20.5t59.5 48t41.5 66.5t26 76.5t13.5 77.5t4 69q0 52 -15.5 102t-45.5 88t-74.5 61.5t-102.5 23.5q-60 0 -101 -35.5t-65.5 -87.5t-35.5 -109.5t-11 -101.5z" />
<glyph unicode="p" horiz-adv-x="1325" d="M567 698q-6 -96 -10.5 -156t-7.5 -97.5t-5 -59t-3 -40.5q23 -60 68 -97.5t108 -37.5q55 0 96.5 34.5t69 89.5t41.5 123t14 135q0 55 -9.5 102t-28.5 81.5t-47.5 54t-67.5 19.5q-32 0 -63.5 -12.5t-60.5 -32t-52.5 -44t-38.5 -47.5zM587 991q84 57 176 91t192 34 q94 0 162.5 -38.5t113.5 -104t66.5 -150.5t21.5 -178q0 -81 -16 -164t-47 -160.5t-77 -145.5t-105.5 -118.5t-132.5 -79.5t-158 -29q-75 0 -143.5 30t-128.5 78q0 -5 -2.5 -36.5t-6.5 -76.5t-9 -96.5t-9 -96.5t-6.5 -76.5t-2.5 -36.5q0 -8 0.5 -13.5t0.5 -10.5 q0 -8 -7.5 -13.5t-33.5 -12.5l-263 -67q-11 -3 -29 -9.5t-35 -6.5q-14 0 -24.5 7t-10.5 26l122 1464q3 33 7.5 45.5t22.5 16.5q91 18 187 36.5t187 47.5q8 0 9.5 -2.5t1.5 -7.5q0 -2 -0.5 -6t-3 -18t-7 -42.5t-12.5 -79.5z" />
<glyph unicode="q" horiz-adv-x="1303" d="M850 718q-10 23 -27.5 47t-40.5 44t-50 32.5t-57 12.5q-41 0 -77 -34t-63 -90.5t-42.5 -129t-15.5 -150.5q0 -48 8.5 -90.5t26.5 -74.5t46.5 -51t68.5 -19q60 0 110 37.5t85 97.5q1 21 3 50t5 70.5t7.5 98t11.5 134.5zM1232 1114q12 3 22 3q31 0 31 -39v-9.5t-1 -10.5 l-129 -1386q-1 -3 -1 -11q0 -4 0.5 -7t0.5 -5q0 -9 -6.5 -14.5t-33.5 -12.5l-265 -97q-11 -3 -29 -9.5t-35 -6.5q-14 0 -25 6t-11 22q0 6 1 9q1 4 3 27.5t5 59t7 80t7.5 91t7.5 91t7 80t5 59t3 27.5q-72 -48 -146 -80.5t-149 -32.5q-103 0 -178 42t-124 112.5t-72.5 162 t-23.5 190.5q0 79 14.5 158.5t43 153t70.5 137.5t97 111t122 74t146 27q88 0 160 -35t133 -92q2 18 3 28.5t5 16.5t13.5 9t27.5 7q11 2 40 8.5t69 15.5t88 19t97 21z" />
<glyph unicode="r" horiz-adv-x="904" d="M938 814q-21 2 -47 4.5t-55 2.5q-44 0 -89.5 -7.5t-84.5 -29.5t-67 -60.5t-36 -99.5q-7 -74 -11.5 -121.5t-6.5 -78t-3.5 -49t-2.5 -34.5q0 -4 -1.5 -22t-4.5 -42t-5.5 -52t-5.5 -52t-4.5 -42t-1.5 -22q0 -8 0.5 -13.5t0.5 -10.5q0 -8 -7.5 -13.5t-33.5 -12.5l-265 -95 q-11 -4 -29 -10t-35 -6q-14 0 -24.5 7t-10.5 24l86 991q3 33 7.5 45.5t22.5 16.5q91 18 188 36.5t188 47.5q8 0 9.5 -2.5t1.5 -7.5q0 -2 -0.5 -6t-3 -18t-7 -42.5t-12.5 -79.5q46 36 101.5 66t111.5 51.5t108 34t91 12.5z" />
<glyph unicode="s" horiz-adv-x="861" d="M125 276q0 1 -0.5 1.5t-0.5 1.5q0 13 14 13q9 0 16 -7q40 -38 91.5 -62t111.5 -24q16 0 37 3.5t40 11.5t31.5 21.5t12.5 33.5q0 22 -11 40.5t-29 30.5l-35 24.5t-53.5 37.5t-54 38t-35.5 26q-45 34 -71.5 69t-40.5 72.5t-18 78.5t-4 87q0 70 37 132t97.5 109t137.5 74.5 t157 27.5q66 0 130 -20t119 -68q5 -63 7 -124t6 -128q0 -13 -6 -17.5t-14 -4.5q-7 0 -12 5q-23 22 -47 43.5t-50.5 38t-56.5 27t-64 10.5q-21 0 -42 -3.5t-38 -13t-27.5 -25.5t-10.5 -41q0 -29 7 -50t33 -41l186 -126q51 -35 82.5 -68.5t49.5 -66.5t24.5 -65.5t6.5 -64.5 q0 -90 -41.5 -158.5t-107.5 -114t-149.5 -69t-167.5 -23.5q-64 0 -123.5 13.5t-110.5 41.5z" />
<glyph unicode="t" horiz-adv-x="934" d="M659 771q-14 -105 -26.5 -209.5t-15.5 -195.5q0 -39 6 -65t17.5 -41t27.5 -21.5t36 -6.5q32 0 70 9.5t76 24.5q12 5 20.5 7.5t14.5 2.5q10 0 13.5 -9t7 -31.5t10.5 -60.5t23 -96q1 -5 1.5 -8.5t0.5 -6.5q0 -14 -10.5 -20t-34.5 -14q-41 -14 -86.5 -28.5t-90 -26.5 t-85.5 -19.5t-72 -7.5q-167 0 -243.5 83t-76.5 253q0 29 2 59.5t5 63.5q10 100 17.5 189.5t15.5 171.5h-105q-54 0 -78 4.5t-24 18.5q0 4 10 21.5t25.5 42t33.5 52.5t34.5 52.5t28.5 42.5t15 22h71q9 76 14.5 127.5t9 85.5t6.5 52.5t6.5 27.5t9 11.5t14.5 4.5q45 9 87 16.5 t84 15.5t85.5 18.5t90.5 24.5q3 0 4 0.5t4 0.5q12 0 12 -8v-2q-5 -55 -15.5 -153t-23.5 -222h268q8 0 15.5 -5.5t7.5 -18.5q0 -5 -12 -36t-34 -81l-36 -81q-7 -15 -14.5 -22t-30.5 -9h-186z" />
<glyph unicode="u" horiz-adv-x="1280" d="M1177 124q-3 -33 -8 -45.5t-22 -16.5q-85 -24 -177.5 -48.5t-179.5 -64.5q-3 -1 -9 -1q-8 0 -9.5 4t-1.5 9q0 2 0.5 7t2.5 18.5t5.5 37.5t9.5 64q-112 -73 -198.5 -106.5t-153.5 -33.5q-167 0 -243.5 80.5t-76.5 240.5q0 29 1 59.5t6 62.5q11 118 19 202.5t13 143.5 t8.5 96.5t6 62.5t4 41.5t3.5 32.5q4 32 7.5 45t22.5 17q47 9 89.5 16.5t84 16t84.5 18.5t91 24q2 0 4 0.5t4 0.5q12 0 12 -8v-2q-4 -34 -7 -64t-6 -61.5t-6.5 -67.5t-8.5 -83.5t-12 -109.5t-17 -144q-6 -60 -12 -119.5t-6 -110.5q0 -28 4 -51.5t14.5 -40t27.5 -25.5t44 -9 q21 0 57 9.5t72 33t63.5 62t31.5 97.5q7 99 12.5 165.5t9.5 112t7 76.5t5.5 59.5t4.5 61t4 81.5q3 33 7.5 45.5t22.5 16.5q91 18 186 36.5t186 47.5q8 0 9.5 -2.5t1.5 -7.5z" />
<glyph unicode="v" horiz-adv-x="1120" d="M855 1106q4 10 15 10q2 0 4 -0.5t4 -0.5q75 -29 154 -47.5t157 -35.5q19 -4 19 -22q0 -13 -12 -40l-412 -876q-8 -18 -14 -29t-12 -18t-13 -10t-17 -5q-76 -15 -154 -34.5t-162 -48.5q-2 0 -3 -0.5t-2 -0.5h-7q-5 0 -8 3.5t-4 6.5q-15 43 -34.5 111t-42.5 152t-48 179 t-51 193t-51.5 194.5t-49.5 182.5q-9 31 -9 44q0 14 16 18q78 17 162 35.5t159 47.5q3 1 9 1q13 0 14 -10l132 -672q5 12 17 43.5t29 75.5t37.5 97t42 108t42.5 109.5t39.5 101.5t32.5 83z" />
<glyph unicode="w" horiz-adv-x="1691" d="M742 1018q3 11 17 14q81 18 166 37t163 47q14 0 14 -10l102 -682l191 682q4 10 15 10q3 0 4 -0.5t4 -0.5q75 -29 154 -47.5t157 -35.5q19 -4 19 -22q0 -13 -12 -40l-322 -892q-8 -17 -14 -28.5t-12 -18t-13 -10t-17 -5.5q-76 -16 -154 -35t-162 -48q-2 0 -3 -0.5t-2 -0.5 h-7q-5 0 -8 3.5t-4 6.5q-11 43 -25 107t-30 142t-34 167t-37 183l-127 -447q-5 -18 -10.5 -29.5t-12.5 -18t-15 -9.5t-18 -5q-76 -15 -154 -34.5t-162 -48.5q-2 0 -3 -0.5t-2 -0.5h-7q-5 0 -8.5 3.5t-3.5 6.5q-14 44 -32 111.5t-38.5 151t-42.5 178.5t-45 193t-45.5 194.5 t-43.5 183.5q-7 16 -8 26.5t-1 17.5q0 14 16 18q78 17 162 35.5t159 47.5q3 1 9 1q13 0 14 -10l112 -692z" />
<glyph unicode="x" horiz-adv-x="1070" d="M700 -58q-1 1 -14.5 26.5t-35 66t-48 90.5t-53.5 101q-38 -51 -75 -101t-66 -90.5t-48 -66t-20 -26.5q-7 -10 -19 -10q-6 0 -8 1q-30 15 -65 26.5t-71.5 21t-73.5 18t-71 17.5q-10 2 -10 10q0 7 8 18t25 34l331 453q-60 111 -118.5 218t-120.5 221q-11 20 -17 31t-6 19 q0 9 13 12q75 17 153.5 35.5t145.5 47.5q3 1 9 1q13 0 17 -10l150 -272l209 272q7 10 19 10q6 0 8 -1q61 -29 136.5 -47.5t145.5 -35.5q10 -3 10 -9q0 -9 -8 -19.5t-25 -33.5q-87 -114 -169 -220.5t-163 -218.5l240 -453q10 -19 16 -30t6 -19q0 -10 -12 -13 q-75 -17 -153.5 -35.5t-145.5 -47.5q-3 -1 -9 -1q-11 0 -17 10z" />
<glyph unicode="y" horiz-adv-x="1125" d="M546 -456q-2 -4 -4.5 -6.5t-8.5 -2.5t-9 1q-36 13 -68 22t-63.5 16.5t-64.5 14t-70 14.5q-10 2 -15.5 6.5t-5.5 15.5q0 3 3.5 14.5t17.5 47t43 103t80 181.5q-15 50 -34 120t-40.5 153t-44.5 175.5t-46.5 187t-47 187t-45.5 176.5q-7 16 -8 26.5t-1 17.5q0 14 16 18 q78 17 162 35.5t159 47.5q3 1 9 1q13 0 14 -10l122 -672q4 12 15.5 43.5t27 75.5t34.5 97t39 108t39.5 109.5t36.5 101.5t29.5 83t19.5 54q4 10 15 10q3 0 4 -0.5t4 -0.5q75 -29 154 -47.5t157 -35.5q19 -4 19 -22q0 -13 -12 -40l-412 -931z" />
<glyph unicode="z" horiz-adv-x="992" d="M255 0q-20 0 -42.5 2t-41 7.5t-31 14.5t-12.5 24q0 1 1 3t1 4l353 724q-42 0 -94 -1.5t-104.5 -3t-100 -2.5t-80.5 -1q-10 0 -15 6.5t-5 14.5v4l101 241q8 27 30 35t44 8q176 0 345.5 -6t344.5 -6q11 0 22.5 -7t11.5 -17q0 -1 -2 -7l-317 -692q0 -2 5.5 -3t14 -2t17 -1 h14.5q63 0 122 3t119 3q11 0 19 -5t8 -20q0 -2 -2 -2l-126 -263q-9 -19 -32 -30t-56 -16.5t-73.5 -7t-83.5 -1.5h-355z" />
<glyph unicode="{" horiz-adv-x="842" d="M166 929q57 9 97 40t71 76t57 99.5t55 111t65.5 111t89 98t124.5 73t173 36.5h4q9 0 13.5 -3.5t4.5 -14.5q-8 -56 -12 -99t-8 -83t-10 -83t-18 -99q-3 -28 -13 -38t-20 -11q-50 -6 -77.5 -36.5t-45.5 -73.5t-32.5 -92.5t-39 -93.5t-66 -77t-112.5 -43q94 -51 137.5 -111 t43.5 -129q0 -14 -0.5 -27.5t-0.5 -25.5q0 -107 29.5 -166.5t81.5 -85.5q7 -2 12.5 -8.5t5.5 -21.5q0 -4 -0.5 -9t-1.5 -10q-9 -42 -17.5 -74.5t-16.5 -62.5t-16.5 -62.5t-18.5 -74.5q-3 -11 -8.5 -15t-13.5 -4q-2 0 -3 0.5t-3 0.5q-81 13 -161.5 51.5t-144.5 106t-104 165 t-40 229.5q0 14 0.5 28t0.5 28q0 38 -11 67t-30 49.5t-45 33t-55 17.5q-14 2 -21 6.5t-7 21.5q0 18 3 43.5t7.5 53.5t10 55.5t10 49.5t7.5 36l3 14q6 20 21.5 24.5t45.5 8.5z" />
<glyph unicode="|" horiz-adv-x="595" d="M193 846q15 146 25 291t21 295q2 33 6.5 45.5t22.5 16.5q84 6 166 13.5t167 18.5q8 0 9.5 -2.5t1.5 -7.5l-130 -1502v-23q0 -9 -6.5 -14.5t-33.5 -12.5l-222 -56q-11 -4 -29 -10t-35 -6q-14 0 -24.5 7t-10.5 24v6q7 108 14.5 209.5t15.5 209.5t18.5 229t23.5 269z" />
<glyph unicode="}" horiz-adv-x="842" d="M850 909q29 -4 43.5 -8.5t14.5 -24.5l-1 -15.5t-2.5 -39.5t-4.5 -55t-7 -63t-9 -61.5t-11 -51.5q-4 -20 -12.5 -26.5t-24.5 -7.5q-57 -16 -101 -76.5t-68 -172.5q-15 -77 -48 -139.5t-78.5 -112t-101 -87t-115 -64t-120 -42t-116.5 -21.5q-2 0 -3 -0.5t-3 -0.5 q-17 0 -17 19q0 20 0.5 37.5t0.5 34.5q0 31 -0.5 55t-0.5 60q0 20 1 42.5t4.5 42t10 34t18.5 17.5q34 21 64 47t55.5 62t45.5 86t34 119q17 69 63.5 129.5t134.5 111.5q-57 8 -91 30t-52.5 52.5t-25.5 67t-10 74.5t-5.5 73.5t-13 65t-32 49t-62.5 24.5q-8 2 -14.5 8.5 t-6.5 23.5q0 4 0.5 8t1.5 9q3 51 8 90.5t11.5 76.5t14 76.5t15.5 90.5q2 11 8 14.5t14 3.5h5q104 -7 172 -37.5t110.5 -75.5t66 -101t38.5 -114.5t26.5 -115t31.5 -102.5t53 -78t91 -41z" />
<glyph unicode="~" horiz-adv-x="1084" d="M723 871q19 -26 35.5 -37t38.5 -11q31 0 44.5 16.5t19 37t8.5 37t12 16.5q2 0 16.5 0.5t35.5 1.5t46 2t47 2.5t38.5 2t20.5 0.5q8 0 17 -4t9 -15q0 -72 -25.5 -145.5t-72 -133.5t-111.5 -97.5t-144 -37.5q-32 0 -63.5 6t-63 22.5t-63.5 46t-65 77.5q-17 24 -35.5 30.5 t-44.5 6.5q-24 0 -39 -10t-24 -26t-12.5 -35.5t-3.5 -38.5q0 -8 -8 -15.5t-21 -7.5q-32 0 -51.5 -0.5t-36 -1t-35 -1t-48.5 -0.5q-11 0 -20.5 4t-9.5 13q0 94 27 171.5t73.5 132.5t108.5 85.5t133 30.5q40 0 74.5 -3t67 -15t63 -37t62.5 -70z" />
<glyph unicode="&#xa1;" horiz-adv-x="550" d="M150 364q32 156 62.5 311.5t56.5 314.5q2 32 6.5 45.5t22.5 16.5q39 7 77 15t80 19q8 0 9.5 -2.5t1.5 -7.5l10 -988q-3 -34 -7 -46t-22 -16q-85 -20 -172 -44.5t-184 -48.5q-3 -1 -9 -1q-11 0 -11 10q0 1 4 24.5t10.5 60.5t14.5 83t17 92.5t17.5 89t15.5 72.5zM185 1192 q3 43 4.5 66t2.5 34.5t1 14.5t0.5 4.5t1 6t1.5 19t3 42.5t6 77q2 33 6.5 45.5t22.5 16.5q85 17 178 35.5t180 47.5q3 1 9 1q3 -6 8 -8l3 -2l-22 -274q-3 -33 -7.5 -46t-21.5 -16q-85 -16 -172 -35t-184 -38q-3 -1 -9 -1q-11 0 -11 10z" />
<glyph unicode="&#xa2;" horiz-adv-x="1087" d="M101 488q0 125 43 236t119.5 196t182 139t230.5 66l9 114q2 33 4.5 46t14.5 17q23 0 41.5 0.5t36 1t37 1t44.5 0.5q10 0 19.5 -7.5t9.5 -33.5l-13 -148q55 -10 94 -24.5t64.5 -28.5t37.5 -24t12 -11q0 -6 -4.5 -33.5t-10 -64t-10 -75t-4.5 -66.5q0 -5 -3 -11t-16 -6 q-10 0 -26.5 5.5t-40 13.5t-53 16t-65.5 13l-51 -605q49 6 89 20t90 42q2 1 8 1q5 0 7.5 -5t2.5 -19v-77.5t-0.5 -87t-1.5 -70.5t-2 -29q-48 -32 -103 -48t-115 -23l-9 -114q-1 -12 -1 -19t-1.5 -12.5t-6 -9.5t-15.5 -9l-82 -7h-75q-8 0 -13.5 6.5t-5.5 23.5q0 37 4 71.5 t6 67.5q-103 13 -190.5 60t-151.5 121.5t-100 173.5t-36 216zM653 800q-79 -36 -123.5 -114.5t-44.5 -180.5q0 -87 30 -157.5t91 -107.5q3 41 7 90.5t8.5 103t9 108t9.5 105.5z" />
<glyph unicode="&#xa3;" horiz-adv-x="1113" d="M286 -58q-6 0 -8 1q-23 -1 -41 -1h-31q-60 0 -89.5 5.5t-29.5 22.5q0 8 18.5 32t46 54.5t59.5 62.5t59 56q9 99 22 224.5t28 258.5h-103q-54 0 -78 4.5t-24 18.5q0 4 8 21.5t20.5 42t27 52.5t27.5 52.5t22.5 42.5t11.5 22h122l14 209q11 95 39 178.5t79.5 146t131 98.5 t192.5 36q69 0 133 -14.5t112.5 -33t78 -37t29.5 -25.5q0 -5 -2 -9.5t-5 -11.5q-27 -53 -43 -91.5t-25.5 -63.5t-15.5 -36.5t-13 -11.5q1 0 -5 2q-42 21 -84 34.5t-85 13.5q-45 0 -77.5 -28t-51.5 -106q-7 -57 -13.5 -122t-10.5 -128h261q8 0 15.5 -5.5t7.5 -18.5 q0 -5 -12 -36t-34 -81l-36 -81q-7 -15 -14.5 -23t-30.5 -8h-173q-15 -121 -27.5 -235.5t-21.5 -202.5q67 3 128.5 5t111.5 2.5t86 1t52 0.5q8 0 18 -6t10 -23q0 -8 -9 -28.5t-24 -49.5t-34 -64.5t-40 -74.5q-7 -17 -16.5 -25.5t-38.5 -8.5q-3 0 -37 -0.5t-86.5 -1.5 t-119 -2.5t-134.5 -2.5t-133 -2t-115 -1z" />
<glyph unicode="&#xa4;" horiz-adv-x="1277" d="M175 819q0 91 30.5 167t84.5 139l-37 40q-17 19 -27.5 32.5t-9.5 25.5q0 11 12 19q3 2 22 17.5t41.5 35t43 36.5t27.5 22q9 9 20 9q9 0 14 -4l6 -4l80 -87q60 28 125.5 42.5t134.5 14.5q63 0 117.5 -13.5t102.5 -37.5l75 81q8 8 20 8q11 0 20 -9q7 -5 27.5 -22t43 -36.5 t41.5 -35t22 -17.5q12 -8 12 -19q0 -19 -24 -44l-16 -17q-17 -17 -42 -45q40 -58 61 -124t21 -138q0 -91 -23.5 -165.5t-66.5 -134.5l79 -87q8 -9 12 -19t4 -19q0 -14 -7 -21q-19 -23 -41 -43t-41 -35t-32 -24t-14 -9q-17 0 -47.5 27.5t-82.5 82.5q-130 -70 -299 -70 q-63 0 -115.5 11t-100.5 31l-13 -14q-62 -66 -89 -68q-7 0 -12 5q-6 3 -25.5 19t-41.5 36t-39 40t-17 32q0 9 4 19t12 19l44 50q-48 63 -72 140t-24 161zM712 1069q-50 0 -89 -22.5t-66 -58.5t-41 -81.5t-14 -91.5q0 -42 12 -81.5t36.5 -69.5t62.5 -48.5t89 -18.5t89.5 21.5 t64.5 56.5t39.5 79.5t13.5 89.5q0 43 -12 83.5t-36.5 72t-61.5 50.5t-87 19z" />
<glyph unicode="&#xa5;" horiz-adv-x="1263" d="M437 724q-21 46 -45.5 99.5t-50 108t-50.5 108t-46.5 99t-38.5 80t-26 52.5l-2 7q-1 3 -1 17q0 8 2 17.5t8 19.5q7 4 21.5 10.5t34 14.5t42 17.5t45.5 18.5l115 46q13 6 24 6q8 0 17.5 -4.5t21.5 -16.5l231 -448l6 15l99 183q19 34 37.5 67t33 59t24.5 42t12 16l343 86 q12 3 20 3q23 0 23 -21q-1 -5 -2 -13.5t-6 -18.5l-185 -345l-170 -312q35 1 61.5 1.5t38.5 0.5q13 -1 24 -5q9 -4 16.5 -10.5t7.5 -19.5t-3 -39t-7 -52l-9 -67q-1 -6 -2.5 -10t-6.5 -7t-14.5 -4.5t-25.5 -1.5q-32 -2 -75.5 -2h-106.5l-14 -85q61 2 106 3t62 1q13 -1 24 -5 q9 -4 16.5 -10.5t7.5 -19.5t-3 -39t-7 -52l-9 -67q-1 -6 -2.5 -10t-6.5 -7t-14.5 -4.5t-25.5 -1.5q-32 -2 -76.5 -2h-109.5l-20 -118q-3 -17 -5.5 -27.5t-6 -18t-9 -12.5t-14.5 -10l-264 -69q-16 -8 -33.5 -13t-33.5 -5q-17 0 -29 7.5t-12 24.5v4q3 48 11 109t18 124h-82 q-76 0 -111.5 5t-35.5 19q0 8 6.5 24.5t17.5 36t25 41t30 39t32.5 29t31.5 12.5l121 2q0 6 2 8l12 83h-83q-76 0 -111.5 5t-35.5 19q0 8 6.5 24.5t17.5 36t25 41t30 39t32.5 29t31.5 12.5z" />
<glyph unicode="&#xa6;" horiz-adv-x="571" d="M180 834q6 92 10 145.5t6 82.5t3 40.5t2 20t2.5 21t4 44t7 89t12.5 155.5q2 32 6.5 45.5t22.5 16.5q84 14 166 27.5t167 34.5l11 -10l-59 -637v-23q0 -8 -7 -14.5t-33 -12.5l-218 -50q-11 -1 -31 -6.5t-37 -5.5q-14 0 -24.5 7t-10.5 24v6zM103 -84q6 92 10 145.5t6 82.5 t3 40.5t2 20t2.5 21t4 44t7 89t12.5 155.5q2 33 6.5 45.5t22.5 16.5q84 16 166 31.5t167 40.5l11 -10l-59 -627v-23q0 -10 -6.5 -14.5t-33.5 -12.5l-222 -66q-11 -3 -27.5 -9.5t-33.5 -6.5q-16 0 -27 6t-11 25v6z" />
<glyph unicode="&#xa7;" horiz-adv-x="1061" d="M201 141q0 1 -1.5 2.5t-1.5 3.5q0 10 12 10q8 0 18 -7q55 -38 119 -62t133 -24q15 0 33.5 3t34 9.5t26.5 17.5t11 28q0 24 -16.5 46.5t-40.5 36.5q-71 39 -143.5 81.5t-131 96t-95.5 123t-37 163.5q0 103 50.5 179t144.5 107q-11 22 -21 48t-18 53.5t-13 55t-5 53.5 q0 58 26 107.5t75 86.5t119.5 58t159.5 21q5 0 23.5 -1.5t44.5 -5t55 -10t55 -16.5t45 -23.5t25 -31.5q19 -63 35 -124t36 -128q1 -2 1 -8q0 -14 -16 -14q-8 0 -13 5q-28 22 -57 43.5t-59.5 38t-63 27t-66.5 10.5q-18 0 -36.5 -3t-32.5 -10t-23 -19t-9 -31q0 -65 61 -102 q95 -59 162.5 -109t113 -92.5t71.5 -79t39.5 -67.5t17 -58.5t3.5 -52.5q0 -53 -15.5 -98.5t-42.5 -81.5t-63 -62t-76 -40q32 -48 45 -95t13 -89q0 -68 -30 -122.5t-78.5 -93.5t-111 -60t-128.5 -21q-77 0 -148 7.5t-138 43.5zM624 703q-29 14 -58 22.5t-61 8.5 q-18 0 -36.5 -3t-32.5 -10t-23 -19t-9 -30q0 -19 6.5 -39t17.5 -34q45 -32 95.5 -50.5t104.5 -18.5q15 0 33.5 3t34.5 9.5t27 18t11 28.5q0 18 -10.5 35.5t-24.5 30.5l-26 18z" />
<glyph unicode="&#xa8;" horiz-adv-x="1189" d="M89 1228q3 57 4 82.5t1.5 36.5t0.5 15t0.5 18t2 45t4.5 96q2 30 7 41.5t20 13.5q78 0 165.5 1t162.5 1q10 0 14 -5.5t4 -20.5l-25 -278q-3 -29 -7 -40.5t-19 -13.5q-76 -1 -156.5 -1.5t-168.5 -0.5q-5 0 -7.5 1t-2.5 6v3zM715 1226q3 63 4.5 93.5t2 43.5t0 17t0 15.5 t2 38.5t5.5 86q2 29 6 40.5t19 13.5q79 0 166 0.5t162 1.5q8 0 13.5 -4t5.5 -16l-24 -283q-4 -30 -7.5 -41t-20.5 -13q-77 -1 -158.5 -2t-170.5 -1q-3 0 -4 0.5t-1 5.5v4z" />
<glyph unicode="&#xa9;" horiz-adv-x="1640" d="M824 103q89 0 171.5 20.5t154 58.5t130.5 93t101 124.5t65 152t23 176.5q0 109 -37.5 205t-105 167t-161.5 112t-206 41q-129 0 -245 -43t-203 -122t-138.5 -189.5t-51.5 -246.5q0 -110 34.5 -209.5t99.5 -175t158 -120t211 -44.5zM788 -63q-153 0 -274 58t-206 156.5 t-130 228.5t-45 273q0 177 67 321t181 247t265 159t319 56q147 0 269 -53.5t210 -146t137 -217.5t49 -267q0 -122 -30 -230.5t-85 -199t-131.5 -162t-170.5 -121t-201.5 -76t-223.5 -26.5zM441 646q0 109 38 204t105.5 165.5t159.5 111t200 40.5q57 0 100.5 -7.5t75.5 -19 t53.5 -25t35.5 -25.5v-5q0 -10 1.5 -35.5t4 -57.5t4 -65t1.5 -57q0 -5 -3 -9t-18 -4q-12 0 -32.5 13.5t-49 30t-65.5 30.5t-81 14q-53 0 -96.5 -21.5t-74.5 -59.5t-47.5 -90.5t-16.5 -114.5q0 -50 12 -94.5t35.5 -78.5t58.5 -54t82 -20q37 0 65.5 2.5t53 8.5t48.5 16t51 25 q8 0 11.5 -2t3.5 -16v-57t-0.5 -63t-1 -51.5t-1.5 -21.5q-30 -19 -64 -31t-70 -18.5t-72.5 -9t-70.5 -2.5q-92 0 -171.5 33t-138.5 93t-92.5 143.5t-33.5 184.5z" />
<glyph unicode="&#xaa;" horiz-adv-x="987" d="M942 745q0 -23 6 -37.5t13.5 -24t13.5 -15t6 -9.5q0 -11 -23 -20l-208 -90q-1 -1 -5 -1q-7 0 -13.5 11t-12.5 27.5t-11 35.5t-9 36q-49 -57 -106.5 -83t-112.5 -26q-66 0 -128 28.5t-110 82t-77 129t-29 169.5q0 111 32 203t87.5 157.5t128.5 102t156 36.5 q58 0 109.5 -23.5t99.5 -60.5q4 24 5 38t4 21.5t11 10t26 4.5q57 8 112 14.5t116 9.5zM710 1039q4 28 7.5 55t4.5 50l3 50q-11 9 -26 19.5t-32 19t-36 14.5t-38 6q-42 0 -70.5 -27.5t-46 -67t-25 -84t-7.5 -78.5q0 -123 32.5 -180t90.5 -57q23 0 51.5 13t58.5 36z" />
<glyph unicode="&#xab;" horiz-adv-x="2032" d="M1004 324q8 -5 8 -11q0 -5 -3 -12q-44 -75 -74.5 -154.5t-62.5 -156.5q-7 -19 -26 -19q-8 0 -16 3t-22 9l-640 382q-32 16 -42 26t-10 30q0 76 -0.5 154t-6.5 162q0 2 -0.5 3t-0.5 2l2 7q1 5 5 8.5t7 3.5q34 16 87.5 37.5t119.5 46.5t142 53t154.5 56.5t156.5 57.5 t149 56q31 9 45 9q13 0 16 -16q2 -77 5.5 -161.5t19.5 -159.5q0 -12 -3.5 -17t-9.5 -6l-446 -162q11 -6 43.5 -23t76.5 -40t94.5 -48.5t96.5 -49.5t82 -42.5t53 -27.5zM1994 324q8 -5 8 -11q0 -5 -3 -12q-44 -75 -74.5 -154.5t-62.5 -156.5q-7 -19 -26 -19q-8 0 -16 3t-22 9 l-640 382q-32 16 -42 26t-10 30q0 76 -0.5 154t-6.5 162q0 2 -0.5 3t-0.5 2l2 7q1 5 5 8.5t7 3.5q34 16 87.5 37.5t119.5 46.5t142 53t154.5 56.5t156.5 57.5t149 56q31 9 45 9q13 0 16 -16q2 -77 5.5 -161.5t19.5 -159.5q0 -12 -3.5 -17t-9.5 -6l-446 -162q11 -6 43.5 -23 t76.5 -40t94.5 -48.5t96.5 -49.5t82 -42.5t53 -27.5z" />
<glyph unicode="&#xac;" horiz-adv-x="1059" d="M256 517q-78 0 -112.5 4.5t-34.5 19.5q0 8 6.5 24.5t17.5 36t25 41t30 39t32.5 29t31.5 12.5l352 10q54 1 104 2.5t91 2.5t71 2t44 1q42 0 59 -4.5t17 -30.5q0 -7 -0.5 -13.5t-0.5 -11.5l-5 -112q0 -12 -1.5 -40.5t-3.5 -64.5t-5 -75.5t-5 -73t-3.5 -57t-1.5 -27.5 q-2 -13 -6 -24q-4 -9 -11.5 -16.5t-20.5 -7.5q-12 0 -29.5 1.5t-38.5 4t-44 6t-45 7.5q-10 2 -15 7t-5 25q-1 26 2.5 54.5t5.5 56.5l13 178h-90.5t-78.5 -1z" />
<glyph unicode="&#xae;" horiz-adv-x="1640" d="M815 357q-1 -5 -2.5 -10.5t-7.5 -7.5q-8 -4 -25.5 -10.5t-39.5 -14t-45.5 -15.5t-43.5 -14.5t-33 -10.5t-14 -4q-8 0 -14.5 4t-6.5 15q0 18 2.5 58t6 93.5t9 117.5t11 130.5t11 132t10.5 123.5q0 1 -3 1q-10 0 -42 -6t-71 -13q-13 0 -13 7q0 2 1 3l94 164q66 14 149 27.5 t189 13.5q60 0 117.5 -12t101.5 -39t71 -71.5t27 -109.5q0 -35 -12.5 -63.5t-32 -52t-43 -41.5t-44.5 -31t-37 -21t-21 -11q0 -1 2 -4.5t8 -13.5t17.5 -29t30.5 -51.5t47 -80.5t68 -116q10 -8 22.5 -10t23.5 -2.5t19 -1.5t8 -7q0 -5 -9.5 -11t-22.5 -12.5t-26 -12.5t-20 -9 q-14 -6 -28.5 -12.5t-32 -14.5t-39 -18.5t-48.5 -24.5q-7 -5 -13 -6t-11 -1q-11 0 -18.5 5t-12.5 11.5t-8 13.5t-5 12l-173 365zM850 729q30 0 62 15.5t58 38t42.5 48.5t16.5 48q0 100 -101 100q-11 0 -20.5 -1t-17.5 -2l-17 -3zM824 103q89 0 171.5 20.5t154 58.5t130.5 93 t101 124.5t65 152t23 176.5q0 109 -37.5 205t-105 167t-161.5 112t-206 41q-129 0 -245 -43t-203 -122t-138.5 -189.5t-51.5 -246.5q0 -110 34.5 -209.5t99.5 -175t158 -120t211 -44.5zM788 -63q-153 0 -274 58t-206 156.5t-130 228.5t-45 273q0 177 67 321t181 247t265 159 t319 56q147 0 269 -53.5t210 -146t137 -217.5t49 -267q0 -122 -30 -230.5t-85 -199t-131.5 -162t-170.5 -121t-201.5 -76t-223.5 -26.5z" />
<glyph unicode="&#xb0;" horiz-adv-x="1007" d="M587 558q-96 0 -179.5 29t-145 84.5t-96.5 136t-35 182.5q0 93 37 176.5t102 146t153.5 99t192.5 36.5q91 0 170.5 -29.5t138 -83.5t92 -130.5t33.5 -169.5q0 -89 -32 -174.5t-92 -153t-146 -108.5t-193 -41zM756 991q1 8 1.5 17t0.5 18q0 30 -7 63.5t-23 61t-42.5 45.5 t-66.5 18q-53 0 -92 -19.5t-64.5 -51t-38.5 -70.5t-13 -79q0 -31 6.5 -65.5t23 -63.5t44.5 -48.5t72 -20.5q48 0 83.5 17.5t59.5 45.5t37.5 62.5t18.5 69.5z" />
<glyph unicode="&#xb1;" horiz-adv-x="1045" d="M423 660q-51 -1 -89.5 -1h-61.5q-60 0 -89.5 5.5t-29.5 22.5q0 9 5.5 37.5t13 64t15 72t12.5 61.5q2 12 15.5 22t35.5 11l201 3l2 21q5 68 7 117t6.5 80t14.5 45.5t31 14.5q2 0 4.5 -0.5t5.5 -0.5q6 0 18.5 0.5t28.5 1t35 1t37 0.5l95 3q14 -4 21 -10.5t7 -24.5v-3 t-0.5 -7t-1.5 -19l-3 -39t-5.5 -68.5t-8.5 -106.5l17 1q37 1 72.5 2t65 1.5t51 1t30.5 0.5q8 0 18 -6t10 -23q-1 -2 -5 -39t-11 -101l-11 -97q-6 -14 -11.5 -20.5t-16.5 -9.5t-31.5 -3.5t-55.5 -1.5l-146 -3l-13 -146q-3 -38 -7.5 -62.5t-10.5 -38.5t-14.5 -19.5t-19.5 -5.5 q-17 0 -46 0.5t-61.5 1.5t-64.5 1.5t-54 0.5q-12 2 -19.5 12t-7.5 30v6zM239 7q-78 0 -112.5 4.5t-34.5 19.5q0 8 6.5 24.5t17.5 36t25 41t30 39t32.5 29t31.5 12.5l352 10q12 0 40.5 0.5t64.5 1t75.5 1.5t73 1.5t57 1t27.5 0.5q13 -1 24 -5q9 -4 16.5 -10.5t7.5 -19.5 t-3 -39t-7 -52l-9 -67q-1 -6 -2.5 -10t-6.5 -7t-14.5 -4.5t-25.5 -1.5h-122h-52t-53 -0.5t-50.5 -0.5h-43.5z" />
<glyph unicode="&#xb2;" horiz-adv-x="734" d="M696 1126q-5 -11 -16.5 -31.5t-27.5 -47t-35 -57t-38 -60.5l-98 -155q0 -1 1 -1h2q10 0 41.5 3t70 7t77 7t61.5 3q32 0 32 -14q0 -8 -4.5 -17t-4.5 -10l-90 -168q-1 0 -1.5 -2.5t-1.5 -2.5q-12 -12 -22.5 -13.5t-18.5 -2.5q-79 -1 -132 -2t-94 -1.5t-77 -0.5h-81 q-60 0 -83.5 9.5t-23.5 27.5q0 12 8.5 27.5t21.5 35.5l118 167q90 123 141.5 203t51.5 125q0 25 -10.5 44t-28.5 32.5t-42.5 20.5t-52.5 7q-35 0 -72.5 -11t-72.5 -34q-14 -8 -20 -8q-7 0 -9 6t-2 11q0 24 6.5 56.5t14 62t14 51.5t6.5 25q1 0 16 11.5t48 26t85.5 26 t129.5 11.5q45 0 90 -18.5t81 -51t58.5 -76t22.5 -94.5q0 -30 -9.5 -62t-29.5 -65z" />
<glyph unicode="&#xb3;" horiz-adv-x="747" d="M484 542q-26 -3 -49 -3q-34 0 -63.5 4.5t-59 12.5t-59.5 20t-64 26q-11 3 -16 22.5t-8.5 47t-6.5 59t-9 57.5q0 23 19 23q4 0 5 -1q21 -13 43.5 -27.5t48 -26.5t55 -19.5t64.5 -7.5q45 0 68 19t23 65q0 12 -3 26t-12.5 25.5t-27 19.5t-47.5 8h-109q0 3 2 17t4.5 33.5 t6 41.5t6 41t4.5 32t2 15q4 20 7.5 27t7.5 7q14 0 27 -3t27 -3q38 0 59 24.5t21 62.5q0 29 -17.5 53t-57.5 24q-45 0 -90 -10t-80 -21q1 5 1.5 13t0.5 17t-0.5 19.5t-0.5 21.5q0 18 1.5 37t5.5 35t12 28t22 16q34 10 58.5 16t46 9.5t42.5 4.5t48 1q50 0 101 -13.5t92.5 -41 t67.5 -70.5t26 -101q0 -39 -10.5 -70.5t-26.5 -56t-35 -43t-35 -31.5q20 -9 41 -24.5t38.5 -38.5t29 -55.5t11.5 -75.5q0 -51 -19.5 -101t-54 -90t-82 -66.5t-102.5 -30.5z" />
<glyph unicode="&#xb4;" horiz-adv-x="635" d="M376 1392q-44 -61 -73.5 -100.5t-48.5 -62.5t-30 -32t-18 -9q-6 0 -10 4q-21 14 -38 24.5t-32 19t-30.5 16.5t-34.5 17q-14 8 -14 21q1 8 3.5 19t8.5 28l185 537q5 14 10 19t11 5q5 0 10 -2.5t10 -5.5q78 -53 155.5 -90.5t153.5 -77.5q18 -11 18 -27t-17 -41 q-39 -45 -64.5 -74.5t-48 -56.5t-46.5 -57t-60 -74z" />
<glyph unicode="&#xb5;" horiz-adv-x="1310" d="M159 346q30 300 44.5 456.5t15.5 167.5q3 32 7.5 45t22.5 17q47 9 89.5 16.5t84 16t84.5 18.5t91 24q2 0 4 0.5t4 0.5q12 0 12 -10q-4 -34 -7.5 -64t-7 -61t-7 -67.5t-8.5 -84t-11.5 -109.5t-15.5 -144q-6 -51 -11 -104t-7 -98q0 -76 29 -108.5t75 -32.5q33 0 69 15.5 t66.5 41.5t51 60t23.5 72q7 99 12.5 165.5t9.5 112t7 76.5t5.5 59.5t4.5 61t4 81.5q3 33 7.5 45.5t22.5 16.5q91 18 186 36.5t186 47.5q8 0 9.5 -2.5t1.5 -7.5l-94 -998q-2 -17 -3.5 -28t-4.5 -17.5t-8 -10t-14 -6.5q-42 -12 -87 -24t-91 -25t-91 -28.5t-88 -35.5 q-2 -1 -9 -1q-8 0 -9.5 3t-1.5 8v6t1.5 20t5.5 43t11 76q-20 -21 -49.5 -39t-62.5 -31t-67.5 -20t-65.5 -7q-39 0 -67.5 12.5t-36.5 40.5l-36 -292q-1 -3 -1 -13v-9q0 -9 -6 -14t-33 -12l-231 -31q-11 -2 -28.5 -3.5t-32.5 -1.5q-12 0 -22 6t-10 22q0 6 1 7q19 157 39.5 315 t37.5 328z" />
<glyph unicode="&#x3bc;" horiz-adv-x="1310" d="M159 346q30 300 44.5 456.5t15.5 167.5q3 32 7.5 45t22.5 17q47 9 89.5 16.5t84 16t84.5 18.5t91 24q2 0 4 0.5t4 0.5q12 0 12 -10q-4 -34 -7.5 -64t-7 -61t-7 -67.5t-8.5 -84t-11.5 -109.5t-15.5 -144q-6 -51 -11 -104t-7 -98q0 -76 29 -108.5t75 -32.5q33 0 69 15.5 t66.5 41.5t51 60t23.5 72q7 99 12.5 165.5t9.5 112t7 76.5t5.5 59.5t4.5 61t4 81.5q3 33 7.5 45.5t22.5 16.5q91 18 186 36.5t186 47.5q8 0 9.5 -2.5t1.5 -7.5l-94 -998q-2 -17 -3.5 -28t-4.5 -17.5t-8 -10t-14 -6.5q-42 -12 -87 -24t-91 -25t-91 -28.5t-88 -35.5 q-2 -1 -9 -1q-8 0 -9.5 3t-1.5 8v6t1.5 20t5.5 43t11 76q-20 -21 -49.5 -39t-62.5 -31t-67.5 -20t-65.5 -7q-39 0 -67.5 12.5t-36.5 40.5l-36 -292q-1 -3 -1 -13v-9q0 -9 -6 -14t-33 -12l-231 -31q-11 -2 -28.5 -3.5t-32.5 -1.5q-12 0 -22 6t-10 22q0 6 1 7q19 157 39.5 315 t37.5 328z" />
<glyph unicode="&#xb6;" horiz-adv-x="1321" d="M650 20q-3 -18 -16 -26t-45 -16q-4 -1 -19.5 -2.5t-37.5 -4t-47.5 -5t-48 -4.5t-39 -3.5t-21.5 -1.5q-13 0 -26 6t-13 25q0 6 1 8l113 711q-69 23 -125 56.5t-95 76.5t-60 96t-21 116q0 74 25 132.5t68 102t101 74t124 49.5t137 27.5t140 8.5t149 -5.5t154 -13t133 -15.5 t86 -14q22 -7 37.5 -11.5t25 -10.5t13.5 -15.5t5 -27.5q1 -19 2 -45t1.5 -54t1.5 -55t1.5 -48.5t1 -34.5l0.5 -13q-5 -18 -25 -18q-32 0 -131 3q-15 -90 -34 -206t-43 -267q-17 -119 -32 -227q-6 -47 -13 -95.5t-13.5 -94.5t-12 -87t-9.5 -71q-2 -17 -16 -26t-45 -16 q-5 -1 -35 -4.5t-65 -7t-65.5 -6.5t-37.5 -3q-14 0 -26 7t-12 27l110 671q-20 -2 -40 -3t-40 -1h-21q-14 -76 -25 -148.5t-21 -141.5q-7 -47 -14.5 -95.5t-15 -95t-14 -87t-10.5 -70.5z" />
<glyph unicode="&#xb7;" horiz-adv-x="561" d="M156 815q2 47 3 74.5t1.5 42.5t0.5 21v11.5t0.5 13.5t1.5 26.5t3 51t5 86.5q2 33 6.5 45.5t22.5 15.5q88 0 184 0.5t181 1.5q9 0 15 -5t6 -19l-28 -314q-4 -33 -7.5 -45.5t-22.5 -14.5q-85 -1 -174.5 -2t-186.5 -1q-6 0 -8.5 1t-2.5 6v4z" />
<glyph unicode="&#xb8;" horiz-adv-x="545" d="M496 -386q-9 -47 -34 -85.5t-60 -66t-78.5 -43t-89.5 -15.5q-42 0 -88.5 6t-81.5 26l2 -1q-1 1 -1 8q0 11 1.5 30t4 40.5t6 41.5t7.5 33h5q6 0 6 -2h-1q16 -7 30 -11.5t29.5 -7.5t34 -4t43.5 -1q42 0 65 25t23 57q0 30 -18.5 49.5t-50.5 19.5q-55 0 -94 4t-54 4 q-8 0 -9.5 4t-1.5 9q5 10 11.5 31.5t13.5 48t13.5 55.5t12 53.5t9 41t3.5 19.5h19q17 0 44 -0.5t53 -0.5h63l-48 -141q17 2 31.5 3.5t27.5 1.5q51 0 81.5 -16.5t47 -42.5t22 -59t5.5 -67q0 -12 -1 -23.5t-3 -23.5z" />
<glyph unicode="&#xb9;" horiz-adv-x="514" d="M229 1349q1 23 3.5 31.5t14.5 11.5l220 53q5 1 9 1.5t7 0.5q9 0 12.5 -5.5t3.5 -21.5l-37 -783q-2 -29 -8.5 -39.5t-22.5 -15.5l-198 -59q-5 -1 -9 -1.5t-6 -0.5q-11 0 -19 6t-8 23v7t1 30.5t3.5 74.5t6.5 138.5t10.5 222.5t16.5 326z" />
<glyph unicode="&#xba;" horiz-adv-x="1029" d="M575 546q-110 0 -193.5 36t-139.5 95.5t-84 137t-28 161.5t27.5 159.5t76.5 135t117.5 99.5t151.5 54q12 1 12 6q0 8 -2 16t-2 13q0 8 3.5 11t7.5 3q148 0 252.5 -34t170 -92.5t95.5 -138t30 -170.5q0 -117 -39 -208.5t-106.5 -154.5t-157.5 -96t-192 -33zM430 985 q0 -42 9 -83.5t29.5 -75t54.5 -54t84 -20.5q53 3 87 33t53.5 72t27 89t7.5 85q0 40 -12 79t-35.5 69t-58 48.5t-80.5 18.5q-47 0 -78.5 -28t-51 -68.5t-28 -85.5t-8.5 -79z" />
<glyph unicode="&#xbb;" horiz-adv-x="2011" d="M1113 324q17 9 54.5 28t84.5 42.5t98 49.5t96 48.5t78.5 39.5t44.5 23l-440 162q-12 1 -12 23q18 75 25.5 159.5t13.5 161.5q3 16 16 16t45 -9q70 -27 147 -55.5t154.5 -57.5t152 -56.5t139.5 -53t117.5 -47t85.5 -37.5q3 0 7 -3.5t5 -8.5l1 -7q0 -1 -0.5 -2t-0.5 -3 q-9 -84 -13 -162t-7 -154q0 -20 -11 -30t-43 -26l-656 -382q-14 -6 -22 -9t-16 -3q-11 0 -16 4.5t-9 14.5q-29 78 -57.5 157t-67.5 154q-2 6 -2 12q0 4 1.5 6.5t6.5 4.5zM123 324q17 9 54.5 28t84.5 42.5t98 49.5t96 48.5t78.5 39.5t44.5 23l-440 162q-12 1 -12 23 q18 75 25.5 159.5t13.5 161.5q3 16 16 16t45 -9q70 -27 147 -55.5t154.5 -57.5t152 -56.5t139.5 -53t117.5 -47t85.5 -37.5q3 0 7 -3.5t5 -8.5l1 -7q0 -1 -0.5 -2t-0.5 -3q-9 -84 -13 -162t-7 -154q0 -20 -11 -30t-43 -26l-656 -382q-14 -6 -22 -9t-16 -3q-11 0 -16 4.5 t-9 14.5q-29 78 -57.5 157t-67.5 154q-2 6 -2 12q0 4 1.5 6.5t6.5 4.5z" />
<glyph unicode="&#xbc;" horiz-adv-x="1712" d="M217 1349q1 23 3.5 31.5t14.5 11.5l220 53q5 1 9 1.5t7 0.5q9 0 12.5 -5.5t3.5 -21.5l-37 -783q-2 -29 -8.5 -39.5t-22.5 -15.5l-198 -59q-5 -1 -9 -1.5t-6 -0.5q-11 0 -19 6t-8 23v7t1 30.5t3.5 74.5t6.5 138.5t10.5 222.5t16.5 326zM740 943q61 132 117 264t116 269 q13 29 20 40.5t21 11.5h7q54 -22 106.5 -47.5t105.5 -35.5q6 -2 10.5 -5t4.5 -8v-3l-641 -1414q-4 -9 -6 -17t-4.5 -14t-6.5 -9.5t-12 -3.5q-12 0 -26 7l-101 42q-8 3 -24 8.5t-32.5 13t-29 17.5t-12.5 23q0 9 5 19q46 97 88.5 190.5t87 194t94.5 212t112 245.5zM1678 290 q-8 -35 -15 -73q-2 -10 -2.5 -14.5t-9.5 -6t-32 -1.5t-69 -1l-12 -117q0 -5 -2 -11t-8 -8q-5 -2 -21 -8.5t-38.5 -15t-48 -17.5t-48.5 -17t-41 -13t-24 -5q-9 0 -15.5 4.5t-6.5 18.5q0 30 3 77.5t8 108.5q-54 0 -107.5 -0.5t-99 -0.5t-80 -0.5t-51.5 -0.5q-57 0 -81 4 t-24 18q0 3 1 7.5t5 9.5q6 10 21 35.5t36 60.5t46.5 77t51.5 84l132 219q24 40 43 79t42 71t55 55.5t82 33.5l201 53q5 1 9 1.5t8 0.5q8 0 12 -4t4 -16v-7q-4 -88 -8 -153.5t-8 -126.5t-8 -127t-8 -154q43 1 71 1.5t33 0.5q8 0 15.5 -5.5t7.5 -17.5q0 -5 -1 -7zM1313 401 q7 44 12.5 93t10 99t7.5 100t5 97l-232 -389h197z" />
<glyph unicode="&#xbd;" horiz-adv-x="1747" d="M219 1349q1 23 3.5 31.5t14.5 11.5l220 53q5 1 9 1.5t7 0.5q9 0 12.5 -5.5t3.5 -21.5l-37 -783q-2 -29 -8.5 -39.5t-22.5 -15.5l-198 -59q-5 -1 -9 -1.5t-6 -0.5q-11 0 -19 6t-8 23v7t1 30.5t3.5 74.5t6.5 138.5t10.5 222.5t16.5 326zM742 943q61 132 117 264t116 269 q13 29 20 40.5t21 11.5h7q54 -22 106.5 -47.5t105.5 -35.5q6 -2 10.5 -5t4.5 -8v-3l-641 -1414q-4 -9 -6 -17t-4.5 -14t-6.5 -9.5t-12 -3.5q-12 0 -26 7l-101 42q-8 3 -24 8.5t-32.5 13t-29 17.5t-12.5 23q0 9 5 19q46 97 88.5 190.5t87 194t94.5 212t112 245.5zM1649 563 q-5 -11 -16.5 -31.5t-27.5 -47t-35 -57t-38 -60.5l-98 -155q0 -1 1 -1h2q10 0 41.5 3t70 7t77 7t61.5 3q32 0 32 -14q0 -8 -4.5 -17t-4.5 -10l-90 -168q-1 0 -1.5 -2.5t-1.5 -2.5q-12 -12 -22.5 -13.5t-18.5 -2.5q-79 -1 -132 -2t-94 -1.5t-77 -0.5h-81q-60 0 -83.5 9.5 t-23.5 27.5q0 12 8.5 27.5t21.5 35.5l118 167q90 123 141.5 203t51.5 125q0 25 -10.5 44t-28.5 32.5t-42.5 20.5t-52.5 7q-35 0 -72.5 -11t-72.5 -34q-14 -8 -20 -8q-7 0 -9 6t-2 11q0 24 6.5 56.5t14 62t14 51.5t6.5 25q1 0 16 11.5t48 26t85.5 26t129.5 11.5 q45 0 90 -18.5t81 -51t58.5 -76t22.5 -94.5q0 -30 -9.5 -62t-29.5 -65z" />
<glyph unicode="&#xbe;" horiz-adv-x="1924" d="M470 542q-26 -3 -49 -3q-34 0 -63.5 4.5t-59 12.5t-59.5 20t-64 26q-11 3 -16 22.5t-8.5 47t-6.5 59t-9 57.5q0 23 19 23q4 0 5 -1q21 -13 43.5 -27.5t48 -26.5t55 -19.5t64.5 -7.5q45 0 68 19t23 65q0 12 -3 26t-12.5 25.5t-27 19.5t-47.5 8h-109q0 3 2 17t4.5 33.5 t6 41.5t6 41t4.5 32t2 15q4 20 7.5 27t7.5 7q14 0 27 -3t27 -3q38 0 59 24.5t21 62.5q0 29 -17.5 53t-57.5 24q-45 0 -90 -10t-80 -21q1 5 1.5 13t0.5 17t-0.5 19.5t-0.5 21.5q0 18 1.5 37t5.5 35t12 28t22 16q34 10 58.5 16t46 9.5t42.5 4.5t48 1q50 0 101 -13.5t92.5 -41 t67.5 -70.5t26 -101q0 -39 -10.5 -70.5t-26.5 -56t-35 -43t-35 -31.5q20 -9 41 -24.5t38.5 -38.5t29 -55.5t11.5 -75.5q0 -51 -19.5 -101t-54 -90t-82 -66.5t-102.5 -30.5zM951 943q61 132 117 264t116 269q13 29 20 40.5t21 11.5h7q54 -22 106.5 -47.5t105.5 -35.5 q6 -2 10.5 -5t4.5 -8v-3l-641 -1414q-4 -9 -6 -17t-4.5 -14t-6.5 -9.5t-12 -3.5q-12 0 -26 7l-101 42q-8 3 -24 8.5t-32.5 13t-29 17.5t-12.5 23q0 9 5 19q46 97 88.5 190.5t87 194t94.5 212t112 245.5zM1889 290q-8 -35 -15 -73q-2 -10 -2.5 -14.5t-9.5 -6t-32 -1.5t-69 -1 l-12 -117q0 -5 -2 -11t-8 -8q-5 -2 -21 -8.5t-38.5 -15t-48 -17.5t-48.5 -17t-41 -13t-24 -5q-9 0 -15.5 4.5t-6.5 18.5q0 30 3 77.5t8 108.5q-54 0 -107.5 -0.5t-99 -0.5t-80 -0.5t-51.5 -0.5q-57 0 -81 4t-24 18q0 3 1 7.5t5 9.5q6 10 21 35.5t36 60.5t46.5 77t51.5 84 l132 219q24 40 43 79t42 71t55 55.5t82 33.5l201 53q5 1 9 1.5t8 0.5q8 0 12 -4t4 -16v-7q-4 -88 -8 -153.5t-8 -126.5t-8 -127t-8 -154q43 1 71 1.5t33 0.5q8 0 15.5 -5.5t7.5 -17.5q0 -5 -1 -7zM1524 401q7 44 12.5 93t10 99t7.5 100t5 97l-232 -389h197z" />
<glyph unicode="&#xbf;" horiz-adv-x="1166" d="M855.079 798.109q-68.9873 -36.9932 -131.476 -92.4824q-62.4883 -55.4902 -109.48 -117.979q-46.9912 -62.4883 -74.4863 -124.978q-27.4941 -62.4883 -27.4941 -114.479q0 -55.9902 30.9941 -90.9834q30.9941 -34.9941 101.981 -34.9941q39.9922 0 65.9873 9.49902 q25.9951 9.49805 41.4922 24.4951q15.498 14.9971 21.4961 32.9941q5.99902 17.9961 5.99902 34.9932q0 22.9961 -6.99805 41.9922q-6.99902 18.9971 -6.99902 24.9961q0 7.99805 13.9971 10.998q13.998 2.99902 45.4922 7.99805t83.4844 14.4971 q51.9902 9.49902 127.977 30.4951q28.9951 7.99805 44.9922 10.998q15.9971 2.99902 24.9951 2.99902q10.998 0 18.4961 -14.9971q7.49902 -14.9971 11.498 -35.4941q4 -20.4961 5.49902 -42.4922q1.5 -21.9951 1.5 -35.9932q0 -91.9834 -45.4912 -164.47 q-45.4922 -72.4863 -118.479 -122.478q-72.9873 -49.9912 -164.47 -76.4863q-91.4834 -26.4951 -183.467 -26.4951q-118.979 0 -215.461 36.4932q-96.4814 36.4941 -164.97 93.9834q-68.4873 57.4893 -105.48 128.977q-36.9932 71.4863 -36.9932 140.474 q0 56.9902 19.4961 112.479q19.4971 55.4902 52.9902 108.48q33.4941 52.9902 77.9863 102.981q44.4912 49.9902 93.4824 95.9824q48.9912 45.9912 99.4824 87.9834q50.4902 41.9922 97.4814 78.9854q2 3 7.49902 5.99902q5.49902 3 11.498 3q2.99902 0 7.49805 -1 q4.5 -1 6.49902 -3q37.9932 -17.9961 68.4873 -31.9941q30.4951 -13.9971 59.4893 -25.9951q28.9951 -11.998 59.4893 -21.4961t67.4873 -17.4961q13.998 -3 20.4971 -9.49902q6.49805 -6.49902 6.49805 -13.4971q-7.99805 -4.99902 -8.99805 -12.498 q-1 -7.49805 -1 -11.498zM851.08 1434.99q-2 -46.9912 -3 -74.4863q-0.999023 -27.4951 -1.49902 -42.4922t-0.5 -20.9961v-11.498t-0.5 -13.498q-0.5 -7.99805 -1.5 -26.4951q-1 -18.4961 -2.99902 -50.9902q-2 -32.4941 -4.99902 -86.4844q-2 -32.9941 -6.49902 -45.4912 q-4.49902 -12.498 -22.4961 -15.4971q-87.9834 0 -183.966 -0.5t-180.967 -1.5q-10.998 0 -15.9971 6.49902t-4.99902 23.4951l27.9941 307.944q4 32.9932 7.49902 45.4912t22.4961 14.4971q84.9844 1 174.468 2t186.466 1q7.99805 0 9.49805 -1.5t1.5 -9.49805z" />
<glyph unicode="&#xc0;" d="M67 73q13 26 27 58.5t26 70.5l27 66q-18 27 -36.5 58.5t-33.5 64.5t-24.5 66t-9.5 64q0 2 15.5 3.5t39 2.5t51 1.5t51 1t39 1l15.5 0.5q23 60 45 114t44 109t44 112.5t44 123.5q42 124 82 218t75 175q4 10 13.5 18.5t20.5 14.5t21.5 10t16.5 6q4 1 30.5 9t60.5 17 t67.5 16t53.5 7h18q16 0 30.5 -7.5t19.5 -29.5q48 -123 102.5 -268.5t106.5 -320.5q28 -94 55 -178t54 -164t54.5 -160t56.5 -165q9 -36 18.5 -57t17.5 -33t13 -17.5t5 -11.5t-19 -12l-215 -70q-24 -9 -49 -18t-47 -16t-38.5 -11.5t-23.5 -4.5h-6q-14 0 -20 8.5t-8 16.5 q-10 33 -20 59.5t-19.5 53t-19 56.5t-18.5 71q-2 5 -11 8.5t-21.5 5.5t-26.5 2.5t-26 0.5q-38 0 -61.5 -0.5t-41.5 -1t-34.5 -1t-40.5 -0.5q-29 0 -59.5 0.5t-55.5 1.5l-57 2q-26 -72 -52 -135t-56 -130q-2 -8 -9.5 -13t-15.5 -5q-6 0 -7 1q-97 35 -163 69t-115 66zM741 972 q-24 -89 -47.5 -161.5t-43 -128.5t-33.5 -94.5t-20 -59.5v-9q0 -6 -1 -8h240q-11 49 -23.5 99t-24.5 105t-24 118t-23 139zM644 1761q-23 42 -39 70t-30 53t-30 53.5t-38 70.5q-6 11 -7.5 21t-2.5 18q0 11 5 17.5t15 11.5q37 21 77.5 42.5t81.5 44t81.5 46.5t77.5 50 q10 5 14 5q6 0 8 -8l112 -585q2 -13 4 -21.5t2 -16.5q0 -9 -3 -17t-13 -13q-21 -9 -39 -17t-35.5 -16.5t-37 -18.5t-43.5 -25q-4 -4 -11 -4q-9 0 -20 13.5t-27.5 42t-41 74t-60.5 109.5z" />
<glyph unicode="&#xc1;" d="M67 73q13 26 27 58.5t26 70.5l27 66q-18 27 -36.5 58.5t-33.5 64.5t-24.5 66t-9.5 64q0 2 15.5 3.5t39 2.5t51 1.5t51 1t39 1l15.5 0.5q23 60 45 114t44 109t44 112.5t44 123.5q42 124 82 218t75 175q4 10 13.5 18.5t20.5 14.5t21.5 10t16.5 6q4 1 30.5 9t60.5 17 t67.5 16t53.5 7h18q16 0 30.5 -7.5t19.5 -29.5q48 -123 102.5 -268.5t106.5 -320.5q28 -94 55 -178t54 -164t54.5 -160t56.5 -165q9 -36 18.5 -57t17.5 -33t13 -17.5t5 -11.5t-19 -12l-215 -70q-24 -9 -49 -18t-47 -16t-38.5 -11.5t-23.5 -4.5h-6q-14 0 -20 8.5t-8 16.5 q-10 33 -20 59.5t-19.5 53t-19 56.5t-18.5 71q-2 5 -11 8.5t-21.5 5.5t-26.5 2.5t-26 0.5q-38 0 -61.5 -0.5t-41.5 -1t-34.5 -1t-40.5 -0.5q-29 0 -59.5 0.5t-55.5 1.5l-57 2q-26 -72 -52 -135t-56 -130q-2 -8 -9.5 -13t-15.5 -5q-6 0 -7 1q-97 35 -163 69t-115 66zM741 972 q-24 -89 -47.5 -161.5t-43 -128.5t-33.5 -94.5t-20 -59.5v-9q0 -6 -1 -8h240q-11 49 -23.5 99t-24.5 105t-24 118t-23 139zM780 1726q-44 -61 -73.5 -100.5t-48.5 -62.5t-30 -32t-18 -9q-6 0 -10 4q-21 14 -38 24.5t-32 19t-30.5 16.5t-34.5 17q-14 8 -14 21q1 8 3.5 19 t8.5 28l185 537q5 14 10 19t11 5q5 0 10 -2.5t10 -5.5q78 -53 155.5 -90.5t153.5 -77.5q18 -11 18 -27t-17 -41q-39 -45 -64.5 -74.5t-48 -56.5t-46.5 -57t-60 -74z" />
<glyph unicode="&#xc2;" d="M67 73q13 26 27 58.5t26 70.5l27 66q-18 27 -36.5 58.5t-33.5 64.5t-24.5 66t-9.5 64q0 2 15.5 3.5t39 2.5t51 1.5t51 1t39 1l15.5 0.5q23 60 45 114t44 109t44 112.5t44 123.5q42 124 82 218t75 175q4 10 13.5 18.5t20.5 14.5t21.5 10t16.5 6q4 1 30.5 9t60.5 17 t67.5 16t53.5 7h18q16 0 30.5 -7.5t19.5 -29.5q48 -123 102.5 -268.5t106.5 -320.5q28 -94 55 -178t54 -164t54.5 -160t56.5 -165q9 -36 18.5 -57t17.5 -33t13 -17.5t5 -11.5t-19 -12l-215 -70q-24 -9 -49 -18t-47 -16t-38.5 -11.5t-23.5 -4.5h-6q-14 0 -20 8.5t-8 16.5 q-10 33 -20 59.5t-19.5 53t-19 56.5t-18.5 71q-2 5 -11 8.5t-21.5 5.5t-26.5 2.5t-26 0.5q-38 0 -61.5 -0.5t-41.5 -1t-34.5 -1t-40.5 -0.5q-29 0 -59.5 0.5t-55.5 1.5l-57 2q-26 -72 -52 -135t-56 -130q-2 -8 -9.5 -13t-15.5 -5q-6 0 -7 1q-97 35 -163 69t-115 66zM741 972 q-24 -89 -47.5 -161.5t-43 -128.5t-33.5 -94.5t-20 -59.5v-9q0 -6 -1 -8h240q-11 49 -23.5 99t-24.5 105t-24 118t-23 139zM1025 1996q22 -27 37.5 -48t27.5 -38t22 -32.5t22 -33.5q6 -9 19.5 -27t27 -38.5t24 -40.5t10.5 -33q0 -14 -19.5 -28t-46.5 -27t-54.5 -24 t-43.5 -17q-14 -5 -30.5 -13.5t-33 -16.5t-30 -13.5t-20.5 -5.5q-8 0 -16.5 8.5t-21.5 30.5l-129 275q-61 -78 -121.5 -152.5t-121.5 -152.5q-4 -7 -13 -7q-5 0 -23.5 8.5t-43.5 20t-51 24.5t-46 22l-27.5 12.5t-31.5 15.5t-25.5 16t-10.5 15q0 10 9 23t29 32l151 170 q57 63 111 123t108 123q14 14 27.5 15.5t24.5 1.5h152q12 0 24 -2t20 -16q1 -2 13 -20l29 -43.5t36.5 -54.5t35.5 -52z" />
<glyph unicode="&#xc3;" d="M67 73q13 26 27 58.5t26 70.5l27 66q-18 27 -36.5 58.5t-33.5 64.5t-24.5 66t-9.5 64q0 2 15.5 3.5t39 2.5t51 1.5t51 1t39 1l15.5 0.5q23 60 45 114t44 109t44 112.5t44 123.5q42 124 82 218t75 175q4 10 13.5 18.5t20.5 14.5t21.5 10t16.5 6q4 1 30.5 9t60.5 17 t67.5 16t53.5 7h18q16 0 30.5 -7.5t19.5 -29.5q48 -123 102.5 -268.5t106.5 -320.5q28 -94 55 -178t54 -164t54.5 -160t56.5 -165q9 -36 18.5 -57t17.5 -33t13 -17.5t5 -11.5t-19 -12l-215 -70q-24 -9 -49 -18t-47 -16t-38.5 -11.5t-23.5 -4.5h-6q-14 0 -20 8.5t-8 16.5 q-10 33 -20 59.5t-19.5 53t-19 56.5t-18.5 71q-2 5 -11 8.5t-21.5 5.5t-26.5 2.5t-26 0.5q-38 0 -61.5 -0.5t-41.5 -1t-34.5 -1t-40.5 -0.5q-29 0 -59.5 0.5t-55.5 1.5l-57 2q-26 -72 -52 -135t-56 -130q-2 -8 -9.5 -13t-15.5 -5q-6 0 -7 1q-97 35 -163 69t-115 66zM741 972 q-24 -89 -47.5 -161.5t-43 -128.5t-33.5 -94.5t-20 -59.5v-9q0 -6 -1 -8h240q-11 49 -23.5 99t-24.5 105t-24 118t-23 139zM846 1913q19 -26 35.5 -37t38.5 -11q31 0 44.5 16.5t19 37t8.5 37t12 16.5q2 0 16.5 0.5t35.5 1.5t46 2t47 2.5t38.5 2t20.5 0.5q8 0 17 -4t9 -15 q0 -72 -25.5 -145.5t-72 -133.5t-111.5 -97.5t-144 -37.5q-32 0 -63.5 6t-63 22.5t-63.5 46t-65 77.5q-17 24 -35.5 30.5t-44.5 6.5q-24 0 -39 -10t-24 -26t-12.5 -35.5t-3.5 -38.5q0 -8 -8 -15.5t-21 -7.5q-32 0 -51.5 -0.5t-36 -1t-35 -1t-48.5 -0.5q-11 0 -20.5 4 t-9.5 13q0 94 27 171.5t73.5 132.5t108.5 85.5t133 30.5q40 0 74.5 -3t67 -15t63 -37t62.5 -70z" />
<glyph unicode="&#xc4;" d="M67 73q13 26 27 58.5t26 70.5l27 66q-18 27 -36.5 58.5t-33.5 64.5t-24.5 66t-9.5 64q0 2 15.5 3.5t39 2.5t51 1.5t51 1t39 1l15.5 0.5q23 60 45 114t44 109t44 112.5t44 123.5q42 124 82 218t75 175q4 10 13.5 18.5t20.5 14.5t21.5 10t16.5 6q4 1 30.5 9t60.5 17 t67.5 16t53.5 7h18q16 0 30.5 -7.5t19.5 -29.5q48 -123 102.5 -268.5t106.5 -320.5q28 -94 55 -178t54 -164t54.5 -160t56.5 -165q9 -36 18.5 -57t17.5 -33t13 -17.5t5 -11.5t-19 -12l-215 -70q-24 -9 -49 -18t-47 -16t-38.5 -11.5t-23.5 -4.5h-6q-14 0 -20 8.5t-8 16.5 q-10 33 -20 59.5t-19.5 53t-19 56.5t-18.5 71q-2 5 -11 8.5t-21.5 5.5t-26.5 2.5t-26 0.5q-38 0 -61.5 -0.5t-41.5 -1t-34.5 -1t-40.5 -0.5q-29 0 -59.5 0.5t-55.5 1.5l-57 2q-26 -72 -52 -135t-56 -130q-2 -8 -9.5 -13t-15.5 -5q-6 0 -7 1q-97 35 -163 69t-115 66zM741 972 q-24 -89 -47.5 -161.5t-43 -128.5t-33.5 -94.5t-20 -59.5v-9q0 -6 -1 -8h240q-11 49 -23.5 99t-24.5 105t-24 118t-23 139zM229 1562q3 57 4 82.5t1.5 36.5t0.5 15t0.5 18t2 45t4.5 96q2 30 7 41.5t20 13.5q78 0 165.5 1t162.5 1q10 0 14 -5.5t4 -20.5l-25 -278 q-3 -29 -7 -40.5t-19 -13.5q-76 -1 -156.5 -1.5t-168.5 -0.5q-5 0 -7.5 1t-2.5 6v3zM855 1560q3 63 4.5 93.5t2 43.5t0 17t0 15.5t2 38.5t5.5 86q2 29 6 40.5t19 13.5q79 0 166 0.5t162 1.5q8 0 13.5 -4t5.5 -16l-24 -283q-4 -30 -7.5 -41t-20.5 -13q-77 -1 -158.5 -2 t-170.5 -1q-3 0 -4 0.5t-1 5.5v4z" />
<glyph unicode="&#xc5;" d="M67 73q13 26 27 58.5t26 70.5l27 66q-18 27 -36.5 58.5t-33.5 64.5t-24.5 66t-9.5 64q0 2 15.5 3.5t39 2.5t51 1.5t51 1t39 1l15.5 0.5q23 60 45 114t44 109t44 112.5t44 123.5q42 124 82 218t75 175q4 10 13.5 18.5t20.5 14.5t21.5 10t16.5 6q4 1 30.5 9t60.5 17 t67.5 16t53.5 7h18q16 0 30.5 -7.5t19.5 -29.5q48 -123 102.5 -268.5t106.5 -320.5q28 -94 55 -178t54 -164t54.5 -160t56.5 -165q9 -36 18.5 -57t17.5 -33t13 -17.5t5 -11.5t-19 -12l-215 -70q-24 -9 -49 -18t-47 -16t-38.5 -11.5t-23.5 -4.5h-6q-14 0 -20 8.5t-8 16.5 q-10 33 -20 59.5t-19.5 53t-19 56.5t-18.5 71q-2 5 -11 8.5t-21.5 5.5t-26.5 2.5t-26 0.5q-38 0 -61.5 -0.5t-41.5 -1t-34.5 -1t-40.5 -0.5q-29 0 -59.5 0.5t-55.5 1.5l-57 2q-26 -72 -52 -135t-56 -130q-2 -8 -9.5 -13t-15.5 -5q-6 0 -7 1q-97 35 -163 69t-115 66zM741 972 q-24 -89 -47.5 -161.5t-43 -128.5t-33.5 -94.5t-20 -59.5v-9q0 -6 -1 -8h240q-11 49 -23.5 99t-24.5 105t-24 118t-23 139zM732 1526q-59 0 -110 18t-88.5 52t-59 83t-21.5 112q0 57 23 108t63 89t94.5 60.5t117.5 22.5q55 0 103.5 -18t84.5 -51t56.5 -80t20.5 -104 q0 -54 -20 -106.5t-56.5 -94t-89 -66.5t-118.5 -25zM836 1792q1 5 1 10v10q0 18 -4 38.5t-14 38t-26 28.5t-40 11q-33 0 -57.5 -12.5t-40 -32t-23 -44t-7.5 -49.5q0 -19 4 -39.5t14 -37.5t27 -28.5t44 -12.5q30 0 51.5 10.5t36 28t23 39t11.5 42.5z" />
<glyph unicode="&#xc6;" horiz-adv-x="1739" d="M1567 809q-2 -14 -7.5 -39t-13 -57t-16.5 -68.5t-18 -74.5q-3 -14 -7 -20.5t-14 -9.5t-29.5 -3.5t-54.5 -1.5l-139 -3l32 -285l452 32q13 0 13 -21q0 -12 -4 -20q0 -2 -10 -27t-24 -59t-29 -69t-25 -55q-7 -18 -18.5 -28.5t-26.5 -15.5t-34.5 -6t-42.5 -1 q-75 0 -156 -1.5t-161.5 -3.5t-157 -5t-141.5 -6q-8 0 -15 -2t-17 -2q-14 0 -18 8.5t-5 16.5q-7 60 -13 110.5t-15 109.5q-1 5 -9 8.5t-20 5.5t-26 2.5t-26 0.5q-29 0 -47 -0.5t-32.5 -1t-28 -1t-31.5 -0.5q-29 0 -59 0.5t-55 1.5l-57 2l-28 -44t-28 -45q-13 -20 -31 -51.5 t-37 -61t-37 -50.5t-30 -21q-6 0 -7 1q-88 35 -147 69t-101 66q19 26 40 58.5t38 60.5l40 66q-20 42 -36.5 97t-16.5 115q0 24 4 41q0 2 16 3.5t39.5 2.5t51 1.5t51 1t39.5 0.5t16 1q0 -1 23.5 41.5t62 111.5t87.5 156.5t101.5 179t103 178t91.5 153.5q6 10 17.5 18.5 t23.5 14.5t23 10t18 6q4 0 30.5 3t61 6.5t69.5 6.5t56 3l264 15l102 6t94.5 5t75.5 3.5t44 1.5q2 0 8 -0.5t12 -5t11 -14t5 -27.5q0 -8 -2 -23.5t-5 -35.5t-7 -42.5t-8 -44.5l-20 -116q-3 -17 -9.5 -26t-36.5 -10q-75 -2 -167.5 -6.5t-213.5 -8.5l23 -245q51 2 99 4t88 3.5 t69 2.5t41 1l5.5 -0.5t12 -4.5t12 -14t5.5 -28zM741 749q-17 -37 -34 -73.5t-31 -67t-24 -52t-13 -28.5q-1 -8 -5 -17h200q0 46 -0.5 98t-1 107.5t-1 112t-0.5 111.5z" />
<glyph unicode="&#xc7;" horiz-adv-x="1296" d="M128 676q0 110 26.5 211.5t75.5 189.5t118.5 160t155.5 123.5t186.5 79.5t211.5 28q88 0 154.5 -11.5t116 -29t83 -38.5t55.5 -40q-1 0 -1 -7q0 -15 2.5 -55t6 -89t6 -99.5t2.5 -87.5q0 -6 -4 -13.5t-20 -7.5q-9 0 -22 3q-21 6 -53 27.5t-74.5 45t-95 42t-114.5 18.5 q-82 0 -149 -32.5t-114 -89.5t-73 -135.5t-26 -171.5q0 -82 18 -156.5t54.5 -130.5t91 -89.5t126.5 -33.5q57 0 101 4t82 13t74.5 24t78.5 38q2 1 10 1q7 0 9.5 -5.5t2.5 -22.5v-120q0 -33 -0.5 -64.5t-1 -56.5t-1 -40.5t-1.5 -15.5q-46 -29 -98.5 -47.5t-108 -29 t-111.5 -14t-108 -3.5q-141 0 -264 53.5t-213.5 149.5t-142.5 230t-52 295zM948 -386q-9 -47 -34 -85.5t-60 -66t-78.5 -43t-89.5 -15.5q-42 0 -88.5 6t-81.5 26l2 -1q-1 1 -1 8q0 11 1.5 30t4 40.5t6 41.5t7.5 33h5q6 0 6 -2h-1q16 -7 30 -11.5t29.5 -7.5t34 -4t43.5 -1 q42 0 65 25t23 57q0 30 -18.5 49.5t-50.5 19.5q-55 0 -94 4t-54 4q-8 0 -9.5 4t-1.5 9q5 10 11.5 31.5t13.5 48t13.5 55.5t12 53.5t9 41t3.5 19.5h19q17 0 44 -0.5t53 -0.5h63l-48 -141q17 2 31.5 3.5t27.5 1.5q51 0 81.5 -16.5t47 -42.5t22 -59t5.5 -67q0 -12 -1 -23.5 t-3 -23.5z" />
<glyph unicode="&#xc8;" horiz-adv-x="1178" d="M1023 830q-4 -14 -15 -39.5t-25.5 -57.5t-31 -68.5t-32.5 -73.5q-6 -14 -11 -20.5t-16 -9.5t-30.5 -3.5t-54.5 -1.5l-139 -3l-28 -306h513v-39q-2 -2 -17 -26.5t-35 -58.5t-42 -68.5t-37 -55.5q-10 -18 -23 -28.5t-28.5 -15.5t-34 -6t-40.5 -1q-90 0 -187.5 4t-194.5 10 t-189.5 13.5t-171.5 15.5q-7 1 -12.5 8t-5.5 16q-4 0 5.5 17t26.5 44t37.5 61.5t39.5 69.5l16 225q4 57 6.5 85t2.5 30q-60 1 -89.5 6t-29.5 22q0 8 14.5 30t35.5 50.5t44.5 59.5t41.5 57l25 340h-3q-22 -1 -40 -1.5t-33 -0.5q-48 0 -68.5 5.5t-20.5 20.5q0 7 12 29t30 50.5 t38 60t36 58.5l60 102h418l493 36q1 0 5.5 -0.5t9.5 -3t9.5 -8.5t4.5 -17l-15 -52q-7 -22 -17 -46.5t-22 -50.5l-44 -116q-7 -17 -16 -26t-38 -10q-76 -2 -169.5 -6.5t-214.5 -8.5q-4 -14 -4 -22.5t-2 -32.5l-5 -46q-2 -32 -6 -69t-10 -91q51 2 99.5 4t88.5 3.5t69.5 2.5 t41.5 1q8 0 18 -6t10 -23q0 -8 -3 -18zM606 1761q-23 42 -39 70t-30 53t-30 53.5t-38 70.5q-6 11 -7.5 21t-2.5 18q0 11 5 17.5t15 11.5q37 21 77.5 42.5t81.5 44t81.5 46.5t77.5 50q10 5 14 5q6 0 8 -8l112 -585q2 -13 4 -21.5t2 -16.5q0 -9 -3 -17t-13 -13q-21 -9 -39 -17 t-35.5 -16.5t-37 -18.5t-43.5 -25q-4 -4 -11 -4q-9 0 -20 13.5t-27.5 42t-41 74t-60.5 109.5z" />
<glyph unicode="&#xc9;" horiz-adv-x="1178" d="M1023 830q-4 -14 -15 -39.5t-25.5 -57.5t-31 -68.5t-32.5 -73.5q-6 -14 -11 -20.5t-16 -9.5t-30.5 -3.5t-54.5 -1.5l-139 -3l-28 -306h513v-39q-2 -2 -17 -26.5t-35 -58.5t-42 -68.5t-37 -55.5q-10 -18 -23 -28.5t-28.5 -15.5t-34 -6t-40.5 -1q-90 0 -187.5 4t-194.5 10 t-189.5 13.5t-171.5 15.5q-7 1 -12.5 8t-5.5 16q-4 0 5.5 17t26.5 44t37.5 61.5t39.5 69.5l16 225q4 57 6.5 85t2.5 30q-60 1 -89.5 6t-29.5 22q0 8 14.5 30t35.5 50.5t44.5 59.5t41.5 57l25 340h-3q-22 -1 -40 -1.5t-33 -0.5q-48 0 -68.5 5.5t-20.5 20.5q0 7 12 29t30 50.5 t38 60t36 58.5l60 102h418l493 36q1 0 5.5 -0.5t9.5 -3t9.5 -8.5t4.5 -17l-15 -52q-7 -22 -17 -46.5t-22 -50.5l-44 -116q-7 -17 -16 -26t-38 -10q-76 -2 -169.5 -6.5t-214.5 -8.5q-4 -14 -4 -22.5t-2 -32.5l-5 -46q-2 -32 -6 -69t-10 -91q51 2 99.5 4t88.5 3.5t69.5 2.5 t41.5 1q8 0 18 -6t10 -23q0 -8 -3 -18zM743 1726q-44 -61 -73.5 -100.5t-48.5 -62.5t-30 -32t-18 -9q-6 0 -10 4q-21 14 -38 24.5t-32 19t-30.5 16.5t-34.5 17q-14 8 -14 21q1 8 3.5 19t8.5 28l185 537q5 14 10 19t11 5q5 0 10 -2.5t10 -5.5q78 -53 155.5 -90.5t153.5 -77.5 q18 -11 18 -27t-17 -41q-39 -45 -64.5 -74.5t-48 -56.5t-46.5 -57t-60 -74z" />
<glyph unicode="&#xca;" horiz-adv-x="1178" d="M1023 830q-4 -14 -15 -39.5t-25.5 -57.5t-31 -68.5t-32.5 -73.5q-6 -14 -11 -20.5t-16 -9.5t-30.5 -3.5t-54.5 -1.5l-139 -3l-28 -306h513v-39q-2 -2 -17 -26.5t-35 -58.5t-42 -68.5t-37 -55.5q-10 -18 -23 -28.5t-28.5 -15.5t-34 -6t-40.5 -1q-90 0 -187.5 4t-194.5 10 t-189.5 13.5t-171.5 15.5q-7 1 -12.5 8t-5.5 16q-4 0 5.5 17t26.5 44t37.5 61.5t39.5 69.5l16 225q4 57 6.5 85t2.5 30q-60 1 -89.5 6t-29.5 22q0 8 14.5 30t35.5 50.5t44.5 59.5t41.5 57l25 340h-3q-22 -1 -40 -1.5t-33 -0.5q-48 0 -68.5 5.5t-20.5 20.5q0 7 12 29t30 50.5 t38 60t36 58.5l60 102h418l493 36q1 0 5.5 -0.5t9.5 -3t9.5 -8.5t4.5 -17l-15 -52q-7 -22 -17 -46.5t-22 -50.5l-44 -116q-7 -17 -16 -26t-38 -10q-76 -2 -169.5 -6.5t-214.5 -8.5q-4 -14 -4 -22.5t-2 -32.5l-5 -46q-2 -32 -6 -69t-10 -91q51 2 99.5 4t88.5 3.5t69.5 2.5 t41.5 1q8 0 18 -6t10 -23q0 -8 -3 -18zM988 1996q22 -27 37.5 -48t27.5 -38t22 -32.5t22 -33.5q6 -9 19.5 -27t27 -38.5t24 -40.5t10.5 -33q0 -14 -19.5 -28t-46.5 -27t-54.5 -24t-43.5 -17q-14 -5 -30.5 -13.5t-33 -16.5t-30 -13.5t-20.5 -5.5q-8 0 -16.5 8.5t-21.5 30.5 l-129 275q-61 -78 -121.5 -152.5t-121.5 -152.5q-4 -7 -13 -7q-5 0 -23.5 8.5t-43.5 20t-51 24.5t-46 22l-27.5 12.5t-31.5 15.5t-25.5 16t-10.5 15q0 10 9 23t29 32l151 170q57 63 111 123t108 123q14 14 27.5 15.5t24.5 1.5h152q12 0 24 -2t20 -16q1 -2 13 -20l29 -43.5 t36.5 -54.5t35.5 -52z" />
<glyph unicode="&#xcb;" horiz-adv-x="1178" d="M1023 830q-4 -14 -15 -39.5t-25.5 -57.5t-31 -68.5t-32.5 -73.5q-6 -14 -11 -20.5t-16 -9.5t-30.5 -3.5t-54.5 -1.5l-139 -3l-28 -306h513v-39q-2 -2 -17 -26.5t-35 -58.5t-42 -68.5t-37 -55.5q-10 -18 -23 -28.5t-28.5 -15.5t-34 -6t-40.5 -1q-90 0 -187.5 4t-194.5 10 t-189.5 13.5t-171.5 15.5q-7 1 -12.5 8t-5.5 16q-4 0 5.5 17t26.5 44t37.5 61.5t39.5 69.5l16 225q4 57 6.5 85t2.5 30q-60 1 -89.5 6t-29.5 22q0 8 14.5 30t35.5 50.5t44.5 59.5t41.5 57l25 340h-3q-22 -1 -40 -1.5t-33 -0.5q-48 0 -68.5 5.5t-20.5 20.5q0 7 12 29t30 50.5 t38 60t36 58.5l60 102h418l493 36q1 0 5.5 -0.5t9.5 -3t9.5 -8.5t4.5 -17l-15 -52q-7 -22 -17 -46.5t-22 -50.5l-44 -116q-7 -17 -16 -26t-38 -10q-76 -2 -169.5 -6.5t-214.5 -8.5q-4 -14 -4 -22.5t-2 -32.5l-5 -46q-2 -32 -6 -69t-10 -91q51 2 99.5 4t88.5 3.5t69.5 2.5 t41.5 1q8 0 18 -6t10 -23q0 -8 -3 -18zM191 1562q3 57 4 82.5t1.5 36.5t0.5 15t0.5 18t2 45t4.5 96q2 30 7 41.5t20 13.5q78 0 165.5 1t162.5 1q10 0 14 -5.5t4 -20.5l-25 -278q-3 -29 -7 -40.5t-19 -13.5q-76 -1 -156.5 -1.5t-168.5 -0.5q-5 0 -7.5 1t-2.5 6v3zM817 1560 q3 63 4.5 93.5t2 43.5t0 17t0 15.5t2 38.5t5.5 86q2 29 6 40.5t19 13.5q79 0 166 0.5t162 1.5q8 0 13.5 -4t5.5 -16l-24 -283q-4 -30 -7.5 -41t-20.5 -13q-77 -1 -158.5 -2t-170.5 -1q-3 0 -4 0.5t-1 5.5v4z" />
<glyph unicode="&#xcc;" horiz-adv-x="668" d="M139 -32l50 684q25 344 37 505t12 160q1 18 2 30t4 20t8 12t15 6l346 83q13 4 27 4t19 -8.5t5 -34.5q-7 -62 -11 -116t-6.5 -103t-4.5 -94.5t-5 -90.5q-6 -49 -10.5 -98t-8.5 -101.5t-8.5 -111t-10.5 -127.5l-44 -527q-1 -9 -3.5 -17.5t-13.5 -13.5q-1 0 -12 -4 t-29 -10.5t-42 -13.5t-51 -13q-45 -10 -78.5 -20t-59.5 -18.5t-48 -13.5t-44 -5q-15 0 -25 8t-10 29zM305 1761q-23 42 -39 70t-30 53t-30 53.5t-38 70.5q-6 11 -7.5 21t-2.5 18q0 11 5 17.5t15 11.5q37 21 77.5 42.5t81.5 44t81.5 46.5t77.5 50q10 5 14 5q6 0 8 -8 l112 -585q2 -13 4 -21.5t2 -16.5q0 -9 -3 -17t-13 -13q-21 -9 -39 -17t-35.5 -16.5t-37 -18.5t-43.5 -25q-4 -4 -11 -4q-9 0 -20 13.5t-27.5 42t-41 74t-60.5 109.5z" />
<glyph unicode="&#xcd;" horiz-adv-x="668" d="M139 -32l50 684q25 344 37 505t12 160q1 18 2 30t4 20t8 12t15 6l346 83q13 4 27 4t19 -8.5t5 -34.5q-7 -62 -11 -116t-6.5 -103t-4.5 -94.5t-5 -90.5q-6 -49 -10.5 -98t-8.5 -101.5t-8.5 -111t-10.5 -127.5l-44 -527q-1 -9 -3.5 -17.5t-13.5 -13.5q-1 0 -12 -4 t-29 -10.5t-42 -13.5t-51 -13q-45 -10 -78.5 -20t-59.5 -18.5t-48 -13.5t-44 -5q-15 0 -25 8t-10 29zM442 1726q-44 -61 -73.5 -100.5t-48.5 -62.5t-30 -32t-18 -9q-6 0 -10 4q-21 14 -38 24.5t-32 19t-30.5 16.5t-34.5 17q-14 8 -14 21q1 8 3.5 19t8.5 28l185 537 q5 14 10 19t11 5q5 0 10 -2.5t10 -5.5q78 -53 155.5 -90.5t153.5 -77.5q18 -11 18 -27t-17 -41q-39 -45 -64.5 -74.5t-48 -56.5t-46.5 -57t-60 -74z" />
<glyph unicode="&#xce;" horiz-adv-x="668" d="M139 -32l50 684q25 344 37 505t12 160q1 18 2 30t4 20t8 12t15 6l346 83q13 4 27 4t19 -8.5t5 -34.5q-7 -62 -11 -116t-6.5 -103t-4.5 -94.5t-5 -90.5q-6 -49 -10.5 -98t-8.5 -101.5t-8.5 -111t-10.5 -127.5l-44 -527q-1 -9 -3.5 -17.5t-13.5 -13.5q-1 0 -12 -4 t-29 -10.5t-42 -13.5t-51 -13q-45 -10 -78.5 -20t-59.5 -18.5t-48 -13.5t-44 -5q-15 0 -25 8t-10 29zM690 1996q22 -27 37.5 -48t27.5 -38t22 -32.5t22 -33.5q6 -9 19.5 -27t27 -38.5t24 -40.5t10.5 -33q0 -14 -19.5 -28t-46.5 -27t-54.5 -24t-43.5 -17q-14 -5 -30.5 -13.5 t-33 -16.5t-30 -13.5t-20.5 -5.5q-8 0 -16.5 8.5t-21.5 30.5l-129 275q-61 -78 -121.5 -152.5t-121.5 -152.5q-4 -7 -13 -7q-5 0 -23.5 8.5t-43.5 20t-51 24.5t-46 22l-27.5 12.5t-31.5 15.5t-25.5 16t-10.5 15q0 10 9 23t29 32l151 170q57 63 111 123t108 123 q14 14 27.5 15.5t24.5 1.5h152q12 0 24 -2t20 -16q1 -2 13 -20l29 -43.5t36.5 -54.5t35.5 -52z" />
<glyph unicode="&#xcf;" horiz-adv-x="668" d="M139 -32l50 684q25 344 37 505t12 160q1 18 2 30t4 20t8 12t15 6l346 83q13 4 27 4t19 -8.5t5 -34.5q-7 -62 -11 -116t-6.5 -103t-4.5 -94.5t-5 -90.5q-6 -49 -10.5 -98t-8.5 -101.5t-8.5 -111t-10.5 -127.5l-44 -527q-1 -9 -3.5 -17.5t-13.5 -13.5q-1 0 -12 -4 t-29 -10.5t-42 -13.5t-51 -13q-45 -10 -78.5 -20t-59.5 -18.5t-48 -13.5t-44 -5q-15 0 -25 8t-10 29zM-107 1562q3 57 4 82.5t1.5 36.5t0.5 15t0.5 18t2 45t4.5 96q2 30 7 41.5t20 13.5q78 0 165.5 1t162.5 1q10 0 14 -5.5t4 -20.5l-25 -278q-3 -29 -7 -40.5t-19 -13.5 q-76 -1 -156.5 -1.5t-168.5 -0.5q-5 0 -7.5 1t-2.5 6v3zM519 1560q3 63 4.5 93.5t2 43.5t0 17t0 15.5t2 38.5t5.5 86q2 29 6 40.5t19 13.5q79 0 166 0.5t162 1.5q8 0 13.5 -4t5.5 -16l-24 -283q-4 -30 -7.5 -41t-20.5 -13q-77 -1 -158.5 -2t-170.5 -1q-3 0 -4 0.5t-1 5.5v4z " />
<glyph unicode="&#xd0;" horiz-adv-x="1548" d="M331 831l13 185q2 24 3.5 47t3.5 46q-27 -6 -56 -11t-56.5 -9t-52 -6.5t-42.5 -2.5q-11 0 -16.5 10t-5.5 21q0 13 6 19l254 230q30 27 59.5 44.5t70.5 27.5t99 13.5t147 3.5q91 0 186 -11t184 -38t167.5 -71.5t137.5 -111.5t93 -158.5t34 -212.5q0 -171 -51 -302 t-139 -228t-205.5 -163.5t-251 -108.5t-276 -63t-279.5 -27l-182 -5q-11 2 -16 11t-5 20q0 9 4 16l123 234q1 4 3.5 32t5.5 69.5t7 92t8 100.5q-43 -1 -76.5 -1h-53.5q-60 0 -89.5 5.5t-29.5 22.5q0 5 12.5 28t32.5 53.5t45.5 64.5t50.5 63.5t48 48.5t38 20zM757 1130 q-5 -45 -12.5 -118.5t-15.5 -164.5q63 3 111 4.5t65 1.5q8 0 18 -6t10 -23q0 -9 -9.5 -33t-24.5 -58.5t-34 -77t-39 -88.5q-5 -14 -9 -21t-15 -10t-34 -3.5t-66 -1.5l-24 -276q121 0 204.5 39t135.5 107t75.5 160t23.5 198q0 76 -21 146.5t-61 123.5t-98 85t-131 32 q-12 0 -26 -5.5t-23 -10.5z" />
<glyph unicode="&#xd1;" horiz-adv-x="1379" d="M991 1340q8 33 14 48t26 20l259 61q12 4 26 4q13 0 19 -9t6 -34q-6 -24 -10 -73.5t-6 -108.5t-3 -118.5t-1 -103.5v-55q0 -62 -1 -135t-2.5 -148t-3.5 -148t-4 -137l-6 -171q-1 -5 -1 -9v-8v-15q0 -17 0.5 -28.5t0.5 -20.5q0 -10 -1.5 -18t-7.5 -15.5t-16.5 -15.5 t-28.5 -20q-10 -7 -33 -20.5t-51 -30.5t-58 -35t-55 -32.5t-40.5 -23.5l-15.5 -9l-464 714l-42 -585q-1 -8 -3.5 -17t-13.5 -14q-9 -4 -31 -12.5t-51.5 -19.5t-62 -22.5t-61.5 -21t-51.5 -15.5t-30.5 -6q-15 0 -25 8t-10 29q10 125 23 272.5t25 302.5t22.5 309.5t17.5 293.5 q0 4 -12.5 26.5t-28 49t-28 50t-12.5 29.5q0 7 7.5 13t24.5 16l267 151q3 0 8.5 1t9.5 1q11 0 17.5 -2.5t13.5 -15.5l485 -875v749zM859 1913q19 -26 35.5 -37t38.5 -11q31 0 44.5 16.5t19 37t8.5 37t12 16.5q2 0 16.5 0.5t35.5 1.5t46 2t47 2.5t38.5 2t20.5 0.5q8 0 17 -4 t9 -15q0 -72 -25.5 -145.5t-72 -133.5t-111.5 -97.5t-144 -37.5q-32 0 -63.5 6t-63 22.5t-63.5 46t-65 77.5q-17 24 -35.5 30.5t-44.5 6.5q-24 0 -39 -10t-24 -26t-12.5 -35.5t-3.5 -38.5q0 -8 -8 -15.5t-21 -7.5q-32 0 -51.5 -0.5t-36 -1t-35 -1t-48.5 -0.5q-11 0 -20.5 4 t-9.5 13q0 94 27 171.5t73.5 132.5t108.5 85.5t133 30.5q40 0 74.5 -3t67 -15t63 -37t62.5 -70z" />
<glyph unicode="&#xd2;" horiz-adv-x="1626" d="M566 682q0 -72 15.5 -144.5t51.5 -130.5t95 -94t146 -36q67 4 117.5 27.5t87 61t60.5 86t38 102t19.5 109.5t5.5 108q0 71 -19 137.5t-57 117.5t-94.5 82t-131.5 31q-59 0 -106.5 -22t-84.5 -58.5t-63.5 -84t-44 -98t-26 -101t-9.5 -93.5zM761 -52q-150 0 -268 56 t-199.5 151.5t-125 221t-43.5 265.5q0 157 44.5 289.5t124.5 235t190.5 173t242.5 104.5q12 0 18.5 19t11.5 42t12 42t20 19q194 -20 349 -68.5t263 -138.5t165.5 -227.5t57.5 -335.5q0 -127 -31 -239t-87 -206.5t-134.5 -169t-174.5 -126.5t-206.5 -79.5t-229.5 -27.5z M787 1761q-23 42 -39 70t-30 53t-30 53.5t-38 70.5q-6 11 -7.5 21t-2.5 18q0 11 5 17.5t15 11.5q37 21 77.5 42.5t81.5 44t81.5 46.5t77.5 50q10 5 14 5q6 0 8 -8l112 -585q2 -13 4 -21.5t2 -16.5q0 -9 -3 -17t-13 -13q-21 -9 -39 -17t-35.5 -16.5t-37 -18.5t-43.5 -25 q-4 -4 -11 -4q-9 0 -20 13.5t-27.5 42t-41 74t-60.5 109.5z" />
<glyph unicode="&#xd3;" horiz-adv-x="1626" d="M566 682q0 -72 15.5 -144.5t51.5 -130.5t95 -94t146 -36q67 4 117.5 27.5t87 61t60.5 86t38 102t19.5 109.5t5.5 108q0 71 -19 137.5t-57 117.5t-94.5 82t-131.5 31q-59 0 -106.5 -22t-84.5 -58.5t-63.5 -84t-44 -98t-26 -101t-9.5 -93.5zM761 -52q-150 0 -268 56 t-199.5 151.5t-125 221t-43.5 265.5q0 157 44.5 289.5t124.5 235t190.5 173t242.5 104.5q12 0 18.5 19t11.5 42t12 42t20 19q194 -20 349 -68.5t263 -138.5t165.5 -227.5t57.5 -335.5q0 -127 -31 -239t-87 -206.5t-134.5 -169t-174.5 -126.5t-206.5 -79.5t-229.5 -27.5z M923 1726q-44 -61 -73.5 -100.5t-48.5 -62.5t-30 -32t-18 -9q-6 0 -10 4q-21 14 -38 24.5t-32 19t-30.5 16.5t-34.5 17q-14 8 -14 21q1 8 3.5 19t8.5 28l185 537q5 14 10 19t11 5q5 0 10 -2.5t10 -5.5q78 -53 155.5 -90.5t153.5 -77.5q18 -11 18 -27t-17 -41 q-39 -45 -64.5 -74.5t-48 -56.5t-46.5 -57t-60 -74z" />
<glyph unicode="&#xd4;" horiz-adv-x="1616" d="M561 682q0 -72 15.5 -144.5t51.5 -130.5t95 -94t146 -36q67 4 117.5 27.5t87 61t60.5 86t38 102t19.5 109.5t5.5 108q0 71 -19 137.5t-57 117.5t-94.5 82t-131.5 31q-59 0 -106.5 -22t-84.5 -58.5t-63.5 -84t-44 -98t-26 -101t-9.5 -93.5zM756 -52q-150 0 -268 56 t-199.5 151.5t-125 221t-43.5 265.5q0 157 44.5 289.5t124.5 235t190.5 173t242.5 104.5q12 0 18.5 19t11.5 42t12 42t20 19q194 -20 349 -68.5t263 -138.5t165.5 -227.5t57.5 -335.5q0 -127 -31 -239t-87 -206.5t-134.5 -169t-174.5 -126.5t-206.5 -79.5t-229.5 -27.5z M1163 1996q22 -27 37.5 -48t27.5 -38t22 -32.5t22 -33.5q6 -9 19.5 -27t27 -38.5t24 -40.5t10.5 -33q0 -14 -19.5 -28t-46.5 -27t-54.5 -24t-43.5 -17q-14 -5 -30.5 -13.5t-33 -16.5t-30 -13.5t-20.5 -5.5q-8 0 -16.5 8.5t-21.5 30.5l-129 275q-61 -78 -121.5 -152.5 t-121.5 -152.5q-4 -7 -13 -7q-5 0 -23.5 8.5t-43.5 20t-51 24.5t-46 22l-27.5 12.5t-31.5 15.5t-25.5 16t-10.5 15q0 10 9 23t29 32l151 170q57 63 111 123t108 123q14 14 27.5 15.5t24.5 1.5h152q12 0 24 -2t20 -16q1 -2 13 -20l29 -43.5t36.5 -54.5t35.5 -52z" />
<glyph unicode="&#xd5;" horiz-adv-x="1616" d="M561 682q0 -72 15.5 -144.5t51.5 -130.5t95 -94t146 -36q67 4 117.5 27.5t87 61t60.5 86t38 102t19.5 109.5t5.5 108q0 71 -19 137.5t-57 117.5t-94.5 82t-131.5 31q-59 0 -106.5 -22t-84.5 -58.5t-63.5 -84t-44 -98t-26 -101t-9.5 -93.5zM756 -52q-150 0 -268 56 t-199.5 151.5t-125 221t-43.5 265.5q0 157 44.5 289.5t124.5 235t190.5 173t242.5 104.5q12 0 18.5 19t11.5 42t12 42t20 19q194 -20 349 -68.5t263 -138.5t165.5 -227.5t57.5 -335.5q0 -127 -31 -239t-87 -206.5t-134.5 -169t-174.5 -126.5t-206.5 -79.5t-229.5 -27.5z M984 1913q19 -26 35.5 -37t38.5 -11q31 0 44.5 16.5t19 37t8.5 37t12 16.5q2 0 16.5 0.5t35.5 1.5t46 2t47 2.5t38.5 2t20.5 0.5q8 0 17 -4t9 -15q0 -72 -25.5 -145.5t-72 -133.5t-111.5 -97.5t-144 -37.5q-32 0 -63.5 6t-63 22.5t-63.5 46t-65 77.5q-17 24 -35.5 30.5 t-44.5 6.5q-24 0 -39 -10t-24 -26t-12.5 -35.5t-3.5 -38.5q0 -8 -8 -15.5t-21 -7.5q-32 0 -51.5 -0.5t-36 -1t-35 -1t-48.5 -0.5q-11 0 -20.5 4t-9.5 13q0 94 27 171.5t73.5 132.5t108.5 85.5t133 30.5q40 0 74.5 -3t67 -15t63 -37t62.5 -70z" />
<glyph unicode="&#xd6;" horiz-adv-x="1616" d="M561 682q0 -72 15.5 -144.5t51.5 -130.5t95 -94t146 -36q67 4 117.5 27.5t87 61t60.5 86t38 102t19.5 109.5t5.5 108q0 71 -19 137.5t-57 117.5t-94.5 82t-131.5 31q-59 0 -106.5 -22t-84.5 -58.5t-63.5 -84t-44 -98t-26 -101t-9.5 -93.5zM756 -52q-150 0 -268 56 t-199.5 151.5t-125 221t-43.5 265.5q0 157 44.5 289.5t124.5 235t190.5 173t242.5 104.5q12 0 18.5 19t11.5 42t12 42t20 19q194 -20 349 -68.5t263 -138.5t165.5 -227.5t57.5 -335.5q0 -127 -31 -239t-87 -206.5t-134.5 -169t-174.5 -126.5t-206.5 -79.5t-229.5 -27.5z M367 1562q3 57 4 82.5t1.5 36.5t0.5 15t0.5 18t2 45t4.5 96q2 30 7 41.5t20 13.5q78 0 165.5 1t162.5 1q10 0 14 -5.5t4 -20.5l-25 -278q-3 -29 -7 -40.5t-19 -13.5q-76 -1 -156.5 -1.5t-168.5 -0.5q-5 0 -7.5 1t-2.5 6v3zM993 1560q3 63 4.5 93.5t2 43.5t0 17t0 15.5 t2 38.5t5.5 86q2 29 6 40.5t19 13.5q79 0 166 0.5t162 1.5q8 0 13.5 -4t5.5 -16l-24 -283q-4 -30 -7.5 -41t-20.5 -13q-77 -1 -158.5 -2t-170.5 -1q-3 0 -4 0.5t-1 5.5v4z" />
<glyph unicode="&#xd7;" horiz-adv-x="990" d="M548 461q-59 -60 -97.5 -101.5t-64.5 -67.5t-42 -37.5t-30 -11.5q-7 0 -12 5q-4 3 -15.5 19t-27 38.5t-32.5 48t-31 48.5t-23.5 40.5t-9.5 23.5q1 9 4.5 19.5t13.5 20.5l176 179l-14 17q-90 103 -138.5 159.5t-48.5 71.5q0 7 5 15t16 20.5t31 32.5t50 52l65 69q14 8 21 8 q8 0 16 -6.5t19 -18.5l52 -57q25 -27 58 -63.5t72 -81.5l11 13q91 94 142.5 148t65.5 54q8 0 14 -5.5t16 -18.5q5 -7 17 -22t27.5 -34.5t32 -40t30.5 -37t22.5 -27.5l8.5 -11q3 -7 5 -13t2 -12q0 -15 -23 -39t-50 -52l-127 -131l129 -148q33 -38 48.5 -64.5t16.5 -40.5 q0 -7 -4 -12q-3 -3 -16.5 -17t-32.5 -33t-41 -40.5t-42 -39t-35.5 -29.5t-21.5 -12q-9 0 -17.5 4.5t-17.5 15.5z" />
<glyph unicode="&#xd8;" horiz-adv-x="1623" d="M778 -51q-57 0 -111 9l-66 -136q-8 -17 -11 -30.5t-18 -13.5q-12 0 -26 7l-101 42q-8 3 -24 8.5t-32.5 13t-29 17.5t-12.5 23q0 9 7 27t18.5 41t24.5 48t25 48q-72 48 -127.5 114t-93.5 145t-58 168.5t-20 184.5q0 177 67 321t181 247t265 159t319 56q69 0 139 -14 q13 25 25 52t23.5 49t22 36.5t19.5 14.5h7q54 -22 106.5 -47.5t105.5 -35.5q6 -2 10.5 -5t4.5 -8v-3l-78 -158q65 -46 117 -107t88 -133t55.5 -154.5t19.5 -170.5q0 -122 -30 -230.5t-85 -199t-131.5 -162t-170.5 -121t-201.5 -76t-223.5 -26.5zM564 682q0 -64 11 -127 t37 -120q35 71 63 131t55 119t55.5 120.5t64.5 135.5l102 207q-16 3 -33 5t-34 2q-61 0 -108.5 -23t-83 -61t-60.5 -87t-40 -102t-22 -105t-7 -95zM1198 756q0 54 -9.5 106t-29.5 98l-342 -698q30 -6 66 -6q64 5 112 29t83 62t58.5 86.5t37 102.5t19 110t5.5 110z" />
<glyph unicode="&#xd9;" horiz-adv-x="1378" d="M1381 1430q-2 -27 -7 -79.5t-11.5 -119t-13.5 -139.5t-13.5 -139.5t-11.5 -120.5t-7 -81q-21 -213 -71.5 -365.5t-132.5 -249.5t-196.5 -142.5t-264.5 -45.5q-103 0 -194 37.5t-159 105.5t-107.5 163.5t-39.5 212.5q0 15 2.5 54.5t7 96.5t10 129.5t11.5 154.5l12 166 q6 91 9 151.5t6.5 97.5t10.5 54t22 22l341 76q13 4 27 4q16 0 21.5 -9t5.5 -34l-76 -788q-2 -35 -7 -76t-5 -84q0 -26 6.5 -57t23.5 -58.5t46.5 -46t76.5 -18.5q57 0 92 24.5t56 65t30.5 92t15.5 105.5q5 63 12 148t14 182l29 399q2 18 2.5 30t2.5 20t8.5 12t20.5 6l341 83 q13 4 27 4t20.5 -8.5t6.5 -34.5zM667 1761q-23 42 -39 70t-30 53t-30 53.5t-38 70.5q-6 11 -7.5 21t-2.5 18q0 11 5 17.5t15 11.5q37 21 77.5 42.5t81.5 44t81.5 46.5t77.5 50q10 5 14 5q6 0 8 -8l112 -585q2 -13 4 -21.5t2 -16.5q0 -9 -3 -17t-13 -13q-21 -9 -39 -17 t-35.5 -16.5t-37 -18.5t-43.5 -25q-4 -4 -11 -4q-9 0 -20 13.5t-27.5 42t-41 74t-60.5 109.5z" />
<glyph unicode="&#xda;" horiz-adv-x="1378" d="M1381 1430q-2 -27 -7 -79.5t-11.5 -119t-13.5 -139.5t-13.5 -139.5t-11.5 -120.5t-7 -81q-21 -213 -71.5 -365.5t-132.5 -249.5t-196.5 -142.5t-264.5 -45.5q-103 0 -194 37.5t-159 105.5t-107.5 163.5t-39.5 212.5q0 15 2.5 54.5t7 96.5t10 129.5t11.5 154.5l12 166 q6 91 9 151.5t6.5 97.5t10.5 54t22 22l341 76q13 4 27 4q16 0 21.5 -9t5.5 -34l-76 -788q-2 -35 -7 -76t-5 -84q0 -26 6.5 -57t23.5 -58.5t46.5 -46t76.5 -18.5q57 0 92 24.5t56 65t30.5 92t15.5 105.5q5 63 12 148t14 182l29 399q2 18 2.5 30t2.5 20t8.5 12t20.5 6l341 83 q13 4 27 4t20.5 -8.5t6.5 -34.5zM804 1726q-44 -61 -73.5 -100.5t-48.5 -62.5t-30 -32t-18 -9q-6 0 -10 4q-21 14 -38 24.5t-32 19t-30.5 16.5t-34.5 17q-14 8 -14 21q1 8 3.5 19t8.5 28l185 537q5 14 10 19t11 5q5 0 10 -2.5t10 -5.5q78 -53 155.5 -90.5t153.5 -77.5 q18 -11 18 -27t-17 -41q-39 -45 -64.5 -74.5t-48 -56.5t-46.5 -57t-60 -74z" />
<glyph unicode="&#xdb;" horiz-adv-x="1378" d="M1381 1430q-2 -27 -7 -79.5t-11.5 -119t-13.5 -139.5t-13.5 -139.5t-11.5 -120.5t-7 -81q-21 -213 -71.5 -365.5t-132.5 -249.5t-196.5 -142.5t-264.5 -45.5q-103 0 -194 37.5t-159 105.5t-107.5 163.5t-39.5 212.5q0 15 2.5 54.5t7 96.5t10 129.5t11.5 154.5l12 166 q6 91 9 151.5t6.5 97.5t10.5 54t22 22l341 76q13 4 27 4q16 0 21.5 -9t5.5 -34l-76 -788q-2 -35 -7 -76t-5 -84q0 -26 6.5 -57t23.5 -58.5t46.5 -46t76.5 -18.5q57 0 92 24.5t56 65t30.5 92t15.5 105.5q5 63 12 148t14 182l29 399q2 18 2.5 30t2.5 20t8.5 12t20.5 6l341 83 q13 4 27 4t20.5 -8.5t6.5 -34.5zM1049 1996q22 -27 37.5 -48t27.5 -38t22 -32.5t22 -33.5q6 -9 19.5 -27t27 -38.5t24 -40.5t10.5 -33q0 -14 -19.5 -28t-46.5 -27t-54.5 -24t-43.5 -17q-14 -5 -30.5 -13.5t-33 -16.5t-30 -13.5t-20.5 -5.5q-8 0 -16.5 8.5t-21.5 30.5 l-129 275q-61 -78 -121.5 -152.5t-121.5 -152.5q-4 -7 -13 -7q-5 0 -23.5 8.5t-43.5 20t-51 24.5t-46 22l-27.5 12.5t-31.5 15.5t-25.5 16t-10.5 15q0 10 9 23t29 32l151 170q57 63 111 123t108 123q14 14 27.5 15.5t24.5 1.5h152q12 0 24 -2t20 -16q1 -2 13 -20l29 -43.5 t36.5 -54.5t35.5 -52z" />
<glyph unicode="&#xdc;" horiz-adv-x="1378" d="M1381 1430q-2 -27 -7 -79.5t-11.5 -119t-13.5 -139.5t-13.5 -139.5t-11.5 -120.5t-7 -81q-21 -213 -71.5 -365.5t-132.5 -249.5t-196.5 -142.5t-264.5 -45.5q-103 0 -194 37.5t-159 105.5t-107.5 163.5t-39.5 212.5q0 15 2.5 54.5t7 96.5t10 129.5t11.5 154.5l12 166 q6 91 9 151.5t6.5 97.5t10.5 54t22 22l341 76q13 4 27 4q16 0 21.5 -9t5.5 -34l-76 -788q-2 -35 -7 -76t-5 -84q0 -26 6.5 -57t23.5 -58.5t46.5 -46t76.5 -18.5q57 0 92 24.5t56 65t30.5 92t15.5 105.5q5 63 12 148t14 182l29 399q2 18 2.5 30t2.5 20t8.5 12t20.5 6l341 83 q13 4 27 4t20.5 -8.5t6.5 -34.5zM252 1562q3 57 4 82.5t1.5 36.5t0.5 15t0.5 18t2 45t4.5 96q2 30 7 41.5t20 13.5q78 0 165.5 1t162.5 1q10 0 14 -5.5t4 -20.5l-25 -278q-3 -29 -7 -40.5t-19 -13.5q-76 -1 -156.5 -1.5t-168.5 -0.5q-5 0 -7.5 1t-2.5 6v3zM878 1560 q3 63 4.5 93.5t2 43.5t0 17t0 15.5t2 38.5t5.5 86q2 29 6 40.5t19 13.5q79 0 166 0.5t162 1.5q8 0 13.5 -4t5.5 -16l-24 -283q-4 -30 -7.5 -41t-20.5 -13q-77 -1 -158.5 -2t-170.5 -1q-3 0 -4 0.5t-1 5.5v4z" />
<glyph unicode="&#xdd;" horiz-adv-x="1115" d="M119 1332q6 4 20.5 10.5t34 14.5t42 17.5t45.5 18.5l116 46q13 6 24 6q8 0 17.5 -4.5t21.5 -16.5l231 -448l6 15l99 183q19 34 37.5 67t33 59t24.5 42t12 16l343 86q12 3 20 3q23 0 23 -21q-1 -5 -2 -13.5t-6 -18.5l-294 -545q-22 -41 -44.5 -82t-43.5 -77.5t-37.5 -66.5 t-26.5 -49l-7 -33l-56 -375q-3 -17 -5 -28t-5.5 -18t-9 -12t-15.5 -10l-284 -149q-16 -8 -33.5 -13t-33.5 -5q-17 0 -29 7.5t-12 24.5v4q4 57 14.5 132.5t22.5 147.5l56 371q-16 34 -42 90t-56 121t-62.5 134t-61 130.5t-51 108.5t-33.5 69q-5 15 -5 31q0 9 2.5 17.5 t9.5 12.5zM702 1726q-44 -61 -73.5 -100.5t-48.5 -62.5t-30 -32t-18 -9q-6 0 -10 4q-21 14 -38 24.5t-32 19t-30.5 16.5t-34.5 17q-14 8 -14 21q1 8 3.5 19t8.5 28l185 537q5 14 10 19t11 5q5 0 10 -2.5t10 -5.5q78 -53 155.5 -90.5t153.5 -77.5q18 -11 18 -27t-17 -41 q-39 -45 -64.5 -74.5t-48 -56.5t-46.5 -57t-60 -74z" />
<glyph unicode="&#xde;" horiz-adv-x="1286" d="M1338 929q0 -92 -28.5 -169.5t-77.5 -140t-115 -110.5t-141.5 -80t-156.5 -48.5t-160 -16.5q-20 0 -39.5 1t-39.5 3l-27 -274l-17 -31q-1 -3 -17 -9.5t-41 -15.5t-56 -19.5l-62 -21t-59.5 -20t-47.5 -16.5q-14 -5 -33 -9t-36 -4q-14 0 -22 7t-8 27q2 34 5 75t6 85 t6.5 89.5t6.5 87.5l16 202q12 151 21 267t15 206q-30 -3 -36 -3q-21 0 -21 18l7.5 28t18 67.5t22.5 82.5t20 72q1 19 29 35l22 204l17 31q0 3 16 9.5t41 15t56.5 19l63 21t59.5 20.5t47 17q13 5 32.5 9t36.5 4q14 0 22 -7t8 -27q-2 -30 -4 -54.5t-4 -51.5t-4.5 -59t-5.5 -76 q57 3 102 3q114 0 216 -21t179 -71.5t122.5 -136t45.5 -214.5zM608 665q0 -11 4 -19.5t22 -8.5q22 0 51.5 8t61 23.5t61.5 39.5t53.5 56t38 72t14.5 88q0 70 -48.5 103t-126.5 33q-14 0 -30.5 -1.5t-30.5 -5.5t-24 -9.5t-11 -14.5l-2 -21.5t-5 -54.5t-7 -74t-8 -81.5 t-7.5 -75.5t-5.5 -57z" />
<glyph unicode="&#xdf;" horiz-adv-x="1365" d="M134 170q11 130 16 253.5t11 238t18 217t37 190t67.5 157.5t110 119.5t164 76t230.5 26.5q110 0 205.5 -28.5t166 -77.5t110.5 -113t40 -135q0 -75 -49.5 -152.5t-161.5 -147.5q60 -36 107.5 -65.5t80.5 -61.5t51 -72t18 -97q0 -87 -26.5 -166t-73 -147t-111.5 -123 t-142 -93.5t-164 -59.5t-177 -21q-18 0 -26 7t-12 24t-5 46.5t-4 73.5q-2 30 -4.5 54t-2.5 42q0 27 8.5 41.5t34.5 19.5q63 10 121 27.5t102 49t70.5 79t26.5 116.5q0 29 -18.5 50.5t-48 37t-65 25.5t-69.5 16.5t-62.5 10t-42.5 5.5q-13 2 -17.5 10t-4.5 19q0 14 15.5 36.5 t44.5 62.5l42 59q27 10 58.5 25t58.5 34.5t45 44t18 53.5q0 82 -35.5 125.5t-102.5 43.5q-19 0 -51 -7.5t-64 -27.5t-57 -55t-30 -89q-15 -105 -23 -199.5t-12.5 -180t-7.5 -163.5t-9 -151l-19 -265q-1 -14 -15 -20t-26 -6q-82 11 -165.5 23t-150.5 28q-20 5 -27 16t-7 23 q0 35 4 59t7 59z" />
<glyph unicode="&#xe0;" horiz-adv-x="1248" d="M1141 201q-1 -4 -1 -7.5v-6.5q0 -25 8 -41.5t17.5 -27t17.5 -17t8 -11.5q0 -14 -30 -26l-269 -115q-1 -1 -7 -1q-8 0 -16 14t-15.5 35.5t-14 46t-11.5 45.5q-63 -73 -136 -107t-145 -34q-84 0 -164 37t-142 105.5t-99.5 165.5t-37.5 218q0 143 41.5 261t112.5 203 t165.5 131.5t200.5 46.5q75 0 142 -30.5t127 -78.5q6 30 7 48t4.5 28t13.5 13.5t33 5.5q72 10 143.5 18.5t149.5 12.5zM842 578q10 57 13.5 107.5t5.5 92.5q-16 12 -34.5 25t-40 24.5t-45 18.5t-49.5 7q-54 0 -90.5 -35t-59 -86t-32 -108t-9.5 -101q0 -158 41.5 -231.5 t115.5 -73.5q30 0 67 17t75 47zM582 1427q-23 42 -39 70t-30 53t-30 53.5t-38 70.5q-6 11 -7.5 21t-2.5 18q0 11 5 17.5t15 11.5q37 21 77.5 42.5t81.5 44t81.5 46.5t77.5 50q10 5 14 5q6 0 8 -8l112 -585q2 -13 4 -21.5t2 -16.5q0 -9 -3 -17t-13 -13q-21 -9 -39 -17 t-35.5 -16.5t-37 -18.5t-43.5 -25q-4 -4 -11 -4q-9 0 -20 13.5t-27.5 42t-41 74t-60.5 109.5z" />
<glyph unicode="&#xe1;" horiz-adv-x="1248" d="M1141 201q-1 -4 -1 -7.5v-6.5q0 -25 8 -41.5t17.5 -27t17.5 -17t8 -11.5q0 -14 -30 -26l-269 -115q-1 -1 -7 -1q-8 0 -16 14t-15.5 35.5t-14 46t-11.5 45.5q-63 -73 -136 -107t-145 -34q-84 0 -164 37t-142 105.5t-99.5 165.5t-37.5 218q0 143 41.5 261t112.5 203 t165.5 131.5t200.5 46.5q75 0 142 -30.5t127 -78.5q6 30 7 48t4.5 28t13.5 13.5t33 5.5q72 10 143.5 18.5t149.5 12.5zM842 578q10 57 13.5 107.5t5.5 92.5q-16 12 -34.5 25t-40 24.5t-45 18.5t-49.5 7q-54 0 -90.5 -35t-59 -86t-32 -108t-9.5 -101q0 -158 41.5 -231.5 t115.5 -73.5q30 0 67 17t75 47zM719 1392q-44 -61 -73.5 -100.5t-48.5 -62.5t-30 -32t-18 -9q-6 0 -10 4q-21 14 -38 24.5t-32 19t-30.5 16.5t-34.5 17q-14 8 -14 21q1 8 3.5 19t8.5 28l185 537q5 14 10 19t11 5q5 0 10 -2.5t10 -5.5q78 -53 155.5 -90.5t153.5 -77.5 q18 -11 18 -27t-17 -41q-39 -45 -64.5 -74.5t-48 -56.5t-46.5 -57t-60 -74z" />
<glyph unicode="&#xe2;" horiz-adv-x="1248" d="M1141 201q-1 -4 -1 -7.5v-6.5q0 -25 8 -41.5t17.5 -27t17.5 -17t8 -11.5q0 -14 -30 -26l-269 -115q-1 -1 -7 -1q-8 0 -16 14t-15.5 35.5t-14 46t-11.5 45.5q-63 -73 -136 -107t-145 -34q-84 0 -164 37t-142 105.5t-99.5 165.5t-37.5 218q0 143 41.5 261t112.5 203 t165.5 131.5t200.5 46.5q75 0 142 -30.5t127 -78.5q6 30 7 48t4.5 28t13.5 13.5t33 5.5q72 10 143.5 18.5t149.5 12.5zM842 578q10 57 13.5 107.5t5.5 92.5q-16 12 -34.5 25t-40 24.5t-45 18.5t-49.5 7q-54 0 -90.5 -35t-59 -86t-32 -108t-9.5 -101q0 -158 41.5 -231.5 t115.5 -73.5q30 0 67 17t75 47zM964 1662q22 -27 37.5 -48t27.5 -38t22 -32.5t22 -33.5q6 -9 19.5 -27t27 -38.5t24 -40.5t10.5 -33q0 -14 -19.5 -28t-46.5 -27t-54.5 -24t-43.5 -17q-14 -5 -30.5 -13.5t-33 -16.5t-30 -13.5t-20.5 -5.5q-8 0 -16.5 8.5t-21.5 30.5l-129 275 q-61 -78 -121.5 -152.5t-121.5 -152.5q-4 -7 -13 -7q-5 0 -23.5 8.5t-43.5 20t-51 24.5t-46 22l-27.5 12.5t-31.5 15.5t-25.5 16t-10.5 15q0 10 9 23t29 32l151 170q57 63 111 123t108 123q14 14 27.5 15.5t24.5 1.5h152q12 0 24 -2t20 -16q1 -2 13 -20l29 -43.5t36.5 -54.5 t35.5 -52z" />
<glyph unicode="&#xe3;" horiz-adv-x="1248" d="M1141 201q-1 -4 -1 -7.5v-6.5q0 -25 8 -41.5t17.5 -27t17.5 -17t8 -11.5q0 -14 -30 -26l-269 -115q-1 -1 -7 -1q-8 0 -16 14t-15.5 35.5t-14 46t-11.5 45.5q-63 -73 -136 -107t-145 -34q-84 0 -164 37t-142 105.5t-99.5 165.5t-37.5 218q0 143 41.5 261t112.5 203 t165.5 131.5t200.5 46.5q75 0 142 -30.5t127 -78.5q6 30 7 48t4.5 28t13.5 13.5t33 5.5q72 10 143.5 18.5t149.5 12.5zM842 578q10 57 13.5 107.5t5.5 92.5q-16 12 -34.5 25t-40 24.5t-45 18.5t-49.5 7q-54 0 -90.5 -35t-59 -86t-32 -108t-9.5 -101q0 -158 41.5 -231.5 t115.5 -73.5q30 0 67 17t75 47zM784 1579q19 -26 35.5 -37t38.5 -11q31 0 44.5 16.5t19 37t8.5 37t12 16.5q2 0 16.5 0.5t35.5 1.5t46 2t47 2.5t38.5 2t20.5 0.5q8 0 17 -4t9 -15q0 -72 -25.5 -145.5t-72 -133.5t-111.5 -97.5t-144 -37.5q-32 0 -63.5 6t-63 22.5t-63.5 46 t-65 77.5q-17 24 -35.5 30.5t-44.5 6.5q-24 0 -39 -10t-24 -26t-12.5 -35.5t-3.5 -38.5q0 -8 -8 -15.5t-21 -7.5q-32 0 -51.5 -0.5t-36 -1t-35 -1t-48.5 -0.5q-11 0 -20.5 4t-9.5 13q0 94 27 171.5t73.5 132.5t108.5 85.5t133 30.5q40 0 74.5 -3t67 -15t63 -37t62.5 -70z " />
<glyph unicode="&#xe4;" horiz-adv-x="1248" d="M1141 201q-1 -4 -1 -7.5v-6.5q0 -25 8 -41.5t17.5 -27t17.5 -17t8 -11.5q0 -14 -30 -26l-269 -115q-1 -1 -7 -1q-8 0 -16 14t-15.5 35.5t-14 46t-11.5 45.5q-63 -73 -136 -107t-145 -34q-84 0 -164 37t-142 105.5t-99.5 165.5t-37.5 218q0 143 41.5 261t112.5 203 t165.5 131.5t200.5 46.5q75 0 142 -30.5t127 -78.5q6 30 7 48t4.5 28t13.5 13.5t33 5.5q72 10 143.5 18.5t149.5 12.5zM842 578q10 57 13.5 107.5t5.5 92.5q-16 12 -34.5 25t-40 24.5t-45 18.5t-49.5 7q-54 0 -90.5 -35t-59 -86t-32 -108t-9.5 -101q0 -158 41.5 -231.5 t115.5 -73.5q30 0 67 17t75 47zM167 1228q3 57 4 82.5t1.5 36.5t0.5 15t0.5 18t2 45t4.5 96q2 30 7 41.5t20 13.5q78 0 165.5 1t162.5 1q10 0 14 -5.5t4 -20.5l-25 -278q-3 -29 -7 -40.5t-19 -13.5q-76 -1 -156.5 -1.5t-168.5 -0.5q-5 0 -7.5 1t-2.5 6v3zM793 1226 q3 63 4.5 93.5t2 43.5t0 17t0 15.5t2 38.5t5.5 86q2 29 6 40.5t19 13.5q79 0 166 0.5t162 1.5q8 0 13.5 -4t5.5 -16l-24 -283q-4 -30 -7.5 -41t-20.5 -13q-77 -1 -158.5 -2t-170.5 -1q-3 0 -4 0.5t-1 5.5v4z" />
<glyph unicode="&#xe5;" horiz-adv-x="1248" d="M1141 201q-1 -4 -1 -7.5v-6.5q0 -25 8 -41.5t17.5 -27t17.5 -17t8 -11.5q0 -14 -30 -26l-269 -115q-1 -1 -7 -1q-8 0 -16 14t-15.5 35.5t-14 46t-11.5 45.5q-63 -73 -136 -107t-145 -34q-84 0 -164 37t-142 105.5t-99.5 165.5t-37.5 218q0 143 41.5 261t112.5 203 t165.5 131.5t200.5 46.5q75 0 142 -30.5t127 -78.5q6 30 7 48t4.5 28t13.5 13.5t33 5.5q72 10 143.5 18.5t149.5 12.5zM842 578q10 57 13.5 107.5t5.5 92.5q-16 12 -34.5 25t-40 24.5t-45 18.5t-49.5 7q-54 0 -90.5 -35t-59 -86t-32 -108t-9.5 -101q0 -158 41.5 -231.5 t115.5 -73.5q30 0 67 17t75 47zM671 1192q-59 0 -110 18t-88.5 52t-59 83t-21.5 112q0 57 23 108t63 89t94.5 60.5t117.5 22.5q55 0 103.5 -18t84.5 -51t56.5 -80t20.5 -104q0 -54 -20 -106.5t-56.5 -94t-89 -66.5t-118.5 -25zM775 1458q1 5 1 10v10q0 18 -4 38.5t-14 38 t-26 28.5t-40 11q-33 0 -57.5 -12.5t-40 -32t-23 -44t-7.5 -49.5q0 -19 4 -39.5t14 -37.5t27 -28.5t44 -12.5q30 0 51.5 10.5t36 28t23 39t11.5 42.5z" />
<glyph unicode="&#xe6;" horiz-adv-x="1917" d="M1083 890q78 105 182 166t231 61q47 0 96.5 -14.5t96 -41.5t88 -65.5t72 -85.5t48.5 -101.5t18 -114.5q0 -35 -5.5 -72t-15.5 -74q0 -30 -14 -43t-46.5 -19.5t-84.5 -12.5t-128 -22q-48 -10 -97.5 -17l-99 -14t-99 -15t-97.5 -20q4 -45 27.5 -78t59.5 -54.5t82 -31.5 t95 -10q48 0 92.5 9.5t85.5 24.5t79 34t72 38q9 2 15.5 3.5t12.5 1.5l-0.5 -16.5t-0.5 -47t-0.5 -73.5t-1.5 -95q5 -10 5 -18t-5 -13t-11 -9q-33 -18 -80.5 -37.5t-102.5 -36t-112.5 -27t-109.5 -10.5q-60 0 -119 12t-113.5 35t-103 57t-88.5 78q-54 -47 -112 -81 t-117.5 -56.5t-118 -33.5t-112.5 -11q-84 0 -164 37t-142 105.5t-99.5 165.5t-37.5 218q0 143 41.5 261t112.5 202.5t165.5 131t200.5 46.5q141 0 260 -27.5t229 -70.5zM829 273q14 124 23 212t15 148.5t9 99.5t4 66q-35 14 -83.5 29.5t-105.5 15.5q-54 0 -90.5 -35t-59 -86 t-32 -108t-9.5 -101q0 -158 41.5 -231.5t115.5 -73.5q37 0 80.5 17t91.5 47zM1471 850q-47 0 -86 -17.5t-70.5 -50t-55.5 -78t-40 -100.5l411 81q0 4 0.5 8t0.5 8q0 37 -15 65t-38 46.5t-51.5 28t-55.5 9.5z" />
<glyph unicode="&#xe7;" horiz-adv-x="1056" d="M102 488q0 131 48.5 245.5t134 199.5t202 134t253.5 49q93 0 159 -15t108 -33.5t61.5 -34t19.5 -16.5q0 -6 -4.5 -33.5t-10 -64t-10 -75t-4.5 -66.5q0 -5 -3 -11t-16 -6q-12 0 -35 8.5t-56.5 18.5t-77 18.5t-96.5 8.5q-66 0 -119 -23.5t-91 -65t-58.5 -98.5t-20.5 -123 q0 -69 21.5 -117.5t57.5 -79t83 -44.5t99 -14q60 0 121 16.5t115 46.5q2 1 8 1q5 0 7.5 -5t2.5 -19v-77.5t-0.5 -87t-1.5 -70.5t-2 -29q-36 -24 -78 -39t-86.5 -24t-89.5 -12t-87 -3q-117 0 -218 39t-175.5 110t-117.5 170.5t-43 220.5zM814 -386q-9 -47 -34 -85.5t-60 -66 t-78.5 -43t-89.5 -15.5q-42 0 -88.5 6t-81.5 26l2 -1q-1 1 -1 8q0 11 1.5 30t4 40.5t6 41.5t7.5 33h5q6 0 6 -2h-1q16 -7 30 -11.5t29.5 -7.5t34 -4t43.5 -1q42 0 65 25t23 57q0 30 -18.5 49.5t-50.5 19.5q-55 0 -94 4t-54 4q-8 0 -9.5 4t-1.5 9q5 10 11.5 31.5t13.5 48 t13.5 55.5t12 53.5t9 41t3.5 19.5h19q17 0 44 -0.5t53 -0.5h63l-48 -141q17 2 31.5 3.5t27.5 1.5q51 0 81.5 -16.5t47 -42.5t22 -59t5.5 -67q0 -12 -1 -23.5t-3 -23.5z" />
<glyph unicode="&#xe8;" horiz-adv-x="1142" d="M716 1116q95 0 172.5 -35.5t133 -92t85.5 -126.5t30 -140q0 -62 -38 -124.5t-106.5 -112.5t-164.5 -81t-211 -31q-60 0 -126 12q4 -43 25 -74t53 -51t72.5 -29.5t83.5 -9.5q48 0 92.5 8.5t85.5 22.5t79 31t72 34q9 2 15.5 3.5t12.5 1.5l-0.5 -16t-0.5 -45t-0.5 -70 t-1.5 -91q3 -5 4 -10t1 -8q0 -12 -22 -26t-57.5 -29t-81 -29t-92.5 -25.5t-91 -18t-77 -6.5q-108 0 -209.5 37.5t-180 107.5t-125.5 170t-47 225q0 131 45 245.5t126.5 199.5t194.5 134t249 49zM704 850q-41 0 -75.5 -17.5t-63 -50t-49.5 -78t-34 -100.5q103 18 171 38 t109 40.5t58 41t17 39.5q0 18 -13.5 34t-33.5 28t-43.5 18.5t-42.5 6.5zM560 1427q-23 42 -39 70t-30 53t-30 53.5t-38 70.5q-6 11 -7.5 21t-2.5 18q0 11 5 17.5t15 11.5q37 21 77.5 42.5t81.5 44t81.5 46.5t77.5 50q10 5 14 5q6 0 8 -8l112 -585q2 -13 4 -21.5t2 -16.5 q0 -9 -3 -17t-13 -13q-21 -9 -39 -17t-35.5 -16.5t-37 -18.5t-43.5 -25q-4 -4 -11 -4q-9 0 -20 13.5t-27.5 42t-41 74t-60.5 109.5z" />
<glyph unicode="&#xe9;" horiz-adv-x="1142" d="M716 1116q95 0 172.5 -35.5t133 -92t85.5 -126.5t30 -140q0 -62 -38 -124.5t-106.5 -112.5t-164.5 -81t-211 -31q-60 0 -126 12q4 -43 25 -74t53 -51t72.5 -29.5t83.5 -9.5q48 0 92.5 8.5t85.5 22.5t79 31t72 34q9 2 15.5 3.5t12.5 1.5l-0.5 -16t-0.5 -45t-0.5 -70 t-1.5 -91q3 -5 4 -10t1 -8q0 -12 -22 -26t-57.5 -29t-81 -29t-92.5 -25.5t-91 -18t-77 -6.5q-108 0 -209.5 37.5t-180 107.5t-125.5 170t-47 225q0 131 45 245.5t126.5 199.5t194.5 134t249 49zM704 850q-41 0 -75.5 -17.5t-63 -50t-49.5 -78t-34 -100.5q103 18 171 38 t109 40.5t58 41t17 39.5q0 18 -13.5 34t-33.5 28t-43.5 18.5t-42.5 6.5zM697 1392q-44 -61 -73.5 -100.5t-48.5 -62.5t-30 -32t-18 -9q-6 0 -10 4q-21 14 -38 24.5t-32 19t-30.5 16.5t-34.5 17q-14 8 -14 21q1 8 3.5 19t8.5 28l185 537q5 14 10 19t11 5q5 0 10 -2.5t10 -5.5 q78 -53 155.5 -90.5t153.5 -77.5q18 -11 18 -27t-17 -41q-39 -45 -64.5 -74.5t-48 -56.5t-46.5 -57t-60 -74z" />
<glyph unicode="&#xea;" horiz-adv-x="1142" d="M716 1116q95 0 172.5 -35.5t133 -92t85.5 -126.5t30 -140q0 -62 -38 -124.5t-106.5 -112.5t-164.5 -81t-211 -31q-60 0 -126 12q4 -43 25 -74t53 -51t72.5 -29.5t83.5 -9.5q48 0 92.5 8.5t85.5 22.5t79 31t72 34q9 2 15.5 3.5t12.5 1.5l-0.5 -16t-0.5 -45t-0.5 -70 t-1.5 -91q3 -5 4 -10t1 -8q0 -12 -22 -26t-57.5 -29t-81 -29t-92.5 -25.5t-91 -18t-77 -6.5q-108 0 -209.5 37.5t-180 107.5t-125.5 170t-47 225q0 131 45 245.5t126.5 199.5t194.5 134t249 49zM704 850q-41 0 -75.5 -17.5t-63 -50t-49.5 -78t-34 -100.5q103 18 171 38 t109 40.5t58 41t17 39.5q0 18 -13.5 34t-33.5 28t-43.5 18.5t-42.5 6.5zM933 1662q22 -27 37.5 -48t27.5 -38t22 -32.5t22 -33.5q6 -9 19.5 -27t27 -38.5t24 -40.5t10.5 -33q0 -14 -19.5 -28t-46.5 -27t-54.5 -24t-43.5 -17q-14 -5 -30.5 -13.5t-33 -16.5t-30 -13.5 t-20.5 -5.5q-8 0 -16.5 8.5t-21.5 30.5l-129 275q-61 -78 -121.5 -152.5t-121.5 -152.5q-4 -7 -13 -7q-5 0 -23.5 8.5t-43.5 20t-51 24.5t-46 22l-27.5 12.5t-31.5 15.5t-25.5 16t-10.5 15q0 10 9 23t29 32l151 170q57 63 111 123t108 123q14 14 27.5 15.5t24.5 1.5h152 q12 0 24 -2t20 -16q1 -2 13 -20l29 -43.5t36.5 -54.5t35.5 -52z" />
<glyph unicode="&#xeb;" horiz-adv-x="1142" d="M716 1116q95 0 172.5 -35.5t133 -92t85.5 -126.5t30 -140q0 -62 -38 -124.5t-106.5 -112.5t-164.5 -81t-211 -31q-60 0 -126 12q4 -43 25 -74t53 -51t72.5 -29.5t83.5 -9.5q48 0 92.5 8.5t85.5 22.5t79 31t72 34q9 2 15.5 3.5t12.5 1.5l-0.5 -16t-0.5 -45t-0.5 -70 t-1.5 -91q3 -5 4 -10t1 -8q0 -12 -22 -26t-57.5 -29t-81 -29t-92.5 -25.5t-91 -18t-77 -6.5q-108 0 -209.5 37.5t-180 107.5t-125.5 170t-47 225q0 131 45 245.5t126.5 199.5t194.5 134t249 49zM704 850q-41 0 -75.5 -17.5t-63 -50t-49.5 -78t-34 -100.5q103 18 171 38 t109 40.5t58 41t17 39.5q0 18 -13.5 34t-33.5 28t-43.5 18.5t-42.5 6.5zM145 1228q3 57 4 82.5t1.5 36.5t0.5 15t0.5 18t2 45t4.5 96q2 30 7 41.5t20 13.5q78 0 165.5 1t162.5 1q10 0 14 -5.5t4 -20.5l-25 -278q-3 -29 -7 -40.5t-19 -13.5q-76 -1 -156.5 -1.5t-168.5 -0.5 q-5 0 -7.5 1t-2.5 6v3zM771 1226q3 63 4.5 93.5t2 43.5t0 17t0 15.5t2 38.5t5.5 86q2 29 6 40.5t19 13.5q79 0 166 0.5t162 1.5q8 0 13.5 -4t5.5 -16l-24 -283q-4 -30 -7.5 -41t-20.5 -13q-77 -1 -158.5 -2t-170.5 -1q-3 0 -4 0.5t-1 5.5v4z" />
<glyph unicode="&#xec;" horiz-adv-x="611" d="M146 424q14 137 26 271t23 275q2 33 6.5 45.5t22.5 16.5q85 17 178 35.5t180 47.5q3 1 9 1q11 0 11 -8l-90 -990q-3 -33 -7 -45.5t-22 -16.5q-85 -26 -172 -58.5t-184 -64.5q-3 -1 -9 -1q-11 0 -11 10q0 1 2 28t5.5 69t7.5 95t8.5 106t8.5 101.5t7 82.5zM284 1427 q-23 42 -39 70t-30 53t-30 53.5t-38 70.5q-6 11 -7.5 21t-2.5 18q0 11 5 17.5t15 11.5q37 21 77.5 42.5t81.5 44t81.5 46.5t77.5 50q10 5 14 5q6 0 8 -8l112 -585q2 -13 4 -21.5t2 -16.5q0 -9 -3 -17t-13 -13q-21 -9 -39 -17t-35.5 -16.5t-37 -18.5t-43.5 -25q-4 -4 -11 -4 q-9 0 -20 13.5t-27.5 42t-41 74t-60.5 109.5z" />
<glyph unicode="&#xed;" horiz-adv-x="611" d="M146 424q14 137 26 271t23 275q2 33 6.5 45.5t22.5 16.5q85 17 178 35.5t180 47.5q3 1 9 1q11 0 11 -8l-90 -990q-3 -33 -7 -45.5t-22 -16.5q-85 -26 -172 -58.5t-184 -64.5q-3 -1 -9 -1q-11 0 -11 10q0 1 2 28t5.5 69t7.5 95t8.5 106t8.5 101.5t7 82.5zM421 1392 q-44 -61 -73.5 -100.5t-48.5 -62.5t-30 -32t-18 -9q-6 0 -10 4q-21 14 -38 24.5t-32 19t-30.5 16.5t-34.5 17q-14 8 -14 21q1 8 3.5 19t8.5 28l185 537q5 14 10 19t11 5q5 0 10 -2.5t10 -5.5q78 -53 155.5 -90.5t153.5 -77.5q18 -11 18 -27t-17 -41q-39 -45 -64.5 -74.5 t-48 -56.5t-46.5 -57t-60 -74z" />
<glyph unicode="&#xee;" horiz-adv-x="611" d="M146 424q14 137 26 271t23 275q2 33 6.5 45.5t22.5 16.5q85 17 178 35.5t180 47.5q3 1 9 1q11 0 11 -8l-90 -990q-3 -33 -7 -45.5t-22 -16.5q-85 -26 -172 -58.5t-184 -64.5q-3 -1 -9 -1q-11 0 -11 10q0 1 2 28t5.5 69t7.5 95t8.5 106t8.5 101.5t7 82.5zM669 1662 q22 -27 37.5 -48t27.5 -38t22 -32.5t22 -33.5q6 -9 19.5 -27t27 -38.5t24 -40.5t10.5 -33q0 -14 -19.5 -28t-46.5 -27t-54.5 -24t-43.5 -17q-14 -5 -30.5 -13.5t-33 -16.5t-30 -13.5t-20.5 -5.5q-8 0 -16.5 8.5t-21.5 30.5l-129 275q-61 -78 -121.5 -152.5t-121.5 -152.5 q-4 -7 -13 -7q-5 0 -23.5 8.5t-43.5 20t-51 24.5t-46 22l-27.5 12.5t-31.5 15.5t-25.5 16t-10.5 15q0 10 9 23t29 32l151 170q57 63 111 123t108 123q14 14 27.5 15.5t24.5 1.5h152q12 0 24 -2t20 -16q1 -2 13 -20l29 -43.5t36.5 -54.5t35.5 -52z" />
<glyph unicode="&#xef;" horiz-adv-x="611" d="M146 424q14 137 26 271t23 275q2 33 6.5 45.5t22.5 16.5q85 17 178 35.5t180 47.5q3 1 9 1q11 0 11 -8l-90 -990q-3 -33 -7 -45.5t-22 -16.5q-85 -26 -172 -58.5t-184 -64.5q-3 -1 -9 -1q-11 0 -11 10q0 1 2 28t5.5 69t7.5 95t8.5 106t8.5 101.5t7 82.5zM-128 1228 q3 57 4 82.5t1.5 36.5t0.5 15t0.5 18t2 45t4.5 96q2 30 7 41.5t20 13.5q78 0 165.5 1t162.5 1q10 0 14 -5.5t4 -20.5l-25 -278q-3 -29 -7 -40.5t-19 -13.5q-76 -1 -156.5 -1.5t-168.5 -0.5q-5 0 -7.5 1t-2.5 6v3zM498 1226q3 63 4.5 93.5t2 43.5t0 17t0 15.5t2 38.5t5.5 86 q2 29 6 40.5t19 13.5q79 0 166 0.5t162 1.5q8 0 13.5 -4t5.5 -16l-24 -283q-4 -30 -7.5 -41t-20.5 -13q-77 -1 -158.5 -2t-170.5 -1q-3 0 -4 0.5t-1 5.5v4z" />
<glyph unicode="&#xf0;" horiz-adv-x="1325" d="M550 1101q-9 -3 -16 -3q-15 0 -37 15.5t-43 35t-36 37.5t-15 24q0 17 87 48l98 30q-11 19 -26.5 42.5t-30 45.5t-25 39.5t-10.5 23.5q0 15 25 22t45.5 14.5t40 16.5t39.5 20.5t44 25.5q7 4 14 4t12 -3t8 -6q32 -38 67.5 -78t71.5 -82l141 44q18 6 27 6q8 0 13.5 -3.5 t10.5 -8.5l37 -51q27 -38 39.5 -57t13.5 -24q0 -8 -7 -13.5t-10 -6.5l-134 -44q63 -80 120 -165.5t100.5 -175.5t69.5 -185t26 -194q0 -67 -16.5 -133.5t-50 -127.5t-85 -113t-121.5 -90.5t-159 -60.5t-198 -22q-137 0 -243.5 50t-180 130.5t-112 181t-38.5 201.5 q0 96 28 188t86 163t146.5 114.5t209.5 43.5q58 0 94.5 -11.5t55.5 -25.5q-12 34 -26.5 71t-31.5 75zM525 495q3 -45 16 -95.5t38 -92.5t64 -69.5t95 -27.5q38 0 61.5 20t36.5 51.5t17.5 69.5t4.5 73q0 52 -3 89t-10.5 70t-20.5 68.5t-32 85.5q-24 9 -38.5 12.5t-33.5 3.5 q-54 0 -91 -18.5t-60.5 -49.5t-34 -72t-10.5 -86v-16t1 -16z" />
<glyph unicode="&#xf1;" horiz-adv-x="1322" d="M950 -36q-11 -3 -29 -9.5t-35 -6.5q-14 0 -24.5 7t-10.5 24v6q6 54 10 91.5t7.5 68t6 61t6.5 71t9.5 96t13.5 138.5q5 51 9 104t4 98q0 30 -4.5 55.5t-16 44t-31.5 28.5t-51 10q-23 0 -63.5 -10t-80.5 -33t-71 -60.5t-35 -92.5q-6 -74 -11 -126.5t-9 -89t-6.5 -59.5 t-3.5 -39q-1 -4 -3 -22t-4.5 -43t-5 -53t-5 -53t-4 -43t-1.5 -22q0 -8 0.5 -13.5t0.5 -10.5q0 -8 -7.5 -13.5t-33.5 -12.5l-265 -91q-11 -4 -29 -10t-35 -6q-14 0 -24.5 7t-10.5 24l91 1022q3 33 7.5 45.5t22.5 16.5q91 18 187 36.5t187 47.5q8 0 9.5 -2.5t1.5 -7.5 q0 -2 -0.5 -6t-3 -18t-7 -42.5t-12.5 -79.5q69 40 129.5 64.5t114 38t100.5 18t88 4.5q141 0 205 -85.5t64 -256.5q0 -24 -1 -49.5t-4 -52.5l-46 -430q-5 -42 -6 -77.5t-1 -82.5q0 -8 0.5 -13.5t0.5 -9.5q0 -9 -7.5 -14t-33.5 -13zM807 1579q19 -26 35.5 -37t38.5 -11 q31 0 44.5 16.5t19 37t8.5 37t12 16.5q2 0 16.5 0.5t35.5 1.5t46 2t47 2.5t38.5 2t20.5 0.5q8 0 17 -4t9 -15q0 -72 -25.5 -145.5t-72 -133.5t-111.5 -97.5t-144 -37.5q-32 0 -63.5 6t-63 22.5t-63.5 46t-65 77.5q-17 24 -35.5 30.5t-44.5 6.5q-24 0 -39 -10t-24 -26 t-12.5 -35.5t-3.5 -38.5q0 -8 -8 -15.5t-21 -7.5q-32 0 -51.5 -0.5t-36 -1t-35 -1t-48.5 -0.5q-11 0 -20.5 4t-9.5 13q0 94 27 171.5t73.5 132.5t108.5 85.5t133 30.5q40 0 74.5 -3t67 -15t63 -37t62.5 -70z" />
<glyph unicode="&#xf2;" horiz-adv-x="1313" d="M670 -52q-141 0 -247.5 46t-178.5 122.5t-108 176t-36 206.5t35 203.5t98 173t151 128t194 69.5q16 1 16 7q0 11 -2.5 20.5t-2.5 16.5q0 11 4 15t9 4q191 0 325 -43.5t218 -118.5t122 -177t38 -219q0 -149 -50 -266t-136.5 -198t-202 -123.5t-246.5 -42.5zM485 510 q0 -54 11.5 -107t38 -96t69.5 -69.5t107 -26.5q46 2 80.5 20.5t59.5 48t41.5 66.5t26 76.5t13.5 77.5t4 69q0 52 -15.5 102t-45.5 88t-74.5 61.5t-102.5 23.5q-60 0 -101 -35.5t-65.5 -87.5t-35.5 -109.5t-11 -101.5zM613 1427q-23 42 -39 70t-30 53t-30 53.5t-38 70.5 q-6 11 -7.5 21t-2.5 18q0 11 5 17.5t15 11.5q37 21 77.5 42.5t81.5 44t81.5 46.5t77.5 50q10 5 14 5q6 0 8 -8l112 -585q2 -13 4 -21.5t2 -16.5q0 -9 -3 -17t-13 -13q-21 -9 -39 -17t-35.5 -16.5t-37 -18.5t-43.5 -25q-4 -4 -11 -4q-9 0 -20 13.5t-27.5 42t-41 74 t-60.5 109.5z" />
<glyph unicode="&#xf3;" horiz-adv-x="1313" d="M670 -52q-141 0 -247.5 46t-178.5 122.5t-108 176t-36 206.5t35 203.5t98 173t151 128t194 69.5q16 1 16 7q0 11 -2.5 20.5t-2.5 16.5q0 11 4 15t9 4q191 0 325 -43.5t218 -118.5t122 -177t38 -219q0 -149 -50 -266t-136.5 -198t-202 -123.5t-246.5 -42.5zM485 510 q0 -54 11.5 -107t38 -96t69.5 -69.5t107 -26.5q46 2 80.5 20.5t59.5 48t41.5 66.5t26 76.5t13.5 77.5t4 69q0 52 -15.5 102t-45.5 88t-74.5 61.5t-102.5 23.5q-60 0 -101 -35.5t-65.5 -87.5t-35.5 -109.5t-11 -101.5zM749 1392q-44 -61 -73.5 -100.5t-48.5 -62.5t-30 -32 t-18 -9q-6 0 -10 4q-21 14 -38 24.5t-32 19t-30.5 16.5t-34.5 17q-14 8 -14 21q1 8 3.5 19t8.5 28l185 537q5 14 10 19t11 5q5 0 10 -2.5t10 -5.5q78 -53 155.5 -90.5t153.5 -77.5q18 -11 18 -27t-17 -41q-39 -45 -64.5 -74.5t-48 -56.5t-46.5 -57t-60 -74z" />
<glyph unicode="&#xf4;" horiz-adv-x="1313" d="M670 -52q-141 0 -247.5 46t-178.5 122.5t-108 176t-36 206.5t35 203.5t98 173t151 128t194 69.5q16 1 16 7q0 11 -2.5 20.5t-2.5 16.5q0 11 4 15t9 4q191 0 325 -43.5t218 -118.5t122 -177t38 -219q0 -149 -50 -266t-136.5 -198t-202 -123.5t-246.5 -42.5zM485 510 q0 -54 11.5 -107t38 -96t69.5 -69.5t107 -26.5q46 2 80.5 20.5t59.5 48t41.5 66.5t26 76.5t13.5 77.5t4 69q0 52 -15.5 102t-45.5 88t-74.5 61.5t-102.5 23.5q-60 0 -101 -35.5t-65.5 -87.5t-35.5 -109.5t-11 -101.5zM991 1662q22 -27 37.5 -48t27.5 -38t22 -32.5t22 -33.5 q6 -9 19.5 -27t27 -38.5t24 -40.5t10.5 -33q0 -14 -19.5 -28t-46.5 -27t-54.5 -24t-43.5 -17q-14 -5 -30.5 -13.5t-33 -16.5t-30 -13.5t-20.5 -5.5q-8 0 -16.5 8.5t-21.5 30.5l-129 275q-61 -78 -121.5 -152.5t-121.5 -152.5q-4 -7 -13 -7q-5 0 -23.5 8.5t-43.5 20t-51 24.5 t-46 22l-27.5 12.5t-31.5 15.5t-25.5 16t-10.5 15q0 10 9 23t29 32l151 170q57 63 111 123t108 123q14 14 27.5 15.5t24.5 1.5h152q12 0 24 -2t20 -16q1 -2 13 -20l29 -43.5t36.5 -54.5t35.5 -52z" />
<glyph unicode="&#xf5;" horiz-adv-x="1313" d="M670 -52q-141 0 -247.5 46t-178.5 122.5t-108 176t-36 206.5t35 203.5t98 173t151 128t194 69.5q16 1 16 7q0 11 -2.5 20.5t-2.5 16.5q0 11 4 15t9 4q191 0 325 -43.5t218 -118.5t122 -177t38 -219q0 -149 -50 -266t-136.5 -198t-202 -123.5t-246.5 -42.5zM485 510 q0 -54 11.5 -107t38 -96t69.5 -69.5t107 -26.5q46 2 80.5 20.5t59.5 48t41.5 66.5t26 76.5t13.5 77.5t4 69q0 52 -15.5 102t-45.5 88t-74.5 61.5t-102.5 23.5q-60 0 -101 -35.5t-65.5 -87.5t-35.5 -109.5t-11 -101.5zM815 1579q19 -26 35.5 -37t38.5 -11q31 0 44.5 16.5 t19 37t8.5 37t12 16.5q2 0 16.5 0.5t35.5 1.5t46 2t47 2.5t38.5 2t20.5 0.5q8 0 17 -4t9 -15q0 -72 -25.5 -145.5t-72 -133.5t-111.5 -97.5t-144 -37.5q-32 0 -63.5 6t-63 22.5t-63.5 46t-65 77.5q-17 24 -35.5 30.5t-44.5 6.5q-24 0 -39 -10t-24 -26t-12.5 -35.5 t-3.5 -38.5q0 -8 -8 -15.5t-21 -7.5q-32 0 -51.5 -0.5t-36 -1t-35 -1t-48.5 -0.5q-11 0 -20.5 4t-9.5 13q0 94 27 171.5t73.5 132.5t108.5 85.5t133 30.5q40 0 74.5 -3t67 -15t63 -37t62.5 -70z" />
<glyph unicode="&#xf6;" horiz-adv-x="1313" d="M670 -52q-141 0 -247.5 46t-178.5 122.5t-108 176t-36 206.5t35 203.5t98 173t151 128t194 69.5q16 1 16 7q0 11 -2.5 20.5t-2.5 16.5q0 11 4 15t9 4q191 0 325 -43.5t218 -118.5t122 -177t38 -219q0 -149 -50 -266t-136.5 -198t-202 -123.5t-246.5 -42.5zM485 510 q0 -54 11.5 -107t38 -96t69.5 -69.5t107 -26.5q46 2 80.5 20.5t59.5 48t41.5 66.5t26 76.5t13.5 77.5t4 69q0 52 -15.5 102t-45.5 88t-74.5 61.5t-102.5 23.5q-60 0 -101 -35.5t-65.5 -87.5t-35.5 -109.5t-11 -101.5zM198 1228q3 57 4 82.5t1.5 36.5t0.5 15t0.5 18t2 45 t4.5 96q2 30 7 41.5t20 13.5q78 0 165.5 1t162.5 1q10 0 14 -5.5t4 -20.5l-25 -278q-3 -29 -7 -40.5t-19 -13.5q-76 -1 -156.5 -1.5t-168.5 -0.5q-5 0 -7.5 1t-2.5 6v3zM824 1226q3 63 4.5 93.5t2 43.5t0 17t0 15.5t2 38.5t5.5 86q2 29 6 40.5t19 13.5q79 0 166 0.5t162 1.5 q8 0 13.5 -4t5.5 -16l-24 -283q-4 -30 -7.5 -41t-20.5 -13q-77 -1 -158.5 -2t-170.5 -1q-3 0 -4 0.5t-1 5.5v4z" />
<glyph unicode="&#xf7;" horiz-adv-x="1362" d="M566 937q2 47 3 74.5t1.5 42.5t0.5 21v11.5t0.5 13.5t1.5 26.5t3 51t5 86.5q2 33 6.5 45.5t22.5 15.5q88 0 184 0.5t181 1.5q9 0 15 -5t6 -19l-28 -314q-4 -33 -7.5 -45.5t-22.5 -14.5q-85 -1 -174.5 -2t-186.5 -1q-6 0 -8.5 1t-2.5 6v4zM546 -38q2 47 3 74.5t1.5 42.5 t0.5 21v11.5t0.5 13.5t1.5 26.5t3 51t5 86.5q2 33 6.5 45.5t22.5 15.5q88 0 184 0.5t181 1.5q9 0 15 -5t6 -19l-28 -314q-4 -33 -7.5 -45.5t-22.5 -14.5q-85 -1 -174.5 -2t-186.5 -1q-6 0 -8.5 1t-2.5 6v4zM576 815q137 2 261 4t224.5 3.5t171 2.5t100.5 1q1 0 6.5 -0.5 t12 -5t12 -14t5.5 -27.5q-2 -14 -7.5 -38.5t-12 -56.5t-14 -69t-14.5 -75q-3 -17 -10.5 -25.5t-36.5 -8.5q-104 -1 -209.5 -2.5t-207 -2.5t-195.5 -2t-176.5 -1.5t-150 -1t-114.5 -0.5q-61 0 -93 6t-32 25q0 8 8 31.5t21.5 54t30.5 64t35 61.5t35 46t31 18z" />
<glyph unicode="&#xf8;" horiz-adv-x="1310" d="M581 -57q-11 0 -21.5 0.5t-21.5 1.5l-69 -134q-8 -15 -12 -27.5t-15 -13.5q-8 0 -23 9l-83 51l-19 9.5t-26 15t-23 19t-10 22.5q0 9 6 20l56 106q-54 38 -95 90t-68.5 114t-41.5 131.5t-14 141.5q0 136 54 248t146 192t214 123.5t258 43.5q52 0 100 -9l54 108 q14 26 22 36.5t17 11.5q6 0 8 -1q22 -13 44 -27.5t43.5 -28.5t43 -25.5t43.5 -18.5q5 -2 8.5 -4.5t3.5 -7.5q0 -2 -0.5 -2.5t-0.5 -1.5l-67 -129q50 -36 89.5 -82.5t67.5 -101t42.5 -116.5t14.5 -129q0 -99 -26 -185t-74 -156.5t-114 -125t-147 -92t-173 -57t-191 -19.5z M486 510q0 -34 4 -67t14 -65q27 54 58 113t62.5 118.5t62.5 118t58 111.5q-25 5 -46 5q-60 0 -101 -35.5t-65.5 -87.5t-35.5 -109.5t-11 -101.5zM937 569q0 54 -17 108l-242 -464q5 -2 10 -2h10q49 0 86 17.5t63.5 46.5t43.5 66t27.5 77t14.5 79t4 72z" />
<glyph unicode="&#xf9;" horiz-adv-x="1280" d="M1177 124q-3 -33 -8 -45.5t-22 -16.5q-85 -24 -177.5 -48.5t-179.5 -64.5q-3 -1 -9 -1q-8 0 -9.5 4t-1.5 9q0 2 0.5 7t2.5 18.5t5.5 37.5t9.5 64q-112 -73 -198.5 -106.5t-153.5 -33.5q-167 0 -243.5 80.5t-76.5 240.5q0 29 1 59.5t6 62.5q11 118 19 202.5t13 143.5 t8.5 96.5t6 62.5t4 41.5t3.5 32.5q4 32 7.5 45t22.5 17q47 9 89.5 16.5t84 16t84.5 18.5t91 24q2 0 4 0.5t4 0.5q12 0 12 -8v-2q-4 -34 -7 -64t-6 -61.5t-6.5 -67.5t-8.5 -83.5t-12 -109.5t-17 -144q-6 -60 -12 -119.5t-6 -110.5q0 -28 4 -51.5t14.5 -40t27.5 -25.5t44 -9 q21 0 57 9.5t72 33t63.5 62t31.5 97.5q7 99 12.5 165.5t9.5 112t7 76.5t5.5 59.5t4.5 61t4 81.5q3 33 7.5 45.5t22.5 16.5q91 18 186 36.5t186 47.5q8 0 9.5 -2.5t1.5 -7.5zM598 1427q-23 42 -39 70t-30 53t-30 53.5t-38 70.5q-6 11 -7.5 21t-2.5 18q0 11 5 17.5t15 11.5 q37 21 77.5 42.5t81.5 44t81.5 46.5t77.5 50q10 5 14 5q6 0 8 -8l112 -585q2 -13 4 -21.5t2 -16.5q0 -9 -3 -17t-13 -13q-21 -9 -39 -17t-35.5 -16.5t-37 -18.5t-43.5 -25q-4 -4 -11 -4q-9 0 -20 13.5t-27.5 42t-41 74t-60.5 109.5z" />
<glyph unicode="&#xfa;" horiz-adv-x="1280" d="M1177 124q-3 -33 -8 -45.5t-22 -16.5q-85 -24 -177.5 -48.5t-179.5 -64.5q-3 -1 -9 -1q-8 0 -9.5 4t-1.5 9q0 2 0.5 7t2.5 18.5t5.5 37.5t9.5 64q-112 -73 -198.5 -106.5t-153.5 -33.5q-167 0 -243.5 80.5t-76.5 240.5q0 29 1 59.5t6 62.5q11 118 19 202.5t13 143.5 t8.5 96.5t6 62.5t4 41.5t3.5 32.5q4 32 7.5 45t22.5 17q47 9 89.5 16.5t84 16t84.5 18.5t91 24q2 0 4 0.5t4 0.5q12 0 12 -8v-2q-4 -34 -7 -64t-6 -61.5t-6.5 -67.5t-8.5 -83.5t-12 -109.5t-17 -144q-6 -60 -12 -119.5t-6 -110.5q0 -28 4 -51.5t14.5 -40t27.5 -25.5t44 -9 q21 0 57 9.5t72 33t63.5 62t31.5 97.5q7 99 12.5 165.5t9.5 112t7 76.5t5.5 59.5t4.5 61t4 81.5q3 33 7.5 45.5t22.5 16.5q91 18 186 36.5t186 47.5q8 0 9.5 -2.5t1.5 -7.5zM734 1392q-44 -61 -73.5 -100.5t-48.5 -62.5t-30 -32t-18 -9q-6 0 -10 4q-21 14 -38 24.5t-32 19 t-30.5 16.5t-34.5 17q-14 8 -14 21q1 8 3.5 19t8.5 28l185 537q5 14 10 19t11 5q5 0 10 -2.5t10 -5.5q78 -53 155.5 -90.5t153.5 -77.5q18 -11 18 -27t-17 -41q-39 -45 -64.5 -74.5t-48 -56.5t-46.5 -57t-60 -74z" />
<glyph unicode="&#xfb;" horiz-adv-x="1280" d="M1177 124q-3 -33 -8 -45.5t-22 -16.5q-85 -24 -177.5 -48.5t-179.5 -64.5q-3 -1 -9 -1q-8 0 -9.5 4t-1.5 9q0 2 0.5 7t2.5 18.5t5.5 37.5t9.5 64q-112 -73 -198.5 -106.5t-153.5 -33.5q-167 0 -243.5 80.5t-76.5 240.5q0 29 1 59.5t6 62.5q11 118 19 202.5t13 143.5 t8.5 96.5t6 62.5t4 41.5t3.5 32.5q4 32 7.5 45t22.5 17q47 9 89.5 16.5t84 16t84.5 18.5t91 24q2 0 4 0.5t4 0.5q12 0 12 -8v-2q-4 -34 -7 -64t-6 -61.5t-6.5 -67.5t-8.5 -83.5t-12 -109.5t-17 -144q-6 -60 -12 -119.5t-6 -110.5q0 -28 4 -51.5t14.5 -40t27.5 -25.5t44 -9 q21 0 57 9.5t72 33t63.5 62t31.5 97.5q7 99 12.5 165.5t9.5 112t7 76.5t5.5 59.5t4.5 61t4 81.5q3 33 7.5 45.5t22.5 16.5q91 18 186 36.5t186 47.5q8 0 9.5 -2.5t1.5 -7.5zM979 1662q22 -27 37.5 -48t27.5 -38t22 -32.5t22 -33.5q6 -9 19.5 -27t27 -38.5t24 -40.5t10.5 -33 q0 -14 -19.5 -28t-46.5 -27t-54.5 -24t-43.5 -17q-14 -5 -30.5 -13.5t-33 -16.5t-30 -13.5t-20.5 -5.5q-8 0 -16.5 8.5t-21.5 30.5l-129 275q-61 -78 -121.5 -152.5t-121.5 -152.5q-4 -7 -13 -7q-5 0 -23.5 8.5t-43.5 20t-51 24.5t-46 22l-27.5 12.5t-31.5 15.5t-25.5 16 t-10.5 15q0 10 9 23t29 32l151 170q57 63 111 123t108 123q14 14 27.5 15.5t24.5 1.5h152q12 0 24 -2t20 -16q1 -2 13 -20l29 -43.5t36.5 -54.5t35.5 -52z" />
<glyph unicode="&#xfc;" horiz-adv-x="1280" d="M1177 124q-3 -33 -8 -45.5t-22 -16.5q-85 -24 -177.5 -48.5t-179.5 -64.5q-3 -1 -9 -1q-8 0 -9.5 4t-1.5 9q0 2 0.5 7t2.5 18.5t5.5 37.5t9.5 64q-112 -73 -198.5 -106.5t-153.5 -33.5q-167 0 -243.5 80.5t-76.5 240.5q0 29 1 59.5t6 62.5q11 118 19 202.5t13 143.5 t8.5 96.5t6 62.5t4 41.5t3.5 32.5q4 32 7.5 45t22.5 17q47 9 89.5 16.5t84 16t84.5 18.5t91 24q2 0 4 0.5t4 0.5q12 0 12 -8v-2q-4 -34 -7 -64t-6 -61.5t-6.5 -67.5t-8.5 -83.5t-12 -109.5t-17 -144q-6 -60 -12 -119.5t-6 -110.5q0 -28 4 -51.5t14.5 -40t27.5 -25.5t44 -9 q21 0 57 9.5t72 33t63.5 62t31.5 97.5q7 99 12.5 165.5t9.5 112t7 76.5t5.5 59.5t4.5 61t4 81.5q3 33 7.5 45.5t22.5 16.5q91 18 186 36.5t186 47.5q8 0 9.5 -2.5t1.5 -7.5zM183 1228q3 57 4 82.5t1.5 36.5t0.5 15t0.5 18t2 45t4.5 96q2 30 7 41.5t20 13.5q78 0 165.5 1 t162.5 1q10 0 14 -5.5t4 -20.5l-25 -278q-3 -29 -7 -40.5t-19 -13.5q-76 -1 -156.5 -1.5t-168.5 -0.5q-5 0 -7.5 1t-2.5 6v3zM809 1226q3 63 4.5 93.5t2 43.5t0 17t0 15.5t2 38.5t5.5 86q2 29 6 40.5t19 13.5q79 0 166 0.5t162 1.5q8 0 13.5 -4t5.5 -16l-24 -283 q-4 -30 -7.5 -41t-20.5 -13q-77 -1 -158.5 -2t-170.5 -1q-3 0 -4 0.5t-1 5.5v4z" />
<glyph unicode="&#xfd;" horiz-adv-x="1125" d="M546 -456q-2 -4 -4.5 -6.5t-8.5 -2.5t-9 1q-36 13 -68 22t-63.5 16.5t-64.5 14t-70 14.5q-10 2 -15.5 6.5t-5.5 15.5q0 3 3.5 14.5t17.5 47t43 103t80 181.5q-15 50 -34 120t-40.5 153t-44.5 175.5t-46.5 187t-47 187t-45.5 176.5q-7 16 -8 26.5t-1 17.5q0 14 16 18 q78 17 162 35.5t159 47.5q3 1 9 1q13 0 14 -10l122 -672q4 12 15.5 43.5t27 75.5t34.5 97t39 108t39.5 109.5t36.5 101.5t29.5 83t19.5 54q4 10 15 10q3 0 4 -0.5t4 -0.5q75 -29 154 -47.5t157 -35.5q19 -4 19 -22q0 -13 -12 -40l-412 -931zM679 1392q-44 -61 -73.5 -100.5 t-48.5 -62.5t-30 -32t-18 -9q-6 0 -10 4q-21 14 -38 24.5t-32 19t-30.5 16.5t-34.5 17q-14 8 -14 21q1 8 3.5 19t8.5 28l185 537q5 14 10 19t11 5q5 0 10 -2.5t10 -5.5q78 -53 155.5 -90.5t153.5 -77.5q18 -11 18 -27t-17 -41q-39 -45 -64.5 -74.5t-48 -56.5t-46.5 -57 t-60 -74z" />
<glyph unicode="&#xfe;" horiz-adv-x="1330" d="M572 694q-6 -96 -10.5 -156t-7.5 -97.5t-5 -59t-3 -40.5q23 -60 68 -97.5t108 -37.5q55 0 96.5 34.5t69 89.5t41.5 123t14 135q0 55 -9.5 102t-28.5 81.5t-47.5 54t-67.5 19.5q-32 0 -63.5 -12.5t-60.5 -32t-52.5 -44t-38.5 -47.5zM598 980q84 57 173 92t189 35 q94 0 162.5 -38t113.5 -102t66.5 -148.5t21.5 -177.5q0 -81 -16 -164t-47 -160.5t-77 -145.5t-105.5 -118.5t-132.5 -79.5t-158 -29q-75 0 -143.5 30t-128.5 78q0 -5 -2.5 -36.5t-6.5 -76.5t-9 -96.5t-9 -96.5t-6.5 -76.5t-2.5 -36.5q0 -8 0.5 -13.5t0.5 -10.5 q0 -8 -7.5 -13.5t-33.5 -12.5l-263 -67q-11 -3 -29 -9.5t-35 -6.5q-14 0 -24.5 7t-10.5 24l120 1439q0 5 2.5 31t6 63t8 79t8 79t6 63t2.5 31q0 8 -1 13.5t-1 9.5q0 9 7.5 14.5t34.5 12.5l263 67q11 3 29 9t35 7q14 0 24.5 -7t10.5 -24v-6z" />
<glyph unicode="&#xff;" horiz-adv-x="1125" d="M546 -456q-2 -4 -4.5 -6.5t-8.5 -2.5t-9 1q-36 13 -68 22t-63.5 16.5t-64.5 14t-70 14.5q-10 2 -15.5 6.5t-5.5 15.5q0 3 3.5 14.5t17.5 47t43 103t80 181.5q-15 50 -34 120t-40.5 153t-44.5 175.5t-46.5 187t-47 187t-45.5 176.5q-7 16 -8 26.5t-1 17.5q0 14 16 18 q78 17 162 35.5t159 47.5q3 1 9 1q13 0 14 -10l122 -672q4 12 15.5 43.5t27 75.5t34.5 97t39 108t39.5 109.5t36.5 101.5t29.5 83t19.5 54q4 10 15 10q3 0 4 -0.5t4 -0.5q75 -29 154 -47.5t157 -35.5q19 -4 19 -22q0 -13 -12 -40l-412 -931zM128 1228q3 57 4 82.5t1.5 36.5 t0.5 15t0.5 18t2 45t4.5 96q2 30 7 41.5t20 13.5q78 0 165.5 1t162.5 1q10 0 14 -5.5t4 -20.5l-25 -278q-3 -29 -7 -40.5t-19 -13.5q-76 -1 -156.5 -1.5t-168.5 -0.5q-5 0 -7.5 1t-2.5 6v3zM754 1226q3 63 4.5 93.5t2 43.5t0 17t0 15.5t2 38.5t5.5 86q2 29 6 40.5t19 13.5 q79 0 166 0.5t162 1.5q8 0 13.5 -4t5.5 -16l-24 -283q-4 -30 -7.5 -41t-20.5 -13q-77 -1 -158.5 -2t-170.5 -1q-3 0 -4 0.5t-1 5.5v4z" />
<glyph unicode="&#x11e;" horiz-adv-x="1463" d="M125 646q0 115 26.5 220.5t75.5 197t118.5 166t155.5 128t186.5 82.5t211.5 29q88 0 154.5 -11.5t116 -29t83 -38.5t55.5 -40q-1 0 -1 -7q0 -15 2.5 -55t6 -89t6 -99.5t2.5 -87.5q0 -6 -4 -13.5t-20 -7.5q-9 0 -22 3q-21 6 -53 27.5t-74.5 45t-95 42t-114.5 18.5 q-82 0 -149 -34.5t-114 -96t-73 -146t-26 -183.5q0 -87 16 -163t48.5 -131.5t80.5 -87.5t113 -32q63 0 143 27l23 141h-191q22 121 38 190t30 104t29 44t35 9h526q23 0 33.5 -3t10.5 -21q0 -9 -2 -21.5t-5 -30.5l-50 -168q-9 -32 -15 -49.5t-15 -26t-24.5 -10t-44.5 -1.5 q-16 0 -19 -13t-5 -27q-6 -44 -12 -87.5t-11.5 -81t-11.5 -66t-12 -41.5q-68 -43 -123.5 -75.5t-110.5 -54t-116 -32.5t-140 -11q-141 0 -264 51t-213.5 143.5t-142.5 220.5t-52 283zM934 1774q0 6 3 11t12 8.5t27 5.5t48 2q29 0 47 -1.5t27.5 -4.5t12.5 -7.5t3 -11.5 q0 -48 -23.5 -95t-64.5 -83.5t-97 -59.5t-121 -23q-53 0 -101 12t-84 35.5t-57.5 57t-21.5 77.5q0 9 1.5 19.5t3.5 23.5q3 15 5.5 25.5t12.5 17t30 10t58 3.5q23 0 36.5 -1.5t21 -4t9.5 -6.5t2 -8q0 -2 -1 -9.5t-1 -16.5q0 -13 4 -27t14.5 -25.5t28.5 -19t45 -7.5 q30 0 52.5 8.5t37.5 22t22.5 29t7.5 30.5v13v0z" />
<glyph unicode="&#x11f;" horiz-adv-x="1295" d="M849 713q-10 23 -27.5 47t-40.5 44t-50 32.5t-57 12.5q-41 0 -77 -34t-63 -90.5t-42.5 -129t-15.5 -150.5q0 -48 8.5 -90.5t26.5 -74.5t46.5 -51t68.5 -19q60 0 110 37.5t85 97.5q1 21 3 50t5 70.5t7.5 98t11.5 134.5zM1180 109q-10 -99 -45 -185t-88.5 -157.5t-122 -128 t-145 -95.5t-157.5 -59.5t-160 -20.5q-42 0 -86 3t-86 11.5t-80 24t-68 39.5v1q0 5 7.5 35t18 70.5t22 83.5t19.5 74q4 14 8 19t9 5q6 0 7 -1q29 -19 54.5 -31.5t54 -20t62.5 -10.5t79 -3q70 0 124 27t93 70t62.5 94.5t32.5 101.5q-72 -48 -146 -78t-149 -30 q-103 0 -178 41.5t-124 111.5t-72.5 160.5t-23.5 189.5q0 78 14.5 157.5t43 153.5t70.5 138.5t97 112.5t122 75.5t146 27.5q86 0 159.5 -38t133.5 -94q2 18 3 28.5t5 16.5t13.5 9t27.5 7q11 2 40 8.5t69 15.5t88 19t97 21q12 3 22 3q31 0 31 -40v-9.5t-1 -9.5zM788 1461 q0 6 3 11t12 8.5t27 5.5t48 2q29 0 47 -1.5t27.5 -4.5t12.5 -7.5t3 -11.5q0 -48 -23.5 -95t-64.5 -83.5t-97 -59.5t-121 -23q-53 0 -101 12t-84 35.5t-57.5 57t-21.5 77.5q0 9 1.5 19.5t3.5 23.5q3 15 5.5 25.5t12.5 17t30 10t58 3.5q23 0 36.5 -1.5t21 -4t9.5 -6.5t2 -8 q0 -2 -1 -9.5t-1 -16.5q0 -13 4 -27t14.5 -25.5t28.5 -19t45 -7.5q30 0 52.5 8.5t37.5 22t22.5 29t7.5 30.5v13v0z" />
<glyph unicode="&#x130;" horiz-adv-x="668" d="M139 -32l50 684q25 344 37 505t12 160q1 18 2 30t4 20t8 12t15 6l346 83q13 4 27 4t19 -8.5t5 -34.5q-7 -62 -11 -116t-6.5 -103t-4.5 -94.5t-5 -90.5q-6 -49 -10.5 -98t-8.5 -101.5t-8.5 -111t-10.5 -127.5l-44 -527q-1 -9 -3.5 -17.5t-13.5 -13.5q-1 0 -12 -4 t-29 -10.5t-42 -13.5t-51 -13q-45 -10 -78.5 -20t-59.5 -18.5t-48 -13.5t-44 -5q-15 0 -25 8t-10 29zM181 1713q2 47 3 74.5t1.5 42.5t0.5 21v11.5t0.5 13.5t1.5 26.5t3 51t5 86.5q2 33 6.5 45.5t22.5 15.5q88 0 184 0.5t181 1.5q9 0 15 -5t6 -19l-28 -314 q-4 -33 -7.5 -45.5t-22.5 -14.5q-85 -1 -174.5 -2t-186.5 -1q-6 0 -8.5 1t-2.5 6v4z" />
<glyph unicode="&#x131;" horiz-adv-x="611" d="M146 424q14 137 26 271t23 275q2 33 6.5 45.5t22.5 16.5q85 17 178 35.5t180 47.5q3 1 9 1q11 0 11 -8l-90 -990q-3 -33 -7 -45.5t-22 -16.5q-85 -26 -172 -58.5t-184 -64.5q-3 -1 -9 -1q-11 0 -11 10q0 1 2 28t5.5 69t7.5 95t8.5 106t8.5 101.5t7 82.5z" />
<glyph unicode="&#x141;" horiz-adv-x="1023" d="M669 845q51 2 99.5 3.5t88.5 3t69.5 3t41.5 1.5q8 0 18 -6t10 -23q0 -9 -9.5 -33t-24.5 -58.5t-34 -77t-39 -88.5q-4 -9 -7.5 -15t-9 -10.5t-14.5 -6.5t-24 -2q-90 -2 -180 -3.5t-169.5 -3t-143.5 -2.5t-102 -1q-60 0 -89.5 5.5t-29.5 22.5q0 5 12.5 27.5t32.5 53 t45.5 65t50.5 63.5t48 48.5t38 20.5zM670 1433q-1 -24 -4 -59.5t-6.5 -75t-8 -80t-8 -74.5t-5.5 -58.5t-2 -31.5q-4 -62 -8.5 -115t-9.5 -105t-10.5 -107.5t-11.5 -122.5t-13.5 -149t-15.5 -188l414 42q28 3 46 3q22 0 27.5 -7t5.5 -22q0 -2 -1 -5.5t-4.5 -13.5t-10 -29 t-17.5 -53l-22 -66q-11 -32 -20.5 -57.5t-23.5 -44t-35 -29.5t-54 -14q-21 -2 -57 -3.5t-83 -3t-101.5 -3.5t-111.5 -5q-56 -2 -113 -2.5t-108 -1.5t-94 -2t-71 -2q-26 0 -37.5 4t-11.5 13q0 11 7 31.5t18 46t24.5 53t26.5 53.5l27 357q8 91 16 185t14 182l17 265 q6 94 8 136.5t2 46.5q2 18 3 30t3.5 20t7.5 12t15 6l351 83q11 4 27 4q11 0 15.5 -6.5t4.5 -24.5q0 -2 -0.5 -5.5t-0.5 -6.5z" />
<glyph unicode="&#x142;" horiz-adv-x="863" d="M604 845q51 2 99.5 3.5t88.5 3t69.5 3t41.5 1.5q8 0 18 -6t10 -23q0 -9 -9.5 -33t-24.5 -58.5t-34 -77t-39 -88.5q-4 -9 -7.5 -15t-9 -10.5t-14.5 -6.5t-24 -2q-90 -2 -180 -3.5t-169.5 -3t-143.5 -2.5t-102 -1q-60 0 -89.5 5.5t-29.5 22.5q0 5 12.5 27.5t32.5 53 t45.5 65t50.5 63.5t48 48.5t38 20.5zM300 846q12 137 19.5 271t16.5 275q2 33 6.5 45.5t22.5 16.5q93 17 186.5 34.5t187.5 46.5q3 1 9 1q11 0 11 -10l-130 -1428v-17q0 -9 -7 -14.5t-33 -12.5l-262 -96q-11 -5 -29 -10.5t-35 -5.5q-14 0 -24.5 7t-10.5 24v6 q8 101 15.5 197.5t16 199.5t18.5 218t22 252z" />
<glyph unicode="&#x152;" horiz-adv-x="2051" d="M762 -51q-149 0 -266.5 58t-199.5 156.5t-125.5 228.5t-43.5 273q0 117 28.5 221t80 191t123.5 156t159 116.5t186 73t205 25.5q96 0 178 -29.5t151 -81.5l3 58q107 8 204 14t186 12l461 29q1 0 5.5 -0.5t9.5 -3t9.5 -8.5t4.5 -17q-1 -6 -14.5 -51.5t-39.5 -112.5 l-44 -116q-7 -17 -16 -26t-38 -10q-63 -2 -141.5 -6.5t-182.5 -8.5l-27 -245q51 2 99.5 4t88.5 3.5t69.5 2.5t41.5 1q8 0 18 -6t10 -23q0 -9 -9.5 -32.5t-24.5 -58t-34 -77.5t-39 -89q-6 -14 -11 -20.5t-16 -9.5t-30.5 -3.5t-54.5 -1.5l-139 -3l-27 -283h473v-41 q-1 -2 -16 -27.5t-36 -59t-42.5 -68t-36.5 -55.5q-10 -18 -23 -28.5t-28.5 -15.5t-34 -6t-40.5 -1q-78 0 -161.5 4t-166 10t-160.5 14t-145 16q-7 1 -12.5 8t-5.5 16q0 1 2 9l11 58q-84 -66 -178.5 -99.5t-197.5 -33.5zM568 682q0 -76 16.5 -152t54 -137t98.5 -99t150 -38 q64 5 112 29t83 62t58.5 86.5t37 102.5t19 110t5.5 110q0 77 -19 149t-58 127.5t-98 89t-138 33.5q-61 0 -108.5 -23t-83 -61t-60.5 -87t-40 -102t-22 -105t-7 -95z" />
<glyph unicode="&#x153;" horiz-adv-x="1997" d="M582 -57q-117 0 -207 46.5t-150.5 124t-91.5 178t-31 207.5q0 136 52.5 248t141.5 192t207.5 123.5t250.5 43.5q109 0 201 -45t162 -123q85 88 194 139t238 51q90 0 172 -33.5t145 -94t100 -144t37 -182.5q0 -73 -21 -146q0 -30 -13.5 -49t-45 -29.5t-84 -14.5t-130.5 -4 q-99 -4 -201 -7t-202 -9q4 -59 25 -101t53 -69.5t72.5 -40.5t83.5 -13q49 0 95 10.5t88.5 27.5t81.5 37.5t74 40.5q1 0 2 0.5t2 0.5q7 0 11 -20.5t5.5 -49.5t2 -61t0.5 -56q0 -31 -2 -53.5t-7 -27.5q-28 -27 -73 -51t-97.5 -41.5t-108.5 -28t-106 -10.5q-73 0 -136 14 t-117.5 41t-102 66t-89.5 89q-47 -42 -93 -75t-100.5 -55.5t-124 -34t-163.5 -11.5zM487 510q0 -54 11.5 -107t38 -96t69.5 -69.5t107 -26.5q42 2 73.5 20.5t54.5 48t37.5 66.5t23.5 76.5t12.5 77.5t3.5 69q0 52 -14 102t-41.5 88t-68.5 61.5t-94 23.5q-60 0 -101 -35.5 t-65.5 -87.5t-35.5 -109.5t-11 -101.5zM1549 850q-46 0 -85.5 -15.5t-71 -44t-55.5 -68t-40 -88.5l421 31q0 4 0.5 8t0.5 8q0 42 -16 74t-40.5 53t-55 31.5t-58.5 10.5z" />
<glyph unicode="&#x15e;" horiz-adv-x="1100" d="M158 372q0 1 -0.5 2t-0.5 2q0 17 18 17q9 0 20 -9q54 -51 120 -81t144 -30q21 0 48 4.5t51 15t40.5 27.5t16.5 43q0 29 -14 52t-37 39q-9 6 -27 20t-41 32t-48 38.5t-47.5 39t-40.5 33.5t-27 23q-59 44 -93.5 89t-52.5 94t-23 101.5t-5 111.5q0 88 42 167t118.5 137.5 t183.5 93t238 34.5q16 0 48 -3.5t70.5 -11.5t78.5 -22t73 -36q11 -8 17.5 -16t8.5 -25q5 -81 8 -159.5t8 -166.5q0 -17 -7 -22.5t-18 -5.5t-17 6q-29 29 -60 57t-65 49.5t-72.5 34.5t-83.5 13q-27 0 -54 -4.5t-49 -16.5t-35.5 -33t-13.5 -53q0 -34 8.5 -59t42.5 -47 l240 -163q66 -47 107 -93.5t64 -92.5t31.5 -90.5t8.5 -87.5q0 -70 -23 -132t-63 -114.5t-93.5 -94t-114.5 -71t-126.5 -45t-128.5 -15.5q-49 0 -96.5 1.5t-92.5 8t-87 20t-80 37.5zM829 -386q-9 -47 -34 -85.5t-60 -66t-78.5 -43t-89.5 -15.5q-42 0 -88.5 6t-81.5 26l2 -1 q-1 1 -1 8q0 11 1.5 30t4 40.5t6 41.5t7.5 33h5q6 0 6 -2h-1q16 -7 30 -11.5t29.5 -7.5t34 -4t43.5 -1q42 0 65 25t23 57q0 30 -18.5 49.5t-50.5 19.5q-55 0 -94 4t-54 4q-8 0 -9.5 4t-1.5 9q5 10 11.5 31.5t13.5 48t13.5 55.5t12 53.5t9 41t3.5 19.5h19q17 0 44 -0.5 t53 -0.5h63l-48 -141q17 2 31.5 3.5t27.5 1.5q51 0 81.5 -16.5t47 -42.5t22 -59t5.5 -67q0 -12 -1 -23.5t-3 -23.5z" />
<glyph unicode="&#x15f;" horiz-adv-x="865" d="M127 276q0 1 -0.5 1.5t-0.5 1.5q0 13 14 13q9 0 16 -7q40 -38 91.5 -62t111.5 -24q16 0 37 3.5t40 11.5t31.5 21.5t12.5 33.5q0 22 -11 40.5t-29 30.5l-35 24.5t-53.5 37.5t-54 38t-35.5 26q-45 34 -71.5 69t-40.5 72.5t-18 78.5t-4 87q0 70 37 132t97.5 109t137.5 74.5 t157 27.5q66 0 130 -20t119 -68q5 -63 7 -124t6 -128q0 -13 -6 -17.5t-14 -4.5q-7 0 -12 5q-23 22 -47 43.5t-50.5 38t-56.5 27t-64 10.5q-21 0 -42 -3.5t-38 -13t-27.5 -25.5t-10.5 -41q0 -29 7 -50t33 -41l186 -126q51 -35 82.5 -68.5t49.5 -66.5t24.5 -65.5t6.5 -64.5 q0 -90 -41.5 -158.5t-107.5 -114t-149.5 -69t-167.5 -23.5q-64 0 -123.5 13.5t-110.5 41.5zM694 -386q-9 -47 -34 -85.5t-60 -66t-78.5 -43t-89.5 -15.5q-42 0 -88.5 6t-81.5 26l2 -1q-1 1 -1 8q0 11 1.5 30t4 40.5t6 41.5t7.5 33h5q6 0 6 -2h-1q16 -7 30 -11.5t29.5 -7.5 t34 -4t43.5 -1q42 0 65 25t23 57q0 30 -18.5 49.5t-50.5 19.5q-55 0 -94 4t-54 4q-8 0 -9.5 4t-1.5 9q5 10 11.5 31.5t13.5 48t13.5 55.5t12 53.5t9 41t3.5 19.5h19q17 0 44 -0.5t53 -0.5h63l-48 -141q17 2 31.5 3.5t27.5 1.5q51 0 81.5 -16.5t47 -42.5t22 -59t5.5 -67 q0 -12 -1 -23.5t-3 -23.5z" />
<glyph unicode="&#x160;" horiz-adv-x="1099" d="M158 372q0 1 -0.5 2t-0.5 2q0 17 18 17q9 0 20 -9q54 -51 120 -81t144 -30q21 0 48 4.5t51 15t40.5 27.5t16.5 43q0 29 -14 52t-37 39q-9 6 -27 20t-41 32t-48 38.5t-47.5 39t-40.5 33.5t-27 23q-59 44 -93.5 89t-52.5 94t-23 101.5t-5 111.5q0 88 42 167t118.5 137.5 t183.5 93t238 34.5q16 0 48 -3.5t70.5 -11.5t78.5 -22t73 -36q11 -8 17.5 -16t8.5 -25q5 -81 8 -159.5t8 -166.5q0 -17 -7 -22.5t-18 -5.5t-17 6q-29 29 -60 57t-65 49.5t-72.5 34.5t-83.5 13q-27 0 -54 -4.5t-49 -16.5t-35.5 -33t-13.5 -53q0 -34 8.5 -59t42.5 -47 l240 -163q66 -47 107 -93.5t64 -92.5t31.5 -90.5t8.5 -87.5q0 -70 -23 -132t-63 -114.5t-93.5 -94t-114.5 -71t-126.5 -45t-128.5 -15.5q-49 0 -96.5 1.5t-92.5 8t-87 20t-80 37.5zM328 1761q-33 42 -53 69.5t-37 52t-35.5 52.5t-48.5 73q-10 14 -14 25t-4 19q0 14 32.5 33 t76.5 38t88.5 36.5t68.5 29.5q6 3 11 3q8 0 14.5 -7t16.5 -24l146 -260l241 285q3 5 9 5q6 -1 17.5 -4.5t34.5 -16.5q51 -28 97 -48t96 -46q10 -4 10 -15q0 -9 -8 -22t-28 -31q-96 -106 -189.5 -211t-184.5 -208q-10 -11 -21 -13.5t-20 -2.5h-14h-155q-9 0 -17.5 2.5 t-14.5 13.5q-1 2 -13.5 20.5t-30 44.5t-37 55t-34.5 52z" />
<glyph unicode="&#x161;" horiz-adv-x="862" d="M126 276q0 1 -0.5 1.5t-0.5 1.5q0 13 14 13q9 0 16 -7q40 -38 91.5 -62t111.5 -24q16 0 37 3.5t40 11.5t31.5 21.5t12.5 33.5q0 22 -11 40.5t-29 30.5l-35 24.5t-53.5 37.5t-54 38t-35.5 26q-45 34 -71.5 69t-40.5 72.5t-18 78.5t-4 87q0 70 37 132t97.5 109t137.5 74.5 t157 27.5q66 0 130 -20t119 -68q5 -63 7 -124t6 -128q0 -13 -6 -17.5t-14 -4.5q-7 0 -12 5q-23 22 -47 43.5t-50.5 38t-56.5 27t-64 10.5q-21 0 -42 -3.5t-38 -13t-27.5 -25.5t-10.5 -41q0 -29 7 -50t33 -41l186 -126q51 -35 82.5 -68.5t49.5 -66.5t24.5 -65.5t6.5 -64.5 q0 -90 -41.5 -158.5t-107.5 -114t-149.5 -69t-167.5 -23.5q-64 0 -123.5 13.5t-110.5 41.5zM194 1427q-33 42 -53 69.5t-37 52t-35.5 52.5t-48.5 73q-10 14 -14 25t-4 19q0 14 32.5 33t76.5 38t88.5 36.5t68.5 29.5q6 3 11 3q8 0 14.5 -7t16.5 -24l146 -260l241 285q3 5 9 5 q6 -1 17.5 -4.5t34.5 -16.5q51 -28 97 -48t96 -46q10 -4 10 -15q0 -9 -8 -22t-28 -31q-96 -106 -189.5 -211t-184.5 -208q-10 -11 -21 -13.5t-20 -2.5h-14h-155q-9 0 -17.5 2.5t-14.5 13.5q-1 2 -13.5 20.5t-30 44.5t-37 55t-34.5 52z" />
<glyph unicode="&#x178;" horiz-adv-x="1115" d="M119 1332q6 4 20.5 10.5t34 14.5t42 17.5t45.5 18.5l116 46q13 6 24 6q8 0 17.5 -4.5t21.5 -16.5l231 -448l6 15l99 183q19 34 37.5 67t33 59t24.5 42t12 16l343 86q12 3 20 3q23 0 23 -21q-1 -5 -2 -13.5t-6 -18.5l-294 -545q-22 -41 -44.5 -82t-43.5 -77.5t-37.5 -66.5 t-26.5 -49l-7 -33l-56 -375q-3 -17 -5 -28t-5.5 -18t-9 -12t-15.5 -10l-284 -149q-16 -8 -33.5 -13t-33.5 -5q-17 0 -29 7.5t-12 24.5v4q4 57 14.5 132.5t22.5 147.5l56 371q-16 34 -42 90t-56 121t-62.5 134t-61 130.5t-51 108.5t-33.5 69q-5 15 -5 31q0 9 2.5 17.5 t9.5 12.5zM151 1562q3 57 4 82.5t1.5 36.5t0.5 15t0.5 18t2 45t4.5 96q2 30 7 41.5t20 13.5q78 0 165.5 1t162.5 1q10 0 14 -5.5t4 -20.5l-25 -278q-3 -29 -7 -40.5t-19 -13.5q-76 -1 -156.5 -1.5t-168.5 -0.5q-5 0 -7.5 1t-2.5 6v3zM777 1560q3 63 4.5 93.5t2 43.5t0 17 t0 15.5t2 38.5t5.5 86q2 29 6 40.5t19 13.5q79 0 166 0.5t162 1.5q8 0 13.5 -4t5.5 -16l-24 -283q-4 -30 -7.5 -41t-20.5 -13q-77 -1 -158.5 -2t-170.5 -1q-3 0 -4 0.5t-1 5.5v4z" />
<glyph unicode="&#x17d;" horiz-adv-x="1249" d="M205 0q-12 0 -24 2.5t-22 9t-16.5 18t-6.5 30.5q0 2 1 4t1 4l521 914q0 3 -21.5 5.5t-55 4t-73.5 3t-76.5 2t-65 1t-38.5 0.5q-54 0 -101 -1.5t-98 -1.5q-11 0 -19 7.5t-8 17.5q1 1 1 2q0 3 1 6l129 309q9 22 27.5 35.5t42 21t50.5 10t53 2.5q109 0 215 -4.5t211.5 -9.5 t211 -9.5t213.5 -4.5v-41l-487 -910q0 -2 -0.5 -2.5t-0.5 -2.5q0 -11 10 -12.5t18 -1.5h198q60 0 116 7.5t116 7.5q12 0 22 -7.5t10 -18.5q0 1 -2 -9l-161 -320q-8 -24 -29.5 -38t-52 -21t-67.5 -9t-76 -2q-157 0 -318.5 1t-348.5 1zM385 1761q-33 42 -53 69.5t-37 52 t-35.5 52.5t-48.5 73q-10 14 -14 25t-4 19q0 14 32.5 33t76.5 38t88.5 36.5t68.5 29.5q6 3 11 3q8 0 14.5 -7t16.5 -24l146 -260l241 285q3 5 9 5q6 -1 17.5 -4.5t34.5 -16.5q51 -28 97 -48t96 -46q10 -4 10 -15q0 -9 -8 -22t-28 -31q-96 -106 -189.5 -211t-184.5 -208 q-10 -11 -21 -13.5t-20 -2.5h-14h-155q-9 0 -17.5 2.5t-14.5 13.5q-1 2 -13.5 20.5t-30 44.5t-37 55t-34.5 52z" />
<glyph unicode="&#x17e;" horiz-adv-x="992" d="M255 0q-20 0 -42.5 2t-41 7.5t-31 14.5t-12.5 24q0 1 1 3t1 4l353 724q-42 0 -94 -1.5t-104.5 -3t-100 -2.5t-80.5 -1q-10 0 -15 6.5t-5 14.5v4l101 241q8 27 30 35t44 8q176 0 345.5 -6t344.5 -6q11 0 22.5 -7t11.5 -17q0 -1 -2 -7l-317 -692q0 -2 5.5 -3t14 -2t17 -1 h14.5q63 0 122 3t119 3q11 0 19 -5t8 -20q0 -2 -2 -2l-126 -263q-9 -19 -32 -30t-56 -16.5t-73.5 -7t-83.5 -1.5h-355zM248 1427q-33 42 -53 69.5t-37 52t-35.5 52.5t-48.5 73q-10 14 -14 25t-4 19q0 14 32.5 33t76.5 38t88.5 36.5t68.5 29.5q6 3 11 3q8 0 14.5 -7t16.5 -24 l146 -260l241 285q3 5 9 5q6 -1 17.5 -4.5t34.5 -16.5q51 -28 97 -48t96 -46q10 -4 10 -15q0 -9 -8 -22t-28 -31q-96 -106 -189.5 -211t-184.5 -208q-10 -11 -21 -13.5t-20 -2.5h-14h-155q-9 0 -17.5 2.5t-14.5 13.5q-1 2 -13.5 20.5t-30 44.5t-37 55t-34.5 52z" />
<glyph unicode="&#x192;" horiz-adv-x="918" d="M263 282q1 9 4.5 48.5t9 103.5t13.5 149t19 185h-133q-54 0 -78 4.5t-24 18.5q0 4 10 21.5t25.5 42t33.5 52.5t34.5 52.5t28.5 42.5t15 22h122l20 159q26 232 132 345.5t310 113.5q19 0 53 -5.5t73 -15t79.5 -21.5t73 -24t53.5 -23.5t21 -20.5q0 -8 -7 -21 q-31 -60 -46.5 -98.5t-24.5 -60.5t-15 -30t-18 -8q-5 -1 -11.5 2.5t-17.5 7.5q-35 13 -70.5 23.5t-67.5 10.5q-45 0 -77.5 -28t-51.5 -106q-11 -45 -17.5 -97t-12.5 -103h261q8 0 15.5 -5.5t7.5 -18.5q0 -5 -12 -36t-34 -81l-36 -81q-7 -15 -14.5 -22t-30.5 -9h-173 q-19 -152 -36.5 -312.5t-41.5 -338.5q-16 -119 -48.5 -206.5t-86.5 -145.5t-131.5 -86.5t-183.5 -28.5q-19 0 -53.5 6t-74.5 15t-81 21.5t-74.5 24.5t-54.5 24t-21 21q0 8 7 21q30 59 46 98t25 62t15 32t17 9q6 -8 14 -9t19 -1q35 -14 70.5 -24.5t69.5 -10.5q36 0 61 17 t41.5 44.5t26.5 63.5t16 73.5t9.5 74.5t7.5 67z" />
<glyph unicode="&#x200;" d="M67 73q13 26 27 58.5t26 70.5l27 66q-18 27 -36.5 58.5t-33.5 64.5t-24.5 66t-9.5 64q0 2 15.5 3.5t39 2.5t51 1.5t51 1t39 1l15.5 0.5q23 60 45 114t44 109t44 112.5t44 123.5q42 124 82 218t75 175q4 10 13.5 18.5t20.5 14.5t21.5 10t16.5 6q4 1 30.5 9t60.5 17 t67.5 16t53.5 7h18q16 0 30.5 -7.5t19.5 -29.5q48 -123 102.5 -268.5t106.5 -320.5q28 -94 55 -178t54 -164t54.5 -160t56.5 -165q9 -36 18.5 -57t17.5 -33t13 -17.5t5 -11.5t-19 -12l-215 -70q-24 -9 -49 -18t-47 -16t-38.5 -11.5t-23.5 -4.5h-6q-14 0 -20 8.5t-8 16.5 q-10 33 -20 59.5t-19.5 53t-19 56.5t-18.5 71q-2 5 -11 8.5t-21.5 5.5t-26.5 2.5t-26 0.5q-38 0 -61.5 -0.5t-41.5 -1t-34.5 -1t-40.5 -0.5q-29 0 -59.5 0.5t-55.5 1.5l-57 2q-26 -72 -52 -135t-56 -130q-2 -8 -9.5 -13t-15.5 -5q-6 0 -7 1q-97 35 -163 69t-115 66zM741 972 q-24 -89 -47.5 -161.5t-43 -128.5t-33.5 -94.5t-20 -59.5v-9q0 -6 -1 -8h240q-11 49 -23.5 99t-24.5 105t-24 118t-23 139zM904 1740q-17 42 -28.5 70t-22 53.5t-22 53.5t-28.5 70l-3.5 17.5t-1.5 13.5q0 15 6 22.5t19 14.5q75 42 157.5 85.5t157.5 97.5q0 2 4.5 2.5 t4.5 1.5q1 0 2 0.5t2 0.5q8 0 8 -8l57 -585q0 -9 0.5 -16t0.5 -12q0 -17 -4 -24.5t-17 -15.5q-23 -9 -42 -17t-37.5 -16.5t-39.5 -19t-48 -24.5q-4 -4 -12 -4q-9 0 -18 13.5t-21.5 42t-30 74t-43.5 109.5zM404 1740q-23 42 -38.5 70t-30 53t-30.5 53.5t-38 70.5 q-6 11 -8 21.5t-2 17.5q0 11 5 17.5t15 11.5q37 21 77.5 42.5t81.5 44t81.5 46.5t77.5 50q10 5 14 5q6 0 8 -8l112 -585q2 -13 4 -21.5t2 -16.5q0 -9 -3 -17t-13 -13q-21 -9 -38.5 -17t-35.5 -16.5t-37.5 -19t-43.5 -24.5q-4 -4 -11 -4q-9 0 -20 13.5t-27.5 42t-41 74 t-60.5 109.5z" />
<glyph unicode="&#x201;" horiz-adv-x="1248" d="M1141 201q-1 -4 -1 -7.5v-6.5q0 -25 8 -41.5t17.5 -27t17.5 -17t8 -11.5q0 -14 -30 -26l-269 -115q-1 -1 -7 -1q-8 0 -16 14t-15.5 35.5t-14 46t-11.5 45.5q-63 -73 -136 -107t-145 -34q-84 0 -164 37t-142 105.5t-99.5 165.5t-37.5 218q0 143 41.5 261t112.5 203 t165.5 131.5t200.5 46.5q75 0 142 -30.5t127 -78.5q6 30 7 48t4.5 28t13.5 13.5t33 5.5q72 10 143.5 18.5t149.5 12.5zM842 578q10 57 13.5 107.5t5.5 92.5q-16 12 -34.5 25t-40 24.5t-45 18.5t-49.5 7q-54 0 -90.5 -35t-59 -86t-32 -108t-9.5 -101q0 -158 41.5 -231.5 t115.5 -73.5q30 0 67 17t75 47zM849 1427q-17 42 -28.5 70t-22 53.5t-22 53.5t-28.5 70l-3.5 17.5t-1.5 13.5q0 15 6 22.5t19 14.5q75 42 157.5 85.5t157.5 97.5q0 2 4.5 2.5t4.5 1.5q1 0 2 0.5t2 0.5q8 0 8 -8l57 -585q0 -9 0.5 -16t0.5 -12q0 -17 -4 -24.5t-17 -15.5 q-23 -9 -42 -17t-37.5 -16.5t-39.5 -19t-48 -24.5q-4 -4 -12 -4q-9 0 -18 13.5t-21.5 42t-30 74t-43.5 109.5zM349 1427q-23 42 -38.5 70t-30 53t-30.5 53.5t-38 70.5q-6 11 -8 21.5t-2 17.5q0 11 5 17.5t15 11.5q37 21 77.5 42.5t81.5 44t81.5 46.5t77.5 50q10 5 14 5 q6 0 8 -8l112 -585q2 -13 4 -21.5t2 -16.5q0 -9 -3 -17t-13 -13q-21 -9 -38.5 -17t-35.5 -16.5t-37.5 -19t-43.5 -24.5q-4 -4 -11 -4q-9 0 -20 13.5t-27.5 42t-41 74t-60.5 109.5z" />
<glyph unicode="&#x202;" d="M67 73q13 26 27 58.5t26 70.5l27 66q-18 27 -36.5 58.5t-33.5 64.5t-24.5 66t-9.5 64q0 2 15.5 3.5t39 2.5t51 1.5t51 1t39 1l15.5 0.5q23 60 45 114t44 109t44 112.5t44 123.5q42 124 82 218t75 175q4 10 13.5 18.5t20.5 14.5t21.5 10t16.5 6q4 1 30.5 9t60.5 17 t67.5 16t53.5 7h18q16 0 30.5 -7.5t19.5 -29.5q48 -123 102.5 -268.5t106.5 -320.5q28 -94 55 -178t54 -164t54.5 -160t56.5 -165q9 -36 18.5 -57t17.5 -33t13 -17.5t5 -11.5t-19 -12l-215 -70q-24 -9 -49 -18t-47 -16t-38.5 -11.5t-23.5 -4.5h-6q-14 0 -20 8.5t-8 16.5 q-10 33 -20 59.5t-19.5 53t-19 56.5t-18.5 71q-2 5 -11 8.5t-21.5 5.5t-26.5 2.5t-26 0.5q-38 0 -61.5 -0.5t-41.5 -1t-34.5 -1t-40.5 -0.5q-29 0 -59.5 0.5t-55.5 1.5l-57 2q-26 -72 -52 -135t-56 -130q-2 -8 -9.5 -13t-15.5 -5q-6 0 -7 1q-97 35 -163 69t-115 66zM741 972 q-24 -89 -47.5 -161.5t-43 -128.5t-33.5 -94.5t-20 -59.5v-9q0 -6 -1 -8h240q-11 49 -23.5 99t-24.5 105t-24 118t-23 139zM831 1542q1 5 2.5 12t1.5 15q0 27 -26 51.5t-78 24.5q-32 0 -53.5 -10t-34.5 -25t-18 -32t-5 -32q0 -1 0.5 -1.5t0.5 -1.5q-1 -5 -3.5 -9.5t-10 -7.5 t-21.5 -4.5t-39 -1.5q-34 0 -53 2.5t-28.5 8.5t-11.5 14.5t-2 20.5q0 56 23.5 99.5t65 73.5t97 46t118.5 16q68 0 116.5 -21.5t79.5 -57t45.5 -80t14.5 -90.5q0 -10 -2.5 -17t-12.5 -11.5t-29 -6.5t-53 -2q-27 0 -43.5 1.5t-26 4t-12.5 6.5t-3 9q0 2 0.5 3t0.5 3z" />
<glyph unicode="&#x203;" horiz-adv-x="1248" d="M1141 201q-1 -4 -1 -7.5v-6.5q0 -25 8 -41.5t17.5 -27t17.5 -17t8 -11.5q0 -14 -30 -26l-269 -115q-1 -1 -7 -1q-8 0 -16 14t-15.5 35.5t-14 46t-11.5 45.5q-63 -73 -136 -107t-145 -34q-84 0 -164 37t-142 105.5t-99.5 165.5t-37.5 218q0 143 41.5 261t112.5 203 t165.5 131.5t200.5 46.5q75 0 142 -30.5t127 -78.5q6 30 7 48t4.5 28t13.5 13.5t33 5.5q72 10 143.5 18.5t149.5 12.5zM842 578q10 57 13.5 107.5t5.5 92.5q-16 12 -34.5 25t-40 24.5t-45 18.5t-49.5 7q-54 0 -90.5 -35t-59 -86t-32 -108t-9.5 -101q0 -158 41.5 -231.5 t115.5 -73.5q30 0 67 17t75 47zM775 1229q1 5 2.5 12t1.5 15q0 27 -26 51.5t-78 24.5q-32 0 -53.5 -10t-34.5 -25t-18 -32t-5 -32q0 -1 0.5 -1.5t0.5 -1.5q-1 -5 -3.5 -9.5t-10 -7.5t-21.5 -4.5t-39 -1.5q-34 0 -53 2.5t-28.5 8.5t-11.5 14.5t-2 20.5q0 56 23.5 99.5 t65 73.5t97 46t118.5 16q68 0 116.5 -21.5t79.5 -57t45.5 -80t14.5 -90.5q0 -10 -2.5 -17t-12.5 -11.5t-29 -6.5t-53 -2q-27 0 -43.5 1.5t-26 4t-12.5 6.5t-3 9q0 2 0.5 3t0.5 3z" />
<glyph unicode="&#x204;" horiz-adv-x="1178" d="M1023 830q-4 -14 -15 -39.5t-25.5 -57.5t-31 -68.5t-32.5 -73.5q-6 -14 -11 -20.5t-16 -9.5t-30.5 -3.5t-54.5 -1.5l-139 -3l-28 -306h513v-39q-2 -2 -17 -26.5t-35 -58.5t-42 -68.5t-37 -55.5q-10 -18 -23 -28.5t-28.5 -15.5t-34 -6t-40.5 -1q-90 0 -187.5 4t-194.5 10 t-189.5 13.5t-171.5 15.5q-7 1 -12.5 8t-5.5 16q-4 0 5.5 17t26.5 44t37.5 61.5t39.5 69.5l16 225q4 57 6.5 85t2.5 30q-60 1 -89.5 6t-29.5 22q0 8 14.5 30t35.5 50.5t44.5 59.5t41.5 57l25 340h-3q-22 -1 -40 -1.5t-33 -0.5q-48 0 -68.5 5.5t-20.5 20.5q0 7 12 29t30 50.5 t38 60t36 58.5l60 102h418l493 36q1 0 5.5 -0.5t9.5 -3t9.5 -8.5t4.5 -17l-15 -52q-7 -22 -17 -46.5t-22 -50.5l-44 -116q-7 -17 -16 -26t-38 -10q-76 -2 -169.5 -6.5t-214.5 -8.5q-4 -14 -4 -22.5t-2 -32.5l-5 -46q-2 -32 -6 -69t-10 -91q51 2 99.5 4t88.5 3.5t69.5 2.5 t41.5 1q8 0 18 -6t10 -23q0 -8 -3 -18zM869 1740q-17 42 -28.5 70t-22 53.5t-22 53.5t-28.5 70l-3.5 17.5t-1.5 13.5q0 15 6 22.5t19 14.5q75 42 157.5 85.5t157.5 97.5q0 2 4.5 2.5t4.5 1.5q1 0 2 0.5t2 0.5q8 0 8 -8l57 -585q0 -9 0.5 -16t0.5 -12q0 -17 -4 -24.5 t-17 -15.5q-23 -9 -42 -17t-37.5 -16.5t-39.5 -19t-48 -24.5q-4 -4 -12 -4q-9 0 -18 13.5t-21.5 42t-30 74t-43.5 109.5zM369 1740q-23 42 -38.5 70t-30 53t-30.5 53.5t-38 70.5q-6 11 -8 21.5t-2 17.5q0 11 5 17.5t15 11.5q37 21 77.5 42.5t81.5 44t81.5 46.5t77.5 50 q10 5 14 5q6 0 8 -8l112 -585q2 -13 4 -21.5t2 -16.5q0 -9 -3 -17t-13 -13q-21 -9 -38.5 -17t-35.5 -16.5t-37.5 -19t-43.5 -24.5q-4 -4 -11 -4q-9 0 -20 13.5t-27.5 42t-41 74t-60.5 109.5z" />
<glyph unicode="&#x205;" horiz-adv-x="1142" d="M716 1116q95 0 172.5 -35.5t133 -92t85.5 -126.5t30 -140q0 -62 -38 -124.5t-106.5 -112.5t-164.5 -81t-211 -31q-60 0 -126 12q4 -43 25 -74t53 -51t72.5 -29.5t83.5 -9.5q48 0 92.5 8.5t85.5 22.5t79 31t72 34q9 2 15.5 3.5t12.5 1.5l-0.5 -16t-0.5 -45t-0.5 -70 t-1.5 -91q3 -5 4 -10t1 -8q0 -12 -22 -26t-57.5 -29t-81 -29t-92.5 -25.5t-91 -18t-77 -6.5q-108 0 -209.5 37.5t-180 107.5t-125.5 170t-47 225q0 131 45 245.5t126.5 199.5t194.5 134t249 49zM704 850q-41 0 -75.5 -17.5t-63 -50t-49.5 -78t-34 -100.5q103 18 171 38 t109 40.5t58 41t17 39.5q0 18 -13.5 34t-33.5 28t-43.5 18.5t-42.5 6.5zM791 1427q-17 42 -28.5 70t-22 53.5t-22 53.5t-28.5 70l-3.5 17.5t-1.5 13.5q0 15 6 22.5t19 14.5q75 42 157.5 85.5t157.5 97.5q0 2 4.5 2.5t4.5 1.5q1 0 2 0.5t2 0.5q8 0 8 -8l57 -585q0 -9 0.5 -16 t0.5 -12q0 -17 -4 -24.5t-17 -15.5q-23 -9 -42 -17t-37.5 -16.5t-39.5 -19t-48 -24.5q-4 -4 -12 -4q-9 0 -18 13.5t-21.5 42t-30 74t-43.5 109.5zM291 1427q-23 42 -38.5 70t-30 53t-30.5 53.5t-38 70.5q-6 11 -8 21.5t-2 17.5q0 11 5 17.5t15 11.5q37 21 77.5 42.5t81.5 44 t81.5 46.5t77.5 50q10 5 14 5q6 0 8 -8l112 -585q2 -13 4 -21.5t2 -16.5q0 -9 -3 -17t-13 -13q-21 -9 -38.5 -17t-35.5 -16.5t-37.5 -19t-43.5 -24.5q-4 -4 -11 -4q-9 0 -20 13.5t-27.5 42t-41 74t-60.5 109.5z" />
<glyph unicode="&#x206;" horiz-adv-x="1178" d="M1023 830q-4 -14 -15 -39.5t-25.5 -57.5t-31 -68.5t-32.5 -73.5q-6 -14 -11 -20.5t-16 -9.5t-30.5 -3.5t-54.5 -1.5l-139 -3l-28 -306h513v-39q-2 -2 -17 -26.5t-35 -58.5t-42 -68.5t-37 -55.5q-10 -18 -23 -28.5t-28.5 -15.5t-34 -6t-40.5 -1q-90 0 -187.5 4t-194.5 10 t-189.5 13.5t-171.5 15.5q-7 1 -12.5 8t-5.5 16q-4 0 5.5 17t26.5 44t37.5 61.5t39.5 69.5l16 225q4 57 6.5 85t2.5 30q-60 1 -89.5 6t-29.5 22q0 8 14.5 30t35.5 50.5t44.5 59.5t41.5 57l25 340h-3q-22 -1 -40 -1.5t-33 -0.5q-48 0 -68.5 5.5t-20.5 20.5q0 7 12 29t30 50.5 t38 60t36 58.5l60 102h418l493 36q1 0 5.5 -0.5t9.5 -3t9.5 -8.5t4.5 -17l-15 -52q-7 -22 -17 -46.5t-22 -50.5l-44 -116q-7 -17 -16 -26t-38 -10q-76 -2 -169.5 -6.5t-214.5 -8.5q-4 -14 -4 -22.5t-2 -32.5l-5 -46q-2 -32 -6 -69t-10 -91q51 2 99.5 4t88.5 3.5t69.5 2.5 t41.5 1q8 0 18 -6t10 -23q0 -8 -3 -18zM795 1542q1 5 2.5 12t1.5 15q0 27 -26 51.5t-78 24.5q-32 0 -53.5 -10t-34.5 -25t-18 -32t-5 -32q0 -1 0.5 -1.5t0.5 -1.5q-1 -5 -3.5 -9.5t-10 -7.5t-21.5 -4.5t-39 -1.5q-34 0 -53 2.5t-28.5 8.5t-11.5 14.5t-2 20.5q0 56 23.5 99.5 t65 73.5t97 46t118.5 16q68 0 116.5 -21.5t79.5 -57t45.5 -80t14.5 -90.5q0 -10 -2.5 -17t-12.5 -11.5t-29 -6.5t-53 -2q-27 0 -43.5 1.5t-26 4t-12.5 6.5t-3 9q0 2 0.5 3t0.5 3z" />
<glyph unicode="&#x207;" horiz-adv-x="1142" d="M716 1116q95 0 172.5 -35.5t133 -92t85.5 -126.5t30 -140q0 -62 -38 -124.5t-106.5 -112.5t-164.5 -81t-211 -31q-60 0 -126 12q4 -43 25 -74t53 -51t72.5 -29.5t83.5 -9.5q48 0 92.5 8.5t85.5 22.5t79 31t72 34q9 2 15.5 3.5t12.5 1.5l-0.5 -16t-0.5 -45t-0.5 -70 t-1.5 -91q3 -5 4 -10t1 -8q0 -12 -22 -26t-57.5 -29t-81 -29t-92.5 -25.5t-91 -18t-77 -6.5q-108 0 -209.5 37.5t-180 107.5t-125.5 170t-47 225q0 131 45 245.5t126.5 199.5t194.5 134t249 49zM704 850q-41 0 -75.5 -17.5t-63 -50t-49.5 -78t-34 -100.5q103 18 171 38 t109 40.5t58 41t17 39.5q0 18 -13.5 34t-33.5 28t-43.5 18.5t-42.5 6.5zM717 1229q1 5 2.5 12t1.5 15q0 27 -26 51.5t-78 24.5q-32 0 -53.5 -10t-34.5 -25t-18 -32t-5 -32q0 -1 0.5 -1.5t0.5 -1.5q-1 -5 -3.5 -9.5t-10 -7.5t-21.5 -4.5t-39 -1.5q-34 0 -53 2.5t-28.5 8.5 t-11.5 14.5t-2 20.5q0 56 23.5 99.5t65 73.5t97 46t118.5 16q68 0 116.5 -21.5t79.5 -57t45.5 -80t14.5 -90.5q0 -10 -2.5 -17t-12.5 -11.5t-29 -6.5t-53 -2q-27 0 -43.5 1.5t-26 4t-12.5 6.5t-3 9q0 2 0.5 3t0.5 3z" />
<glyph unicode="&#x208;" horiz-adv-x="667" d="M139 -32l50 684q25 344 37 505t12 160q1 18 2 30t4 20t8 12t15 6l346 83q13 4 27 4t19 -8.5t5 -34.5q-7 -62 -11 -116t-6.5 -103t-4.5 -94.5t-5 -90.5q-6 -49 -10.5 -98t-8.5 -101.5t-8.5 -111t-10.5 -127.5l-44 -527q-1 -9 -3.5 -17.5t-13.5 -13.5q-1 0 -12 -4 t-29 -10.5t-42 -13.5t-51 -13q-45 -10 -78.5 -20t-59.5 -18.5t-48 -13.5t-44 -5q-15 0 -25 8t-10 29zM568 1740q-17 42 -28.5 70t-22 53.5t-22 53.5t-28.5 70l-3.5 17.5t-1.5 13.5q0 15 6 22.5t19 14.5q75 42 157.5 85.5t157.5 97.5q0 2 4.5 2.5t4.5 1.5q1 0 2 0.5t2 0.5 q8 0 8 -8l57 -585q0 -9 0.5 -16t0.5 -12q0 -17 -4 -24.5t-17 -15.5q-23 -9 -42 -17t-37.5 -16.5t-39.5 -19t-48 -24.5q-4 -4 -12 -4q-9 0 -18 13.5t-21.5 42t-30 74t-43.5 109.5zM68 1740q-23 42 -38.5 70t-30 53t-30.5 53.5t-38 70.5q-6 11 -8 21.5t-2 17.5q0 11 5 17.5 t15 11.5q37 21 77.5 42.5t81.5 44t81.5 46.5t77.5 50q10 5 14 5q6 0 8 -8l112 -585q2 -13 4 -21.5t2 -16.5q0 -9 -3 -17t-13 -13q-21 -9 -38.5 -17t-35.5 -16.5t-37.5 -19t-43.5 -24.5q-4 -4 -11 -4q-9 0 -20 13.5t-27.5 42t-41 74t-60.5 109.5z" />
<glyph unicode="&#x209;" horiz-adv-x="612" d="M146 424q14 137 26 271t23 275q2 33 6.5 45.5t22.5 16.5q85 17 178 35.5t180 47.5q3 1 9 1q11 0 11 -8l-90 -990q-3 -33 -7 -45.5t-22 -16.5q-85 -26 -172 -58.5t-184 -64.5q-3 -1 -9 -1q-11 0 -11 10q0 1 2 28t5.5 69t7.5 95t8.5 106t8.5 101.5t7 82.5zM549 1427 q-17 42 -28.5 70t-22 53.5t-22 53.5t-28.5 70l-3.5 17.5t-1.5 13.5q0 15 6 22.5t19 14.5q75 42 157.5 85.5t157.5 97.5q0 2 4.5 2.5t4.5 1.5q1 0 2 0.5t2 0.5q8 0 8 -8l57 -585q0 -9 0.5 -16t0.5 -12q0 -17 -4 -24.5t-17 -15.5q-23 -9 -42 -17t-37.5 -16.5t-39.5 -19 t-48 -24.5q-4 -4 -12 -4q-9 0 -18 13.5t-21.5 42t-30 74t-43.5 109.5zM49 1427q-23 42 -38.5 70t-30 53t-30.5 53.5t-38 70.5q-6 11 -8 21.5t-2 17.5q0 11 5 17.5t15 11.5q37 21 77.5 42.5t81.5 44t81.5 46.5t77.5 50q10 5 14 5q6 0 8 -8l112 -585q2 -13 4 -21.5t2 -16.5 q0 -9 -3 -17t-13 -13q-21 -9 -38.5 -17t-35.5 -16.5t-37.5 -19t-43.5 -24.5q-4 -4 -11 -4q-9 0 -20 13.5t-27.5 42t-41 74t-60.5 109.5z" />
<glyph unicode="&#x20a;" horiz-adv-x="667" d="M139 -32l50 684q25 344 37 505t12 160q1 18 2 30t4 20t8 12t15 6l346 83q13 4 27 4t19 -8.5t5 -34.5q-7 -62 -11 -116t-6.5 -103t-4.5 -94.5t-5 -90.5q-6 -49 -10.5 -98t-8.5 -101.5t-8.5 -111t-10.5 -127.5l-44 -527q-1 -9 -3.5 -17.5t-13.5 -13.5q-1 0 -12 -4 t-29 -10.5t-42 -13.5t-51 -13q-45 -10 -78.5 -20t-59.5 -18.5t-48 -13.5t-44 -5q-15 0 -25 8t-10 29zM491 1542q1 5 2.5 12t1.5 15q0 27 -26 51.5t-78 24.5q-32 0 -53.5 -10t-34.5 -25t-18 -32t-5 -32q0 -1 0.5 -1.5t0.5 -1.5q-1 -5 -3.5 -9.5t-10 -7.5t-21.5 -4.5t-39 -1.5 q-34 0 -53 2.5t-28.5 8.5t-11.5 14.5t-2 20.5q0 56 23.5 99.5t65 73.5t97 46t118.5 16q68 0 116.5 -21.5t79.5 -57t45.5 -80t14.5 -90.5q0 -10 -2.5 -17t-12.5 -11.5t-29 -6.5t-53 -2q-27 0 -43.5 1.5t-26 4t-12.5 6.5t-3 9q0 2 0.5 3t0.5 3z" />
<glyph unicode="&#x20b;" horiz-adv-x="611" d="M145 424q14 137 26 271t23 275q2 33 6.5 45.5t22.5 16.5q85 17 178 35.5t180 47.5q3 1 9 1q11 0 11 -8l-90 -990q-3 -33 -7 -45.5t-22 -16.5q-85 -26 -172 -58.5t-184 -64.5q-3 -1 -9 -1q-11 0 -11 10q0 1 2 28t5.5 69t7.5 95t8.5 106t8.5 101.5t7 82.5zM456 1229 q1 5 2.5 12t1.5 15q0 27 -26 51.5t-78 24.5q-32 0 -53.5 -10t-34.5 -25t-18 -32t-5 -32q0 -1 0.5 -1.5t0.5 -1.5q-1 -5 -3.5 -9.5t-10 -7.5t-21.5 -4.5t-39 -1.5q-38 0 -57.5 3.5t-27.5 10t-9 17t-1 25.5q0 54 25 95.5t67 70.5t97 44t115 15q68 0 116.5 -21.5t79.5 -57 t45.5 -80t14.5 -90.5q0 -10 -2.5 -17t-12.5 -11.5t-29 -6.5t-53 -2q-27 0 -43.5 1.5t-26 4t-12.5 6.5t-3 9q0 2 0.5 3t0.5 3z" />
<glyph unicode="&#x20c;" horiz-adv-x="1626" d="M566 682q0 -72 15.5 -144.5t51.5 -130.5t95 -94t146 -36q67 4 117.5 27.5t87 61t60.5 86t38 102t19.5 109.5t5.5 108q0 71 -19 137.5t-57 117.5t-94.5 82t-131.5 31q-59 0 -106.5 -22t-84.5 -58.5t-63.5 -84t-44 -98t-26 -101t-9.5 -93.5zM761 -52q-150 0 -268 56 t-199.5 151.5t-125 221t-43.5 265.5q0 157 44.5 289.5t124.5 235t190.5 173t242.5 104.5q12 0 18.5 19t11.5 42t12 42t20 19q194 -20 349 -68.5t263 -138.5t165.5 -227.5t57.5 -335.5q0 -127 -31 -239t-87 -206.5t-134.5 -169t-174.5 -126.5t-206.5 -79.5t-229.5 -27.5z M1045 1740q-17 42 -28.5 70t-22 53.5t-22 53.5t-28.5 70l-3.5 17.5t-1.5 13.5q0 15 6 22.5t19 14.5q75 42 157.5 85.5t157.5 97.5q0 2 4.5 2.5t4.5 1.5q1 0 2 0.5t2 0.5q8 0 8 -8l57 -585q0 -9 0.5 -16t0.5 -12q0 -17 -4 -24.5t-17 -15.5q-23 -9 -42 -17t-37.5 -16.5 t-39.5 -19t-48 -24.5q-4 -4 -12 -4q-9 0 -18 13.5t-21.5 42t-30 74t-43.5 109.5zM545 1740q-23 42 -38.5 70t-30 53t-30.5 53.5t-38 70.5q-6 11 -8 21.5t-2 17.5q0 11 5 17.5t15 11.5q37 21 77.5 42.5t81.5 44t81.5 46.5t77.5 50q10 5 14 5q6 0 8 -8l112 -585q2 -13 4 -21.5 t2 -16.5q0 -9 -3 -17t-13 -13q-21 -9 -38.5 -17t-35.5 -16.5t-37.5 -19t-43.5 -24.5q-4 -4 -11 -4q-9 0 -20 13.5t-27.5 42t-41 74t-60.5 109.5z" />
<glyph unicode="&#x20d;" horiz-adv-x="1313" d="M670 -52q-141 0 -247.5 46t-178.5 122.5t-108 176t-36 206.5t35 203.5t98 173t151 128t194 69.5q16 1 16 7q0 11 -2.5 20.5t-2.5 16.5q0 11 4 15t9 4q191 0 325 -43.5t218 -118.5t122 -177t38 -219q0 -149 -50 -266t-136.5 -198t-202 -123.5t-246.5 -42.5zM485 510 q0 -54 11.5 -107t38 -96t69.5 -69.5t107 -26.5q46 2 80.5 20.5t59.5 48t41.5 66.5t26 76.5t13.5 77.5t4 69q0 52 -15.5 102t-45.5 88t-74.5 61.5t-102.5 23.5q-60 0 -101 -35.5t-65.5 -87.5t-35.5 -109.5t-11 -101.5zM873 1427q-17 42 -28.5 70t-22 53.5t-22 53.5t-28.5 70 l-3.5 17.5t-1.5 13.5q0 15 6 22.5t19 14.5q75 42 157.5 85.5t157.5 97.5q0 2 4.5 2.5t4.5 1.5q1 0 2 0.5t2 0.5q8 0 8 -8l57 -585q0 -9 0.5 -16t0.5 -12q0 -17 -4 -24.5t-17 -15.5q-23 -9 -42 -17t-37.5 -16.5t-39.5 -19t-48 -24.5q-4 -4 -12 -4q-9 0 -18 13.5t-21.5 42 t-30 74t-43.5 109.5zM373 1427q-23 42 -38.5 70t-30 53t-30.5 53.5t-38 70.5q-6 11 -8 21.5t-2 17.5q0 11 5 17.5t15 11.5q37 21 77.5 42.5t81.5 44t81.5 46.5t77.5 50q10 5 14 5q6 0 8 -8l112 -585q2 -13 4 -21.5t2 -16.5q0 -9 -3 -17t-13 -13q-21 -9 -38.5 -17 t-35.5 -16.5t-37.5 -19t-43.5 -24.5q-4 -4 -11 -4q-9 0 -20 13.5t-27.5 42t-41 74t-60.5 109.5z" />
<glyph unicode="&#x20e;" horiz-adv-x="1626" d="M566 682q0 -72 15.5 -144.5t51.5 -130.5t95 -94t146 -36q67 4 117.5 27.5t87 61t60.5 86t38 102t19.5 109.5t5.5 108q0 71 -19 137.5t-57 117.5t-94.5 82t-131.5 31q-59 0 -106.5 -22t-84.5 -58.5t-63.5 -84t-44 -98t-26 -101t-9.5 -93.5zM761 -52q-150 0 -268 56 t-199.5 151.5t-125 221t-43.5 265.5q0 157 44.5 289.5t124.5 235t190.5 173t242.5 104.5q12 0 18.5 19t11.5 42t12 42t20 19q194 -20 349 -68.5t263 -138.5t165.5 -227.5t57.5 -335.5q0 -127 -31 -239t-87 -206.5t-134.5 -169t-174.5 -126.5t-206.5 -79.5t-229.5 -27.5z M971 1542q1 5 2.5 12t1.5 15q0 27 -26 51.5t-78 24.5q-32 0 -53.5 -10t-34.5 -25t-18 -32t-5 -32q0 -1 0.5 -1.5t0.5 -1.5q-1 -5 -3.5 -9.5t-10 -7.5t-21.5 -4.5t-39 -1.5q-34 0 -53 2.5t-28.5 8.5t-11.5 14.5t-2 20.5q0 56 23.5 99.5t65 73.5t97 46t118.5 16 q68 0 116.5 -21.5t79.5 -57t45.5 -80t14.5 -90.5q0 -10 -2.5 -17t-12.5 -11.5t-29 -6.5t-53 -2q-27 0 -43.5 1.5t-26 4t-12.5 6.5t-3 9q0 2 0.5 3t0.5 3z" />
<glyph unicode="&#x20f;" horiz-adv-x="1313" d="M670 -52q-141 0 -247.5 46t-178.5 122.5t-108 176t-36 206.5t35 203.5t98 173t151 128t194 69.5q16 1 16 7q0 11 -2.5 20.5t-2.5 16.5q0 11 4 15t9 4q191 0 325 -43.5t218 -118.5t122 -177t38 -219q0 -149 -50 -266t-136.5 -198t-202 -123.5t-246.5 -42.5zM485 510 q0 -54 11.5 -107t38 -96t69.5 -69.5t107 -26.5q46 2 80.5 20.5t59.5 48t41.5 66.5t26 76.5t13.5 77.5t4 69q0 52 -15.5 102t-45.5 88t-74.5 61.5t-102.5 23.5q-60 0 -101 -35.5t-65.5 -87.5t-35.5 -109.5t-11 -101.5zM799 1229q1 5 2.5 12t1.5 15q0 27 -26 51.5t-78 24.5 q-32 0 -53.5 -10t-34.5 -25t-18 -32t-5 -32q0 -1 0.5 -1.5t0.5 -1.5q-1 -5 -3.5 -9.5t-10 -7.5t-21.5 -4.5t-39 -1.5q-34 0 -53 2.5t-28.5 8.5t-11.5 14.5t-2 20.5q0 56 23.5 99.5t65 73.5t97 46t118.5 16q68 0 116.5 -21.5t79.5 -57t45.5 -80t14.5 -90.5q0 -10 -2.5 -17 t-12.5 -11.5t-29 -6.5t-53 -2q-27 0 -43.5 1.5t-26 4t-12.5 6.5t-3 9q0 2 0.5 3t0.5 3z" />
<glyph unicode="&#x210;" horiz-adv-x="1473" d="M658 80q-1 -9 -3.5 -17.5t-13.5 -13.5q-4 -2 -39.5 -14.5t-82 -29t-92 -33t-69.5 -25.5q-12 -5 -29.5 -10.5t-34.5 -5.5q-14 0 -24.5 7t-10.5 26q0 44 2.5 80.5t6.5 76.5t8.5 88.5t8.5 115.5q5 88 11 169.5t12 169.5l14 171q3 42 6 85.5t6 89.5l11 122q0 2 -6 2 q-8 0 -27 -3.5t-45 -8.5t-57.5 -10.5t-64.5 -10.5q-8 0 -15.5 3.5t-7.5 8.5q0 4 2 6l162 283q55 12 118.5 24.5t136.5 22.5t155 16.5t174 6.5q104 -2 202.5 -20.5t175 -62t123 -118t46.5 -188.5q0 -63 -21.5 -116t-55 -95.5t-73.5 -75t-76.5 -55.5t-64.5 -36.5t-38 -17.5 q0 -2 1.5 -5t6.5 -11.5t14.5 -24t24.5 -42.5q16 -24 38 -64t52.5 -94.5t70.5 -121.5t92 -144q17 -15 39 -18.5t41 -4t32 -2t13 -12.5q0 -8 -16.5 -18.5t-38.5 -21.5t-44.5 -21t-34.5 -16q-24 -12 -50 -23t-56 -24.5t-66.5 -31.5t-82.5 -43q-12 -7 -22.5 -9.5t-19.5 -2.5 q-18 0 -31 8.5t-22 20.5t-14.5 24.5t-9.5 20.5l-298 628zM719 757q51 0 106 26t100 67t74 93t29 105q0 145 -174 145q-33 0 -55 -4.5t-40 -6.5zM985 1740q-17 42 -28.5 70t-22 53.5t-22 53.5t-28.5 70l-3.5 17.5t-1.5 13.5q0 15 6 22.5t19 14.5q75 42 157.5 85.5t157.5 97.5 q0 2 4.5 2.5t4.5 1.5q1 0 2 0.5t2 0.5q8 0 8 -8l57 -585q0 -9 0.5 -16t0.5 -12q0 -17 -4 -24.5t-17 -15.5q-23 -9 -42 -17t-37.5 -16.5t-39.5 -19t-48 -24.5q-4 -4 -12 -4q-9 0 -18 13.5t-21.5 42t-30 74t-43.5 109.5zM485 1740q-23 42 -38.5 70t-30 53t-30.5 53.5t-38 70.5 q-6 11 -8 21.5t-2 17.5q0 11 5 17.5t15 11.5q37 21 77.5 42.5t81.5 44t81.5 46.5t77.5 50q10 5 14 5q6 0 8 -8l112 -585q2 -13 4 -21.5t2 -16.5q0 -9 -3 -17t-13 -13q-21 -9 -38.5 -17t-35.5 -16.5t-37.5 -19t-43.5 -24.5q-4 -4 -11 -4q-9 0 -20 13.5t-27.5 42t-41 74 t-60.5 109.5z" />
<glyph unicode="&#x211;" horiz-adv-x="904" d="M938 814q-21 2 -47 4.5t-55 2.5q-44 0 -89.5 -7.5t-84.5 -29.5t-67 -60.5t-36 -99.5q-7 -74 -11.5 -121.5t-6.5 -78t-3.5 -49t-2.5 -34.5q0 -4 -1.5 -22t-4.5 -42t-5.5 -52t-5.5 -52t-4.5 -42t-1.5 -22q0 -8 0.5 -13.5t0.5 -10.5q0 -8 -7.5 -13.5t-33.5 -12.5l-265 -95 q-11 -4 -29 -10t-35 -6q-14 0 -24.5 7t-10.5 24l86 991q3 33 7.5 45.5t22.5 16.5q91 18 188 36.5t188 47.5q8 0 9.5 -2.5t1.5 -7.5q0 -2 -0.5 -6t-3 -18t-7 -42.5t-12.5 -79.5q46 36 101.5 66t111.5 51.5t108 34t91 12.5zM694 1427q-17 42 -28.5 70t-22 53.5t-22 53.5 t-28.5 70l-3.5 17.5t-1.5 13.5q0 15 6 22.5t19 14.5q75 42 157.5 85.5t157.5 97.5q0 2 4.5 2.5t4.5 1.5q1 0 2 0.5t2 0.5q8 0 8 -8l57 -585q0 -9 0.5 -16t0.5 -12q0 -17 -4 -24.5t-17 -15.5q-23 -9 -42 -17t-37.5 -16.5t-39.5 -19t-48 -24.5q-4 -4 -12 -4q-9 0 -18 13.5 t-21.5 42t-30 74t-43.5 109.5zM194 1427q-23 42 -38.5 70t-30 53t-30.5 53.5t-38 70.5q-6 11 -8 21.5t-2 17.5q0 11 5 17.5t15 11.5q37 21 77.5 42.5t81.5 44t81.5 46.5t77.5 50q10 5 14 5q6 0 8 -8l112 -585q2 -13 4 -21.5t2 -16.5q0 -9 -3 -17t-13 -13q-21 -9 -38.5 -17 t-35.5 -16.5t-37.5 -19t-43.5 -24.5q-4 -4 -11 -4q-9 0 -20 13.5t-27.5 42t-41 74t-60.5 109.5z" />
<glyph unicode="&#x212;" horiz-adv-x="1473" d="M658 80q-1 -9 -3.5 -17.5t-13.5 -13.5q-4 -2 -39.5 -14.5t-82 -29t-92 -33t-69.5 -25.5q-12 -5 -29.5 -10.5t-34.5 -5.5q-14 0 -24.5 7t-10.5 26q0 44 2.5 80.5t6.5 76.5t8.5 88.5t8.5 115.5q5 88 11 169.5t12 169.5l14 171q3 42 6 85.5t6 89.5l11 122q0 2 -6 2 q-8 0 -27 -3.5t-45 -8.5t-57.5 -10.5t-64.5 -10.5q-8 0 -15.5 3.5t-7.5 8.5q0 4 2 6l162 283q55 12 118.5 24.5t136.5 22.5t155 16.5t174 6.5q104 -2 202.5 -20.5t175 -62t123 -118t46.5 -188.5q0 -63 -21.5 -116t-55 -95.5t-73.5 -75t-76.5 -55.5t-64.5 -36.5t-38 -17.5 q0 -2 1.5 -5t6.5 -11.5t14.5 -24t24.5 -42.5q16 -24 38 -64t52.5 -94.5t70.5 -121.5t92 -144q17 -15 39 -18.5t41 -4t32 -2t13 -12.5q0 -8 -16.5 -18.5t-38.5 -21.5t-44.5 -21t-34.5 -16q-24 -12 -50 -23t-56 -24.5t-66.5 -31.5t-82.5 -43q-12 -7 -22.5 -9.5t-19.5 -2.5 q-18 0 -31 8.5t-22 20.5t-14.5 24.5t-9.5 20.5l-298 628zM719 757q51 0 106 26t100 67t74 93t29 105q0 145 -174 145q-33 0 -55 -4.5t-40 -6.5zM912 1542q1 5 2.5 12t1.5 15q0 27 -26 51.5t-78 24.5q-32 0 -53.5 -10t-34.5 -25t-18 -32t-5 -32q0 -1 0.5 -1.5t0.5 -1.5 q-1 -5 -3.5 -9.5t-10 -7.5t-21.5 -4.5t-39 -1.5q-34 0 -53 2.5t-28.5 8.5t-11.5 14.5t-2 20.5q0 56 23.5 99.5t65 73.5t97 46t118.5 16q68 0 116.5 -21.5t79.5 -57t45.5 -80t14.5 -90.5q0 -10 -2.5 -17t-12.5 -11.5t-29 -6.5t-53 -2q-27 0 -43.5 1.5t-26 4t-12.5 6.5t-3 9 q0 2 0.5 3t0.5 3z" />
<glyph unicode="&#x213;" horiz-adv-x="904" d="M938 814q-21 2 -47 4.5t-55 2.5q-44 0 -89.5 -7.5t-84.5 -29.5t-67 -60.5t-36 -99.5q-7 -74 -11.5 -121.5t-6.5 -78t-3.5 -49t-2.5 -34.5q0 -4 -1.5 -22t-4.5 -42t-5.5 -52t-5.5 -52t-4.5 -42t-1.5 -22q0 -8 0.5 -13.5t0.5 -10.5q0 -8 -7.5 -13.5t-33.5 -12.5l-265 -95 q-11 -4 -29 -10t-35 -6q-14 0 -24.5 7t-10.5 24l86 991q3 33 7.5 45.5t22.5 16.5q91 18 188 36.5t188 47.5q8 0 9.5 -2.5t1.5 -7.5q0 -2 -0.5 -6t-3 -18t-7 -42.5t-12.5 -79.5q46 36 101.5 66t111.5 51.5t108 34t91 12.5zM620 1229q1 5 2.5 12t1.5 15q0 27 -26 51.5 t-78 24.5q-32 0 -53.5 -10t-34.5 -25t-18 -32t-5 -32q0 -1 0.5 -1.5t0.5 -1.5q-1 -5 -3.5 -9.5t-10 -7.5t-21.5 -4.5t-39 -1.5q-34 0 -53 2.5t-28.5 8.5t-11.5 14.5t-2 20.5q0 56 23.5 99.5t65 73.5t97 46t118.5 16q68 0 116.5 -21.5t79.5 -57t45.5 -80t14.5 -90.5 q0 -10 -2.5 -17t-12.5 -11.5t-29 -6.5t-53 -2q-27 0 -43.5 1.5t-26 4t-12.5 6.5t-3 9q0 2 0.5 3t0.5 3z" />
<glyph unicode="&#x214;" horiz-adv-x="1378" d="M1381 1430q-2 -27 -7 -79.5t-11.5 -119t-13.5 -139.5t-13.5 -139.5t-11.5 -120.5t-7 -81q-21 -213 -71.5 -365.5t-132.5 -249.5t-196.5 -142.5t-264.5 -45.5q-103 0 -194 37.5t-159 105.5t-107.5 163.5t-39.5 212.5q0 15 2.5 54.5t7 96.5t10 129.5t11.5 154.5l12 166 q6 91 9 151.5t6.5 97.5t10.5 54t22 22l341 76q13 4 27 4q16 0 21.5 -9t5.5 -34l-76 -788q-2 -35 -7 -76t-5 -84q0 -26 6.5 -57t23.5 -58.5t46.5 -46t76.5 -18.5q57 0 92 24.5t56 65t30.5 92t15.5 105.5q5 63 12 148t14 182l29 399q2 18 2.5 30t2.5 20t8.5 12t20.5 6l341 83 q13 4 27 4t20.5 -8.5t6.5 -34.5zM928 1740q-17 42 -28.5 70t-22 53.5t-22 53.5t-28.5 70l-3.5 17.5t-1.5 13.5q0 15 6 22.5t19 14.5q75 42 157.5 85.5t157.5 97.5q0 2 4.5 2.5t4.5 1.5q1 0 2 0.5t2 0.5q8 0 8 -8l57 -585q0 -9 0.5 -16t0.5 -12q0 -17 -4 -24.5t-17 -15.5 q-23 -9 -42 -17t-37.5 -16.5t-39.5 -19t-48 -24.5q-4 -4 -12 -4q-9 0 -18 13.5t-21.5 42t-30 74t-43.5 109.5zM428 1740q-23 42 -38.5 70t-30 53t-30.5 53.5t-38 70.5q-6 11 -8 21.5t-2 17.5q0 11 5 17.5t15 11.5q37 21 77.5 42.5t81.5 44t81.5 46.5t77.5 50q10 5 14 5 q6 0 8 -8l112 -585q2 -13 4 -21.5t2 -16.5q0 -9 -3 -17t-13 -13q-21 -9 -38.5 -17t-35.5 -16.5t-37.5 -19t-43.5 -24.5q-4 -4 -11 -4q-9 0 -20 13.5t-27.5 42t-41 74t-60.5 109.5z" />
<glyph unicode="&#x215;" horiz-adv-x="1280" d="M1177 124q-3 -33 -8 -45.5t-22 -16.5q-85 -24 -177.5 -48.5t-179.5 -64.5q-3 -1 -9 -1q-8 0 -9.5 4t-1.5 9q0 2 0.5 7t2.5 18.5t5.5 37.5t9.5 64q-112 -73 -198.5 -106.5t-153.5 -33.5q-167 0 -243.5 80.5t-76.5 240.5q0 29 1 59.5t6 62.5q11 118 19 202.5t13 143.5 t8.5 96.5t6 62.5t4 41.5t3.5 32.5q4 32 7.5 45t22.5 17q47 9 89.5 16.5t84 16t84.5 18.5t91 24q2 0 4 0.5t4 0.5q12 0 12 -8v-2q-4 -34 -7 -64t-6 -61.5t-6.5 -67.5t-8.5 -83.5t-12 -109.5t-17 -144q-6 -60 -12 -119.5t-6 -110.5q0 -28 4 -51.5t14.5 -40t27.5 -25.5t44 -9 q21 0 57 9.5t72 33t63.5 62t31.5 97.5q7 99 12.5 165.5t9.5 112t7 76.5t5.5 59.5t4.5 61t4 81.5q3 33 7.5 45.5t22.5 16.5q91 18 186 36.5t186 47.5q8 0 9.5 -2.5t1.5 -7.5zM858 1427q-17 42 -28.5 70t-22 53.5t-22 53.5t-28.5 70l-3.5 17.5t-1.5 13.5q0 15 6 22.5t19 14.5 q75 42 157.5 85.5t157.5 97.5q0 2 4.5 2.5t4.5 1.5q1 0 2 0.5t2 0.5q8 0 8 -8l57 -585q0 -9 0.5 -16t0.5 -12q0 -17 -4 -24.5t-17 -15.5q-23 -9 -42 -17t-37.5 -16.5t-39.5 -19t-48 -24.5q-4 -4 -12 -4q-9 0 -18 13.5t-21.5 42t-30 74t-43.5 109.5zM358 1427 q-23 42 -38.5 70t-30 53t-30.5 53.5t-38 70.5q-6 11 -8 21.5t-2 17.5q0 11 5 17.5t15 11.5q37 21 77.5 42.5t81.5 44t81.5 46.5t77.5 50q10 5 14 5q6 0 8 -8l112 -585q2 -13 4 -21.5t2 -16.5q0 -9 -3 -17t-13 -13q-21 -9 -38.5 -17t-35.5 -16.5t-37.5 -19t-43.5 -24.5 q-4 -4 -11 -4q-9 0 -20 13.5t-27.5 42t-41 74t-60.5 109.5z" />
<glyph unicode="&#x216;" horiz-adv-x="1378" d="M1381 1430q-2 -27 -7 -79.5t-11.5 -119t-13.5 -139.5t-13.5 -139.5t-11.5 -120.5t-7 -81q-21 -213 -71.5 -365.5t-132.5 -249.5t-196.5 -142.5t-264.5 -45.5q-103 0 -194 37.5t-159 105.5t-107.5 163.5t-39.5 212.5q0 15 2.5 54.5t7 96.5t10 129.5t11.5 154.5l12 166 q6 91 9 151.5t6.5 97.5t10.5 54t22 22l341 76q13 4 27 4q16 0 21.5 -9t5.5 -34l-76 -788q-2 -35 -7 -76t-5 -84q0 -26 6.5 -57t23.5 -58.5t46.5 -46t76.5 -18.5q57 0 92 24.5t56 65t30.5 92t15.5 105.5q5 63 12 148t14 182l29 399q2 18 2.5 30t2.5 20t8.5 12t20.5 6l341 83 q13 4 27 4t20.5 -8.5t6.5 -34.5zM854 1542q1 5 2.5 12t1.5 15q0 27 -26 51.5t-78 24.5q-32 0 -53.5 -10t-34.5 -25t-18 -32t-5 -32q0 -1 0.5 -1.5t0.5 -1.5q-1 -5 -3.5 -9.5t-10 -7.5t-21.5 -4.5t-39 -1.5q-34 0 -53 2.5t-28.5 8.5t-11.5 14.5t-2 20.5q0 56 23.5 99.5 t65 73.5t97 46t118.5 16q68 0 116.5 -21.5t79.5 -57t45.5 -80t14.5 -90.5q0 -10 -2.5 -17t-12.5 -11.5t-29 -6.5t-53 -2q-27 0 -43.5 1.5t-26 4t-12.5 6.5t-3 9q0 2 0.5 3t0.5 3z" />
<glyph unicode="&#x217;" horiz-adv-x="1280" d="M1177 124q-3 -33 -8 -45.5t-22 -16.5q-85 -24 -177.5 -48.5t-179.5 -64.5q-3 -1 -9 -1q-8 0 -9.5 4t-1.5 9q0 2 0.5 7t2.5 18.5t5.5 37.5t9.5 64q-112 -73 -198.5 -106.5t-153.5 -33.5q-167 0 -243.5 80.5t-76.5 240.5q0 29 1 59.5t6 62.5q11 118 19 202.5t13 143.5 t8.5 96.5t6 62.5t4 41.5t3.5 32.5q4 32 7.5 45t22.5 17q47 9 89.5 16.5t84 16t84.5 18.5t91 24q2 0 4 0.5t4 0.5q12 0 12 -8v-2q-4 -34 -7 -64t-6 -61.5t-6.5 -67.5t-8.5 -83.5t-12 -109.5t-17 -144q-6 -60 -12 -119.5t-6 -110.5q0 -28 4 -51.5t14.5 -40t27.5 -25.5t44 -9 q21 0 57 9.5t72 33t63.5 62t31.5 97.5q7 99 12.5 165.5t9.5 112t7 76.5t5.5 59.5t4.5 61t4 81.5q3 33 7.5 45.5t22.5 16.5q91 18 186 36.5t186 47.5q8 0 9.5 -2.5t1.5 -7.5zM785 1229q1 5 2.5 12t1.5 15q0 27 -26 51.5t-78 24.5q-32 0 -53.5 -10t-34.5 -25t-18 -32t-5 -32 q0 -1 0.5 -1.5t0.5 -1.5q-1 -5 -3.5 -9.5t-10 -7.5t-21.5 -4.5t-39 -1.5q-34 0 -53 2.5t-28.5 8.5t-11.5 14.5t-2 20.5q0 56 23.5 99.5t65 73.5t97 46t118.5 16q68 0 116.5 -21.5t79.5 -57t45.5 -80t14.5 -90.5q0 -10 -2.5 -17t-12.5 -11.5t-29 -6.5t-53 -2q-27 0 -43.5 1.5 t-26 4t-12.5 6.5t-3 9q0 2 0.5 3t0.5 3z" />
<glyph unicode="&#x218;" horiz-adv-x="1099" d="M158 372q0 1 -0.5 2t-0.5 2q0 17 18 17q9 0 20 -9q54 -51 120 -81t144 -30q21 0 48 4.5t51 15t40.5 27.5t16.5 43q0 29 -14 52t-37 39q-9 6 -27 20t-41 32t-48 38.5t-47.5 39t-40.5 33.5t-27 23q-59 44 -93.5 89t-52.5 94t-23 101.5t-5 111.5q0 88 42 167t118.5 137.5 t183.5 93t238 34.5q16 0 48 -3.5t70.5 -11.5t78.5 -22t73 -36q11 -8 17.5 -16t8.5 -25q5 -81 8 -159.5t8 -166.5q0 -17 -7 -22.5t-18 -5.5t-17 6q-29 29 -60 57t-65 49.5t-72.5 34.5t-83.5 13q-27 0 -54 -4.5t-49 -16.5t-35.5 -33t-13.5 -53q0 -34 8.5 -59t42.5 -47 l240 -163q66 -47 107 -93.5t64 -92.5t31.5 -90.5t8.5 -87.5q0 -70 -23 -132t-63 -114.5t-93.5 -94t-114.5 -71t-126.5 -45t-128.5 -15.5q-49 0 -96.5 1.5t-92.5 8t-87 20t-80 37.5zM504 -888q-11 6 -17.5 8.5t-18 8.5t-34 17.5t-65.5 35.5q-32 17 -32 28q0 3 3 8 q29 45 60.5 94.5t60.5 100.5l-85 1h-18q-14 0 -23 1.5t-9 8.5v2q4 43 6.5 67.5t3.5 38t1.5 19.5t1 11t1 12t1.5 24t3.5 46.5t6.5 78.5q2 33 6.5 46t22.5 15q45 0 94 0.5t97.5 1t96 0.5h91.5q17 0 17 -24l-18 -244q-3 -23 -5.5 -38t-5 -27.5t-6 -24.5t-8.5 -28 q-6 -14 -20 -36.5t-32 -48.5t-37.5 -52.5t-36.5 -50t-30 -40.5t-17 -23q-3 -4 -7.5 -10.5t-10.5 -13t-13 -11.5t-14 -5q-5 0 -11 3z" />
<glyph unicode="&#x219;" horiz-adv-x="861" d="M125 276q0 1 -0.5 1.5t-0.5 1.5q0 13 14 13q9 0 16 -7q40 -38 91.5 -62t111.5 -24q16 0 37 3.5t40 11.5t31.5 21.5t12.5 33.5q0 22 -11 40.5t-29 30.5l-35 24.5t-53.5 37.5t-54 38t-35.5 26q-45 34 -71.5 69t-40.5 72.5t-18 78.5t-4 87q0 70 37 132t97.5 109t137.5 74.5 t157 27.5q66 0 130 -20t119 -68q5 -63 7 -124t6 -128q0 -13 -6 -17.5t-14 -4.5q-7 0 -12 5q-23 22 -47 43.5t-50.5 38t-56.5 27t-64 10.5q-21 0 -42 -3.5t-38 -13t-27.5 -25.5t-10.5 -41q0 -29 7 -50t33 -41l186 -126q51 -35 82.5 -68.5t49.5 -66.5t24.5 -65.5t6.5 -64.5 q0 -90 -41.5 -158.5t-107.5 -114t-149.5 -69t-167.5 -23.5q-64 0 -123.5 13.5t-110.5 41.5zM383 -888q-11 6 -17.5 8.5t-18 8.5t-34 17.5t-65.5 35.5q-32 17 -32 28q0 3 3 8q29 45 60.5 94.5t60.5 100.5l-85 1h-18q-14 0 -23 1.5t-9 8.5v2q4 43 6.5 67.5t3.5 38t1.5 19.5 t1 11t1 12t1.5 24t3.5 46.5t6.5 78.5q2 33 6.5 46t22.5 15q45 0 94 0.5t97.5 1t96 0.5h91.5q17 0 17 -24l-18 -244q-3 -23 -5.5 -38t-5 -27.5t-6 -24.5t-8.5 -28q-6 -14 -20 -36.5t-32 -48.5t-37.5 -52.5t-36.5 -50t-30 -40.5t-17 -23q-3 -4 -7.5 -10.5t-10.5 -13t-13 -11.5 t-14 -5q-5 0 -11 3z" />
<glyph unicode="&#x21a;" horiz-adv-x="1159" d="M358 -32q5 73 10 141t9 132l36 472q6 54 10 98.5t6.5 87t5 86t5.5 96.5q-33 1 -69.5 1h-76.5h-193q-11 0 -13.5 8.5t-2.5 15.5v7l110 289l-1 4q0 5 6.5 8.5t29.5 5.5q138 8 267.5 15.5t256 13.5l253 12t260.5 11q12 0 25.5 -3t13.5 -22q0 -2 -1 -4t-1 -4 q-16 -41 -29.5 -78t-26.5 -73t-26.5 -73t-29.5 -78q-1 -1 -4 -9.5t-9 -19t-16 -19.5t-25 -10q-5 1 -10 1h-11h-267q-5 -51 -9.5 -108t-10.5 -111l-73 -781q-1 -9 -3.5 -18t-13.5 -13l-283 -102q-11 -4 -29 -10t-35 -6q-14 0 -24.5 7t-10.5 26v4zM637 -888q-11 6 -17.5 8.5 t-18 8.5t-34 17.5t-65.5 35.5q-32 17 -32 28q0 3 3 8q29 45 60.5 94.5t60.5 100.5l-85 1h-18q-14 0 -23 1.5t-9 8.5v2q4 43 6.5 67.5t3.5 38t1.5 19.5t1 11t1 12t1.5 24t3.5 46.5t6.5 78.5q2 33 6.5 46t22.5 15q45 0 94 0.5t97.5 1t96 0.5h91.5q17 0 17 -24l-18 -244 q-3 -23 -5.5 -38t-5 -27.5t-6 -24.5t-8.5 -28q-6 -14 -20 -36.5t-32 -48.5t-37.5 -52.5t-36.5 -50t-30 -40.5t-17 -23q-3 -4 -7.5 -10.5t-10.5 -13t-13 -11.5t-14 -5q-5 0 -11 3z" />
<glyph unicode="&#x21b;" horiz-adv-x="934" d="M659 771q-14 -105 -26.5 -209.5t-15.5 -195.5q0 -39 6 -65t17.5 -41t27.5 -21.5t36 -6.5q32 0 70 9.5t76 24.5q12 5 20.5 7.5t14.5 2.5q10 0 13.5 -9t7 -31.5t10.5 -60.5t23 -96q1 -5 1.5 -8.5t0.5 -6.5q0 -14 -10.5 -20t-34.5 -14q-41 -14 -86.5 -28.5t-90 -26.5 t-85.5 -19.5t-72 -7.5q-167 0 -243.5 83t-76.5 253q0 29 2 59.5t5 63.5q10 100 17.5 189.5t15.5 171.5h-105q-54 0 -78 4.5t-24 18.5q0 4 10 21.5t25.5 42t33.5 52.5t34.5 52.5t28.5 42.5t15 22h71q9 76 14.5 127.5t9 85.5t6.5 52.5t6.5 27.5t9 11.5t14.5 4.5q45 9 87 16.5 t84 15.5t85.5 18.5t90.5 24.5q3 0 4 0.5t4 0.5q12 0 12 -8v-2q-5 -55 -15.5 -153t-23.5 -222h268q8 0 15.5 -5.5t7.5 -18.5q0 -5 -12 -36t-34 -81l-36 -81q-7 -15 -14.5 -22t-30.5 -9h-186zM482 -888q-11 6 -17.5 8.5t-18 8.5t-34 17.5t-65.5 35.5q-32 17 -32 28q0 3 3 8 q29 45 60.5 94.5t60.5 100.5l-85 1h-18q-14 0 -23 1.5t-9 8.5v2q4 43 6.5 67.5t3.5 38t1.5 19.5t1 11t1 12t1.5 24t3.5 46.5t6.5 78.5q2 33 6.5 46t22.5 15q45 0 94 0.5t97.5 1t96 0.5h91.5q17 0 17 -24l-18 -244q-3 -23 -5.5 -38t-5 -27.5t-6 -24.5t-8.5 -28 q-6 -14 -20 -36.5t-32 -48.5t-37.5 -52.5t-36.5 -50t-30 -40.5t-17 -23q-3 -4 -7.5 -10.5t-10.5 -13t-13 -11.5t-14 -5q-5 0 -11 3z" />
<glyph unicode="&#x2c6;" horiz-adv-x="1056" d="M810 1662q22 -27 37.5 -48t27.5 -38t22 -32.5t22 -33.5q6 -9 19.5 -27t27 -38.5t24 -40.5t10.5 -33q0 -14 -19.5 -28t-46.5 -27t-54.5 -24t-43.5 -17q-14 -5 -30.5 -13.5t-33 -16.5t-30 -13.5t-20.5 -5.5q-8 0 -16.5 8.5t-21.5 30.5l-129 275q-61 -78 -121.5 -152.5 t-121.5 -152.5q-4 -7 -13 -7q-5 0 -23.5 8.5t-43.5 20t-51 24.5t-46 22l-27.5 12.5t-31.5 15.5t-25.5 16t-10.5 15q0 10 9 23t29 32l151 170q57 63 111 123t108 123q14 14 27.5 15.5t24.5 1.5h152q12 0 24 -2t20 -16q1 -2 13 -20l29 -43.5t36.5 -54.5t35.5 -52z" />
<glyph unicode="&#x2c7;" horiz-adv-x="1058" d="M248 1427q-33 42 -53 69.5t-37 52t-35.5 52.5t-48.5 73q-10 14 -14 25t-4 19q0 14 32.5 33t76.5 38t88.5 36.5t68.5 29.5q6 3 11 3q8 0 14.5 -7t16.5 -24l146 -260l241 285q3 5 9 5q6 -1 17.5 -4.5t34.5 -16.5q51 -28 97 -48t96 -46q10 -4 10 -15q0 -9 -8 -22t-28 -31 q-96 -106 -189.5 -211t-184.5 -208q-10 -11 -21 -13.5t-20 -2.5h-14h-155q-9 0 -17.5 2.5t-14.5 13.5q-1 2 -13.5 20.5t-30 44.5t-37 55t-34.5 52z" />
<glyph unicode="&#x2d8;" horiz-adv-x="710" d="M465 1461q0 6 3 11t12 8.5t27 5.5t48 2q29 0 47 -1.5t27.5 -4.5t12.5 -7.5t3 -11.5q0 -48 -23.5 -95t-64.5 -83.5t-97 -59.5t-121 -23q-53 0 -101 12t-84 35.5t-57.5 57t-21.5 77.5q0 9 1.5 19.5t3.5 23.5q3 15 5.5 25.5t12.5 17t30 10t58 3.5q23 0 36.5 -1.5t21 -4 t9.5 -6.5t2 -8q0 -2 -1 -9.5t-1 -16.5q0 -13 4 -27t14.5 -25.5t28.5 -19t45 -7.5q30 0 52.5 8.5t37.5 22t22.5 29t7.5 30.5v13v0z" />
<glyph unicode="&#x2d9;" horiz-adv-x="579" d="M73 1400q2 47 3 74.5t1.5 42.5t0.5 21v11.5t0.5 13.5t1.5 26.5t3 51t5 86.5q2 33 6.5 45.5t22.5 15.5q88 0 184 0.5t181 1.5q9 0 15 -5t6 -19l-28 -314q-4 -33 -7.5 -45.5t-22.5 -14.5q-85 -1 -174.5 -2t-186.5 -1q-6 0 -8.5 1t-2.5 6v4z" />
<glyph unicode="&#x2da;" horiz-adv-x="710" d="M352 1192q-59 0 -110 18t-88.5 52t-59 83t-21.5 112q0 57 23 108t63 89t94.5 60.5t117.5 22.5q55 0 103.5 -18t84.5 -51t56.5 -80t20.5 -104q0 -54 -20 -106.5t-56.5 -94t-89 -66.5t-118.5 -25zM456 1458q1 5 1 10v10q0 18 -4 38.5t-14 38t-26 28.5t-40 11 q-33 0 -57.5 -12.5t-40 -32t-23 -44t-7.5 -49.5q0 -19 4 -39.5t14 -37.5t27 -28.5t44 -12.5q30 0 51.5 10.5t36 28t23 39t11.5 42.5z" />
<glyph unicode="&#x2db;" horiz-adv-x="544" d="M50 -386q4 60 27 113.5t58 99.5t79 85t90 70h84q32 0 60.5 0.5t34.5 0.5q-34 -36 -72 -72.5t-72.5 -77.5t-62.5 -87.5t-42 -101.5q-3 -11 -3 -21q0 -26 18 -43.5t53 -17.5q27 0 46.5 1.5t36.5 4.5t33.5 8t36.5 12q0 -14 -2 -38.5t-5 -49t-6.5 -43.5t-6.5 -22l2 1 q-39 -20 -87.5 -26t-90.5 -6q-49 0 -87.5 15.5t-65.5 43t-41.5 66t-14.5 85.5z" />
<glyph unicode="&#x2dc;" horiz-adv-x="1120" d="M672 1579q19 -26 35.5 -37t38.5 -11q31 0 44.5 16.5t19 37t8.5 37t12 16.5q2 0 16.5 0.5t35.5 1.5t46 2t47 2.5t38.5 2t20.5 0.5q8 0 17 -4t9 -15q0 -72 -25.5 -145.5t-72 -133.5t-111.5 -97.5t-144 -37.5q-32 0 -63.5 6t-63 22.5t-63.5 46t-65 77.5q-17 24 -35.5 30.5 t-44.5 6.5q-24 0 -39 -10t-24 -26t-12.5 -35.5t-3.5 -38.5q0 -8 -8 -15.5t-21 -7.5q-32 0 -51.5 -0.5t-36 -1t-35 -1t-48.5 -0.5q-11 0 -20.5 4t-9.5 13q0 94 27 171.5t73.5 132.5t108.5 85.5t133 30.5q40 0 74.5 -3t67 -15t63 -37t62.5 -70z" />
<glyph unicode="&#x2dd;" horiz-adv-x="1270" d="M376 1392q-44 -61 -73.5 -100.5t-48.5 -62.5t-30 -32t-18 -9q-6 0 -10 4q-21 14 -38 24.5t-32 19t-30.5 16.5t-34.5 17q-14 8 -14 21q1 8 3.5 19t8.5 28l185 537q5 14 10 19t11 5q5 0 10 -2.5t10 -5.5q78 -52 155.5 -90t153.5 -78q18 -11 18 -27t-17 -41 q-39 -45 -64.5 -74.5t-48 -56.5t-46.5 -57t-60 -74zM984 1392q-55 -61 -92 -100.5t-60 -62.5t-35.5 -32t-19.5 -9q-6 0 -9 4q-22 16 -39.5 28t-33 21.5t-32 18.5t-36.5 19q-11 8 -11 17q0 8 5.5 19.5t15.5 31.5l260 547q7 14 14 19t12 5q7 0 18 -8q77 -57 159 -100.5 t160 -87.5q6 -5 10 -10t4 -12q0 -8 -5.5 -20t-19.5 -26q-46 -45 -77 -75.5t-58 -57t-57 -56t-73 -73.5z" />
<glyph unicode="&#x30f;" horiz-adv-x="1069" d="M691 1427q-17 42 -28.5 70t-22 53.5t-22 53.5t-28.5 70l-3.5 17.5t-1.5 13.5q0 15 6 22.5t19 14.5q75 42 157.5 85.5t157.5 97.5q0 2 4.5 2.5t4.5 1.5q1 0 2 0.5t2 0.5q8 0 8 -8l57 -585q0 -9 0.5 -16t0.5 -12q0 -17 -4 -24.5t-17 -15.5q-23 -9 -42 -17t-37.5 -16.5 t-39.5 -19t-48 -24.5q-4 -4 -12 -4q-9 0 -18 13.5t-21.5 42t-30 74t-43.5 109.5zM191 1427q-23 42 -38.5 70t-30 53t-30.5 53.5t-38 70.5q-6 11 -8 21.5t-2 17.5q0 11 5 17.5t15 11.5q37 21 77.5 42.5t81.5 44t81.5 46.5t77.5 50q10 5 14 5q6 0 8 -8l112 -585q2 -13 4 -21.5 t2 -16.5q0 -9 -3 -17t-13 -13q-21 -9 -38.5 -17t-35.5 -16.5t-37.5 -19t-43.5 -24.5q-4 -4 -11 -4q-9 0 -20 13.5t-27.5 42t-41 74t-60.5 109.5z" />
<glyph unicode="&#x311;" horiz-adv-x="681" d="M436 1229q1 5 2.5 12t1.5 15q0 27 -26 51.5t-78 24.5q-32 0 -53.5 -10t-34.5 -25t-18 -32t-5 -32q0 -1 0.5 -1.5t0.5 -1.5q-1 -5 -3.5 -9.5t-10 -7.5t-21.5 -4.5t-39 -1.5q-34 0 -53 2.5t-28.5 8.5t-11.5 14.5t-2 20.5q0 56 23.5 99.5t65 73.5t97 46t118.5 16 q68 0 116.5 -21.5t79.5 -57t45.5 -80t14.5 -90.5q0 -10 -2.5 -17t-12.5 -11.5t-29 -6.5t-53 -2q-27 0 -43.5 1.5t-26 4t-12.5 6.5t-3 9q0 2 0.5 3t0.5 3z" />
<glyph unicode="&#x326;" horiz-adv-x="559" d="M242 -888q-11 6 -17.5 8.5t-18 8.5t-34 17.5t-65.5 35.5q-32 17 -32 28q0 3 3 8q29 45 60.5 94.5t60.5 100.5l-85 1h-18q-14 0 -23 1.5t-9 8.5v2q4 43 6.5 67.5t3.5 38t1.5 19.5t1 11t1 12t1.5 24t3.5 46.5t6.5 78.5q2 33 6.5 46t22.5 15q45 0 94 0.5t97.5 1t96 0.5h91.5 q17 0 17 -24l-18 -244q-3 -23 -5.5 -38t-5 -27.5t-6 -24.5t-8.5 -28q-6 -14 -20 -36.5t-32 -48.5t-37.5 -52.5t-36.5 -50t-30 -40.5t-17 -23q-3 -4 -7.5 -10.5t-10.5 -13t-13 -11.5t-14 -5q-5 0 -11 3z" />
<glyph unicode="&#x394;" horiz-adv-x="1280" d="M104 130q5 16 19 56.5t35 98t47.5 129.5t56 149.5t60 158t60 155.5t57 141.5t49.5 116.5q4 10 13.5 18.5t20.5 14.5t21.5 10t16.5 6q6 1 35 9t64.5 17t70 16t51.5 7q16 0 34.5 -5.5t24.5 -31.5q52 -134 104 -277.5t102 -289t98 -289.5t92 -279v2v-12t-1.5 -20.5t-4 -19 t-6.5 -8.5q-183 0 -346 -1t-301.5 -2.5t-250 -3t-190.5 -2.5q-29 3 -41.5 12t-12.5 31q0 31 22 93zM641 784l-68 -218q-13 -42 -26 -83.5t-23.5 -76.5t-17.5 -60t-9 -34v-8.5t-1 -8.5h240q-11 52 -23.5 112.5t-25 124t-24.5 128t-22 124.5z" />
<glyph unicode="&#x2206;" horiz-adv-x="1280" d="M104 130q5 16 19 56.5t35 98t47.5 129.5t56 149.5t60 158t60 155.5t57 141.5t49.5 116.5q4 10 13.5 18.5t20.5 14.5t21.5 10t16.5 6q6 1 35 9t64.5 17t70 16t51.5 7q16 0 34.5 -5.5t24.5 -31.5q52 -134 104 -277.5t102 -289t98 -289.5t92 -279v2v-12t-1.5 -20.5t-4 -19 t-6.5 -8.5q-183 0 -346 -1t-301.5 -2.5t-250 -3t-190.5 -2.5q-29 3 -41.5 12t-12.5 31q0 31 22 93zM641 784l-68 -218q-13 -42 -26 -83.5t-23.5 -76.5t-17.5 -60t-9 -34v-8.5t-1 -8.5h240q-11 52 -23.5 112.5t-25 124t-24.5 128t-22 124.5z" />
<glyph unicode="&#x2013;" horiz-adv-x="1007" d="M259 517q-78 0 -112.5 4.5t-34.5 19.5q0 8 6.5 24.5t17.5 36t25 41t30 39t32.5 29t31.5 12.5l352 10q12 0 40.5 0.5t64.5 1t75.5 1.5t73 1.5t57 1t27.5 0.5q13 -1 24 -5q9 -4 16.5 -10.5t7.5 -19.5t-3 -39t-7 -52l-9 -67q-1 -6 -2.5 -10t-6.5 -7t-14.5 -4.5t-25.5 -1.5 h-122h-52t-53 -0.5t-50.5 -0.5h-43.5z" />
<glyph unicode="&#x2014;" horiz-adv-x="1366" d="M259 518q-78 -1 -112.5 4.5t-34.5 19.5q0 8 6.5 24.5t17.5 36t25 41t30 39t32.5 29t31.5 12.5l479 9q12 0 57.5 0.5t107.5 1.5t131.5 1.5t129 1.5t100 1.5t44.5 0.5q13 -1 24 -5q9 -4 16.5 -10.5t7.5 -19.5t-3 -39t-7 -52l-9 -67q-1 -6 -2.5 -10t-6.5 -7t-14.5 -4.5 t-25.5 -1.5h-238q-47 0 -94.5 -0.5t-90 -0.5t-77 -0.5t-53.5 -0.5z" />
<glyph unicode="&#x2018;" horiz-adv-x="574" d="M430 1557q11 -7 17 -10t17.5 -8t34 -16.5t66.5 -35.5q32 -17 32 -28q0 -4 -3 -8q-29 -45 -60.5 -94.5t-60.5 -100.5l85 -1q18 0 34 -0.5t16 -9.5v-2q-5 -57 -7.5 -83t-3.5 -37t-1.5 -15.5t-1.5 -18.5t-3.5 -46t-7.5 -97q-3 -33 -7.5 -46t-21.5 -15q-45 0 -94 -0.5 t-97.5 -1t-96.5 -0.5h-91q-17 0 -17 24l18 244q3 23 5.5 38t5 27.5t6 24.5t8.5 28q6 14 20 36.5t31.5 48.5t36.5 53t36.5 50.5t30.5 40t18 22.5q3 3 7.5 10t10 13.5t12.5 11.5t15 5q5 0 11 -3z" />
<glyph unicode="&#x2019;" horiz-adv-x="546" d="M339 773q-11 6 -17.5 8.5t-18 8.5t-34 17.5t-65.5 35.5q-32 17 -32 28q0 3 3 8q29 45 60.5 94.5t60.5 100.5l-85 1h-18q-14 0 -23 1.5t-9 8.5v2q4 43 6.5 67.5t3.5 38t1.5 19.5t1 11t1 12t1.5 24t3.5 46.5t6.5 78.5q2 33 6.5 46t22.5 15q45 0 94 0.5t97.5 1t96 0.5h91.5 q17 0 17 -24l-18 -244q-3 -23 -5.5 -38t-5 -27.5t-6 -24.5t-8.5 -28q-6 -14 -20 -36.5t-32 -48.5t-37.5 -52.5t-36.5 -50t-30 -40.5t-17 -23q-3 -4 -7.5 -10.5t-10.5 -13t-13 -11.5t-14 -5q-5 0 -11 3z" />
<glyph unicode="&#x201a;" horiz-adv-x="587" d="M260 -332q-11 6 -17.5 8.5t-18 8.5t-34 17.5t-65.5 35.5q-32 17 -32 28q0 3 3 8q29 45 60.5 94.5t60.5 100.5l-85 1h-18q-14 0 -23 1.5t-9 8.5v2q4 43 6.5 67.5t3.5 38t1.5 19.5t1 11t1 12t1.5 24t3.5 46.5t6.5 78.5q2 33 6.5 46t22.5 15q45 0 94 0.5t97.5 1t96 0.5h91.5 q17 0 17 -24l-18 -244q-3 -23 -5.5 -38t-5 -27.5t-6 -24.5t-8.5 -28q-6 -14 -20 -36.5t-32 -48.5t-37.5 -52.5t-36.5 -50t-30 -40.5t-17 -23q-3 -4 -7.5 -10.5t-10.5 -13t-13 -11.5t-14 -5q-5 0 -11 3z" />
<glyph unicode="&#x201c;" horiz-adv-x="1101" d="M957 1557q11 -7 17 -10t17.5 -8t34 -16.5t66.5 -35.5q32 -17 32 -28q0 -4 -3 -8q-29 -45 -60.5 -94.5t-60.5 -100.5l85 -1q18 0 34 -0.5t16 -9.5v-2q-5 -57 -7.5 -83t-3.5 -37t-1.5 -15.5t-1.5 -18.5t-3.5 -46t-7.5 -97q-3 -33 -7.5 -46t-21.5 -15q-45 0 -94 -0.5 t-97.5 -1t-96.5 -0.5h-91q-17 0 -17 24l18 244q3 23 5.5 38t5 27.5t6 24.5t8.5 28q6 14 20 36.5t31.5 48.5t36.5 53t36.5 50.5t30.5 40t18 22.5q3 3 7.5 10t10 13.5t12.5 11.5t15 5q5 0 11 -3zM430 1557q11 -7 17 -10t17.5 -8t34 -16.5t66.5 -35.5q32 -17 32 -28q0 -4 -3 -8 q-29 -45 -60.5 -94.5t-60.5 -100.5l85 -1q18 0 34 -0.5t16 -9.5v-2q-5 -57 -7.5 -83t-3.5 -37t-1.5 -15.5t-1.5 -18.5t-3.5 -46t-7.5 -97q-3 -33 -7.5 -46t-21.5 -15q-45 0 -94 -0.5t-97.5 -1t-96.5 -0.5h-91q-17 0 -17 24l18 244q3 23 5.5 38t5 27.5t6 24.5t8.5 28 q6 14 20 36.5t31.5 48.5t36.5 53t36.5 50.5t30.5 40t18 22.5q3 3 7.5 10t10 13.5t12.5 11.5t15 5q5 0 11 -3z" />
</font>
</defs>
</svg>
